; NON-PLATED HOLES START AT T1
; THROUGH (PLATED) HOLES START AT T100
M48
INCH
T100C0.038000
T101C0.015748
T102C0.027559
T103C0.118110
T104C0.035000
T105C0.031497
T106C0.032000
%
T100
X001084Y001791
X006415Y007789
X006415Y005789
X004447Y005001
X006415Y006789
X002447Y005001
X002084Y001791
X003447Y005001
T101
X006021Y008938
X007596Y007757
X000886Y008632
T102
X001092Y002850
X002092Y002850
T103
X001265Y010765
X006651Y010644
T104
X007552Y004491
X006311Y001760
T105
X004250Y002245
X005234Y002245
T106
X005265Y008649
X005265Y007649
X002265Y006649
X005265Y009649
X002265Y009649
X002265Y008649
X005265Y006649
X002265Y007649
T00
M30
