; NON-PLATED HOLES START AT T1
; THROUGH (PLATED) HOLES START AT T100
M48
INCH
T100C0.118110
T101C0.040000
T102C0.035000
T103C0.015748
T104C0.032000
T105C0.027559
T106C0.038000
T107C0.031497
%
T100
X006651Y010644
X001265Y010765
T101
X001547Y000830
X001547Y002610
X004107Y000830
X004107Y002610
T102
X007592Y004524
X007592Y001524
T103
X005512Y003806
X000886Y008632
X006021Y008938
X000608Y003985
T104
X005265Y008871
X005265Y007871
X005265Y006871
X002265Y008871
X005265Y009871
X002265Y006871
X002265Y009871
X002265Y007871
T105
X002721Y004589
X003552Y004032
T106
X004447Y005557
X006415Y005789
X006415Y006789
X006415Y007789
X005495Y001287
X003447Y005557
X002447Y005557
X006495Y001287
T107
X006427Y003103
X005442Y003103
T00
M30
