G04 MADE WITH FRITZING*
G04 WWW.FRITZING.ORG*
G04 DOUBLE SIDED*
G04 HOLES PLATED*
G04 CONTOUR ON CENTER OF CONTOUR VECTOR*
%ASAXBY*%
%FSLAX23Y23*%
%MOIN*%
%OFA0B0*%
%SFA1.0B1.0*%
%ADD10C,0.078000*%
%ADD11C,0.088000*%
%ADD12C,0.075000*%
%ADD13C,0.049370*%
%ADD14C,0.085000*%
%ADD15C,0.072992*%
%ADD16C,0.159606*%
%ADD17R,0.088000X0.088000*%
%ADD18R,0.072992X0.072992*%
%LNMASK1*%
G90*
G70*
G54D10*
X227Y965D03*
X227Y865D03*
X227Y765D03*
X227Y665D03*
X527Y665D03*
X527Y765D03*
X527Y865D03*
X527Y965D03*
X227Y965D03*
X227Y865D03*
X227Y765D03*
X227Y665D03*
X527Y665D03*
X527Y765D03*
X527Y865D03*
X527Y965D03*
G54D11*
X245Y500D03*
X345Y500D03*
X445Y500D03*
G54D12*
X109Y285D03*
X209Y285D03*
X109Y285D03*
X209Y285D03*
G54D13*
X760Y776D03*
X89Y863D03*
G54D14*
X755Y449D03*
X631Y176D03*
G54D13*
X602Y894D03*
G54D15*
X523Y225D03*
X425Y225D03*
G54D11*
X642Y779D03*
X642Y679D03*
X642Y579D03*
X108Y179D03*
X208Y179D03*
G54D16*
X665Y1064D03*
X127Y1077D03*
G54D17*
X245Y500D03*
G54D18*
X523Y225D03*
G54D17*
X642Y779D03*
X108Y179D03*
G04 End of Mask1*
M02*