G04 MADE WITH FRITZING*
G04 WWW.FRITZING.ORG*
G04 DOUBLE SIDED*
G04 HOLES PLATED*
G04 CONTOUR ON CENTER OF CONTOUR VECTOR*
%ASAXBY*%
%FSLAX23Y23*%
%MOIN*%
%OFA0B0*%
%SFA1.0B1.0*%
%ADD10C,0.039370*%
%ADD11C,0.074000*%
%ADD12C,0.075000*%
%ADD13C,0.062992*%
%ADD14C,0.078000*%
%ADD15C,0.149606*%
%ADD16C,0.068000*%
%ADD17C,0.065000*%
%ADD18R,0.062992X0.062992*%
%ADD19R,0.078000X0.078000*%
%ADD20C,0.024000*%
%ADD21R,0.001000X0.001000*%
%LNCOPPER1*%
G90*
G70*
G54D10*
X61Y399D03*
X551Y381D03*
G54D11*
X155Y261D03*
X411Y261D03*
X155Y83D03*
X411Y83D03*
X155Y261D03*
X411Y261D03*
X155Y83D03*
X411Y83D03*
G54D10*
X89Y863D03*
G54D12*
X759Y452D03*
X759Y152D03*
G54D10*
X602Y894D03*
G54D13*
X643Y310D03*
X544Y310D03*
G54D14*
X642Y779D03*
X642Y679D03*
X642Y579D03*
G54D15*
X127Y1077D03*
X665Y1064D03*
G54D14*
X650Y129D03*
X550Y129D03*
G54D16*
X227Y987D03*
X227Y887D03*
X227Y787D03*
X227Y687D03*
X527Y687D03*
X527Y787D03*
X527Y887D03*
X527Y987D03*
X227Y987D03*
X227Y887D03*
X227Y787D03*
X227Y687D03*
X527Y687D03*
X527Y787D03*
X527Y887D03*
X527Y987D03*
G54D14*
X245Y556D03*
X345Y556D03*
X445Y556D03*
G54D17*
X272Y459D03*
X355Y403D03*
X272Y459D03*
X355Y403D03*
G54D18*
X643Y310D03*
G54D19*
X642Y779D03*
X650Y129D03*
X245Y556D03*
G54D20*
X550Y373D02*
X546Y326D01*
D02*
X68Y401D02*
X259Y455D01*
D02*
X471Y230D02*
X538Y144D01*
D02*
X464Y397D02*
X471Y230D01*
D02*
X572Y43D02*
X637Y115D01*
D02*
X430Y78D02*
X572Y43D01*
D02*
X143Y278D02*
X65Y392D01*
D02*
X444Y454D02*
X445Y537D01*
D02*
X464Y397D02*
X718Y514D01*
D02*
X718Y514D02*
X760Y776D01*
D02*
X96Y865D02*
X211Y884D01*
D02*
X720Y934D02*
X542Y983D01*
D02*
X760Y776D02*
X720Y934D01*
D02*
X369Y402D02*
X464Y397D01*
D02*
X286Y459D02*
X444Y454D01*
D02*
X536Y606D02*
X626Y668D01*
D02*
X461Y565D02*
X536Y606D01*
D02*
X627Y767D02*
X539Y697D01*
D02*
X652Y298D02*
X749Y167D01*
D02*
X594Y893D02*
X543Y889D01*
D02*
X61Y406D02*
X50Y664D01*
D02*
X50Y664D02*
X211Y685D01*
G54D21*
X312Y1168D02*
X336Y1168D01*
X361Y1168D02*
X384Y1168D01*
X405Y1168D02*
X410Y1168D01*
X436Y1168D02*
X441Y1168D01*
X263Y1167D02*
X266Y1167D01*
X310Y1167D02*
X338Y1167D01*
X359Y1167D02*
X387Y1167D01*
X404Y1167D02*
X412Y1167D01*
X434Y1167D02*
X442Y1167D01*
X457Y1167D02*
X460Y1167D01*
X483Y1167D02*
X487Y1167D01*
X262Y1166D02*
X267Y1166D01*
X309Y1166D02*
X340Y1166D01*
X358Y1166D02*
X388Y1166D01*
X404Y1166D02*
X413Y1166D01*
X433Y1166D02*
X442Y1166D01*
X456Y1166D02*
X461Y1166D01*
X483Y1166D02*
X488Y1166D01*
X262Y1165D02*
X267Y1165D01*
X309Y1165D02*
X340Y1165D01*
X358Y1165D02*
X389Y1165D01*
X404Y1165D02*
X413Y1165D01*
X433Y1165D02*
X442Y1165D01*
X456Y1165D02*
X461Y1165D01*
X483Y1165D02*
X488Y1165D01*
X261Y1164D02*
X267Y1164D01*
X309Y1164D02*
X341Y1164D01*
X358Y1164D02*
X390Y1164D01*
X404Y1164D02*
X414Y1164D01*
X432Y1164D02*
X442Y1164D01*
X456Y1164D02*
X461Y1164D01*
X482Y1164D02*
X488Y1164D01*
X261Y1163D02*
X267Y1163D01*
X310Y1163D02*
X341Y1163D01*
X358Y1163D02*
X390Y1163D01*
X404Y1163D02*
X414Y1163D01*
X432Y1163D02*
X442Y1163D01*
X456Y1163D02*
X461Y1163D01*
X482Y1163D02*
X488Y1163D01*
X261Y1162D02*
X267Y1162D01*
X284Y1162D02*
X285Y1162D01*
X310Y1162D02*
X342Y1162D01*
X359Y1162D02*
X390Y1162D01*
X404Y1162D02*
X415Y1162D01*
X431Y1162D02*
X442Y1162D01*
X456Y1162D02*
X461Y1162D01*
X482Y1162D02*
X488Y1162D01*
X261Y1161D02*
X267Y1161D01*
X282Y1161D02*
X287Y1161D01*
X336Y1161D02*
X342Y1161D01*
X385Y1161D02*
X391Y1161D01*
X404Y1161D02*
X415Y1161D01*
X431Y1161D02*
X442Y1161D01*
X456Y1161D02*
X461Y1161D01*
X482Y1161D02*
X488Y1161D01*
X261Y1160D02*
X267Y1160D01*
X282Y1160D02*
X287Y1160D01*
X336Y1160D02*
X342Y1160D01*
X385Y1160D02*
X391Y1160D01*
X404Y1160D02*
X416Y1160D01*
X431Y1160D02*
X442Y1160D01*
X456Y1160D02*
X461Y1160D01*
X482Y1160D02*
X488Y1160D01*
X261Y1159D02*
X267Y1159D01*
X282Y1159D02*
X287Y1159D01*
X336Y1159D02*
X342Y1159D01*
X385Y1159D02*
X391Y1159D01*
X404Y1159D02*
X416Y1159D01*
X430Y1159D02*
X442Y1159D01*
X456Y1159D02*
X461Y1159D01*
X482Y1159D02*
X488Y1159D01*
X261Y1158D02*
X267Y1158D01*
X282Y1158D02*
X287Y1158D01*
X336Y1158D02*
X342Y1158D01*
X385Y1158D02*
X391Y1158D01*
X404Y1158D02*
X417Y1158D01*
X430Y1158D02*
X442Y1158D01*
X456Y1158D02*
X461Y1158D01*
X482Y1158D02*
X488Y1158D01*
X261Y1157D02*
X267Y1157D01*
X282Y1157D02*
X287Y1157D01*
X336Y1157D02*
X342Y1157D01*
X385Y1157D02*
X391Y1157D01*
X404Y1157D02*
X417Y1157D01*
X429Y1157D02*
X442Y1157D01*
X456Y1157D02*
X461Y1157D01*
X482Y1157D02*
X488Y1157D01*
X261Y1156D02*
X267Y1156D01*
X282Y1156D02*
X287Y1156D01*
X336Y1156D02*
X342Y1156D01*
X385Y1156D02*
X391Y1156D01*
X404Y1156D02*
X417Y1156D01*
X429Y1156D02*
X442Y1156D01*
X456Y1156D02*
X461Y1156D01*
X482Y1156D02*
X488Y1156D01*
X261Y1155D02*
X267Y1155D01*
X282Y1155D02*
X287Y1155D01*
X336Y1155D02*
X342Y1155D01*
X385Y1155D02*
X391Y1155D01*
X404Y1155D02*
X418Y1155D01*
X428Y1155D02*
X442Y1155D01*
X456Y1155D02*
X461Y1155D01*
X482Y1155D02*
X488Y1155D01*
X261Y1154D02*
X267Y1154D01*
X282Y1154D02*
X287Y1154D01*
X336Y1154D02*
X342Y1154D01*
X385Y1154D02*
X391Y1154D01*
X404Y1154D02*
X410Y1154D01*
X412Y1154D02*
X418Y1154D01*
X428Y1154D02*
X434Y1154D01*
X436Y1154D02*
X442Y1154D01*
X456Y1154D02*
X461Y1154D01*
X482Y1154D02*
X488Y1154D01*
X261Y1153D02*
X267Y1153D01*
X282Y1153D02*
X287Y1153D01*
X336Y1153D02*
X342Y1153D01*
X385Y1153D02*
X391Y1153D01*
X404Y1153D02*
X410Y1153D01*
X412Y1153D02*
X419Y1153D01*
X427Y1153D02*
X434Y1153D01*
X436Y1153D02*
X442Y1153D01*
X456Y1153D02*
X461Y1153D01*
X482Y1153D02*
X488Y1153D01*
X508Y1153D02*
X536Y1153D01*
X261Y1152D02*
X267Y1152D01*
X282Y1152D02*
X287Y1152D01*
X336Y1152D02*
X342Y1152D01*
X385Y1152D02*
X391Y1152D01*
X404Y1152D02*
X410Y1152D01*
X413Y1152D02*
X419Y1152D01*
X427Y1152D02*
X433Y1152D01*
X436Y1152D02*
X442Y1152D01*
X456Y1152D02*
X461Y1152D01*
X482Y1152D02*
X488Y1152D01*
X507Y1152D02*
X537Y1152D01*
X261Y1151D02*
X267Y1151D01*
X282Y1151D02*
X287Y1151D01*
X336Y1151D02*
X342Y1151D01*
X385Y1151D02*
X391Y1151D01*
X404Y1151D02*
X410Y1151D01*
X413Y1151D02*
X420Y1151D01*
X426Y1151D02*
X433Y1151D01*
X436Y1151D02*
X442Y1151D01*
X456Y1151D02*
X461Y1151D01*
X482Y1151D02*
X488Y1151D01*
X506Y1151D02*
X537Y1151D01*
X261Y1150D02*
X267Y1150D01*
X282Y1150D02*
X287Y1150D01*
X336Y1150D02*
X342Y1150D01*
X385Y1150D02*
X391Y1150D01*
X404Y1150D02*
X410Y1150D01*
X414Y1150D02*
X420Y1150D01*
X426Y1150D02*
X432Y1150D01*
X436Y1150D02*
X442Y1150D01*
X456Y1150D02*
X461Y1150D01*
X482Y1150D02*
X488Y1150D01*
X506Y1150D02*
X537Y1150D01*
X261Y1149D02*
X267Y1149D01*
X282Y1149D02*
X287Y1149D01*
X336Y1149D02*
X342Y1149D01*
X385Y1149D02*
X391Y1149D01*
X404Y1149D02*
X410Y1149D01*
X414Y1149D02*
X421Y1149D01*
X425Y1149D02*
X432Y1149D01*
X436Y1149D02*
X442Y1149D01*
X456Y1149D02*
X461Y1149D01*
X482Y1149D02*
X488Y1149D01*
X506Y1149D02*
X537Y1149D01*
X261Y1148D02*
X267Y1148D01*
X282Y1148D02*
X287Y1148D01*
X336Y1148D02*
X342Y1148D01*
X385Y1148D02*
X391Y1148D01*
X404Y1148D02*
X410Y1148D01*
X415Y1148D02*
X421Y1148D01*
X425Y1148D02*
X431Y1148D01*
X436Y1148D02*
X442Y1148D01*
X456Y1148D02*
X461Y1148D01*
X482Y1148D02*
X488Y1148D01*
X507Y1148D02*
X537Y1148D01*
X261Y1147D02*
X267Y1147D01*
X282Y1147D02*
X287Y1147D01*
X335Y1147D02*
X342Y1147D01*
X384Y1147D02*
X390Y1147D01*
X404Y1147D02*
X410Y1147D01*
X415Y1147D02*
X422Y1147D01*
X424Y1147D02*
X431Y1147D01*
X436Y1147D02*
X442Y1147D01*
X456Y1147D02*
X461Y1147D01*
X482Y1147D02*
X488Y1147D01*
X509Y1147D02*
X537Y1147D01*
X261Y1146D02*
X267Y1146D01*
X282Y1146D02*
X287Y1146D01*
X335Y1146D02*
X341Y1146D01*
X383Y1146D02*
X390Y1146D01*
X404Y1146D02*
X410Y1146D01*
X416Y1146D02*
X422Y1146D01*
X424Y1146D02*
X430Y1146D01*
X436Y1146D02*
X442Y1146D01*
X456Y1146D02*
X461Y1146D01*
X482Y1146D02*
X488Y1146D01*
X528Y1146D02*
X537Y1146D01*
X261Y1145D02*
X267Y1145D01*
X282Y1145D02*
X287Y1145D01*
X318Y1145D02*
X341Y1145D01*
X367Y1145D02*
X390Y1145D01*
X404Y1145D02*
X410Y1145D01*
X416Y1145D02*
X430Y1145D01*
X436Y1145D02*
X442Y1145D01*
X456Y1145D02*
X488Y1145D01*
X527Y1145D02*
X536Y1145D01*
X261Y1144D02*
X267Y1144D01*
X282Y1144D02*
X287Y1144D01*
X317Y1144D02*
X341Y1144D01*
X366Y1144D02*
X389Y1144D01*
X404Y1144D02*
X410Y1144D01*
X417Y1144D02*
X429Y1144D01*
X436Y1144D02*
X442Y1144D01*
X456Y1144D02*
X488Y1144D01*
X526Y1144D02*
X535Y1144D01*
X261Y1143D02*
X267Y1143D01*
X282Y1143D02*
X287Y1143D01*
X316Y1143D02*
X340Y1143D01*
X365Y1143D02*
X389Y1143D01*
X404Y1143D02*
X410Y1143D01*
X417Y1143D02*
X429Y1143D01*
X436Y1143D02*
X442Y1143D01*
X456Y1143D02*
X488Y1143D01*
X525Y1143D02*
X534Y1143D01*
X261Y1142D02*
X267Y1142D01*
X282Y1142D02*
X287Y1142D01*
X316Y1142D02*
X339Y1142D01*
X365Y1142D02*
X388Y1142D01*
X404Y1142D02*
X410Y1142D01*
X418Y1142D02*
X428Y1142D01*
X436Y1142D02*
X442Y1142D01*
X456Y1142D02*
X488Y1142D01*
X524Y1142D02*
X533Y1142D01*
X261Y1141D02*
X267Y1141D01*
X282Y1141D02*
X287Y1141D01*
X316Y1141D02*
X340Y1141D01*
X365Y1141D02*
X388Y1141D01*
X404Y1141D02*
X410Y1141D01*
X418Y1141D02*
X428Y1141D01*
X436Y1141D02*
X442Y1141D01*
X456Y1141D02*
X488Y1141D01*
X523Y1141D02*
X532Y1141D01*
X261Y1140D02*
X267Y1140D01*
X282Y1140D02*
X287Y1140D01*
X316Y1140D02*
X340Y1140D01*
X365Y1140D02*
X389Y1140D01*
X404Y1140D02*
X410Y1140D01*
X418Y1140D02*
X427Y1140D01*
X436Y1140D02*
X442Y1140D01*
X456Y1140D02*
X488Y1140D01*
X522Y1140D02*
X531Y1140D01*
X261Y1139D02*
X290Y1139D01*
X317Y1139D02*
X341Y1139D01*
X366Y1139D02*
X390Y1139D01*
X404Y1139D02*
X410Y1139D01*
X419Y1139D02*
X427Y1139D01*
X436Y1139D02*
X442Y1139D01*
X456Y1139D02*
X488Y1139D01*
X521Y1139D02*
X530Y1139D01*
X261Y1138D02*
X291Y1138D01*
X334Y1138D02*
X341Y1138D01*
X383Y1138D02*
X390Y1138D01*
X404Y1138D02*
X410Y1138D01*
X419Y1138D02*
X426Y1138D01*
X436Y1138D02*
X442Y1138D01*
X456Y1138D02*
X462Y1138D01*
X482Y1138D02*
X488Y1138D01*
X520Y1138D02*
X529Y1138D01*
X261Y1137D02*
X291Y1137D01*
X335Y1137D02*
X341Y1137D01*
X384Y1137D02*
X390Y1137D01*
X404Y1137D02*
X410Y1137D01*
X420Y1137D02*
X426Y1137D01*
X436Y1137D02*
X442Y1137D01*
X456Y1137D02*
X461Y1137D01*
X482Y1137D02*
X488Y1137D01*
X519Y1137D02*
X528Y1137D01*
X261Y1136D02*
X291Y1136D01*
X336Y1136D02*
X342Y1136D01*
X384Y1136D02*
X390Y1136D01*
X404Y1136D02*
X410Y1136D01*
X420Y1136D02*
X425Y1136D01*
X436Y1136D02*
X442Y1136D01*
X456Y1136D02*
X461Y1136D01*
X482Y1136D02*
X488Y1136D01*
X518Y1136D02*
X527Y1136D01*
X261Y1135D02*
X291Y1135D01*
X336Y1135D02*
X342Y1135D01*
X385Y1135D02*
X391Y1135D01*
X404Y1135D02*
X410Y1135D01*
X421Y1135D02*
X425Y1135D01*
X436Y1135D02*
X442Y1135D01*
X456Y1135D02*
X461Y1135D01*
X482Y1135D02*
X488Y1135D01*
X517Y1135D02*
X526Y1135D01*
X261Y1134D02*
X291Y1134D01*
X336Y1134D02*
X342Y1134D01*
X385Y1134D02*
X391Y1134D01*
X404Y1134D02*
X410Y1134D01*
X422Y1134D02*
X424Y1134D01*
X436Y1134D02*
X442Y1134D01*
X456Y1134D02*
X461Y1134D01*
X482Y1134D02*
X488Y1134D01*
X516Y1134D02*
X525Y1134D01*
X262Y1133D02*
X290Y1133D01*
X336Y1133D02*
X342Y1133D01*
X385Y1133D02*
X391Y1133D01*
X404Y1133D02*
X410Y1133D01*
X436Y1133D02*
X442Y1133D01*
X456Y1133D02*
X461Y1133D01*
X482Y1133D02*
X488Y1133D01*
X515Y1133D02*
X524Y1133D01*
X282Y1132D02*
X287Y1132D01*
X336Y1132D02*
X342Y1132D01*
X385Y1132D02*
X391Y1132D01*
X404Y1132D02*
X410Y1132D01*
X436Y1132D02*
X442Y1132D01*
X456Y1132D02*
X461Y1132D01*
X482Y1132D02*
X488Y1132D01*
X514Y1132D02*
X523Y1132D01*
X282Y1131D02*
X287Y1131D01*
X336Y1131D02*
X342Y1131D01*
X385Y1131D02*
X391Y1131D01*
X404Y1131D02*
X410Y1131D01*
X436Y1131D02*
X442Y1131D01*
X456Y1131D02*
X461Y1131D01*
X482Y1131D02*
X488Y1131D01*
X513Y1131D02*
X522Y1131D01*
X282Y1130D02*
X287Y1130D01*
X336Y1130D02*
X342Y1130D01*
X385Y1130D02*
X391Y1130D01*
X404Y1130D02*
X410Y1130D01*
X436Y1130D02*
X442Y1130D01*
X456Y1130D02*
X461Y1130D01*
X482Y1130D02*
X488Y1130D01*
X512Y1130D02*
X520Y1130D01*
X282Y1129D02*
X287Y1129D01*
X336Y1129D02*
X342Y1129D01*
X385Y1129D02*
X391Y1129D01*
X404Y1129D02*
X410Y1129D01*
X436Y1129D02*
X442Y1129D01*
X456Y1129D02*
X461Y1129D01*
X482Y1129D02*
X488Y1129D01*
X511Y1129D02*
X519Y1129D01*
X282Y1128D02*
X287Y1128D01*
X336Y1128D02*
X342Y1128D01*
X385Y1128D02*
X391Y1128D01*
X404Y1128D02*
X410Y1128D01*
X436Y1128D02*
X442Y1128D01*
X456Y1128D02*
X461Y1128D01*
X482Y1128D02*
X488Y1128D01*
X510Y1128D02*
X518Y1128D01*
X282Y1127D02*
X287Y1127D01*
X336Y1127D02*
X342Y1127D01*
X385Y1127D02*
X391Y1127D01*
X404Y1127D02*
X410Y1127D01*
X436Y1127D02*
X442Y1127D01*
X456Y1127D02*
X461Y1127D01*
X482Y1127D02*
X488Y1127D01*
X509Y1127D02*
X517Y1127D01*
X282Y1126D02*
X287Y1126D01*
X336Y1126D02*
X342Y1126D01*
X385Y1126D02*
X391Y1126D01*
X404Y1126D02*
X410Y1126D01*
X436Y1126D02*
X442Y1126D01*
X456Y1126D02*
X461Y1126D01*
X482Y1126D02*
X488Y1126D01*
X508Y1126D02*
X516Y1126D01*
X282Y1125D02*
X287Y1125D01*
X336Y1125D02*
X342Y1125D01*
X385Y1125D02*
X391Y1125D01*
X404Y1125D02*
X410Y1125D01*
X436Y1125D02*
X442Y1125D01*
X456Y1125D02*
X461Y1125D01*
X482Y1125D02*
X488Y1125D01*
X506Y1125D02*
X515Y1125D01*
X282Y1124D02*
X287Y1124D01*
X336Y1124D02*
X342Y1124D01*
X385Y1124D02*
X391Y1124D01*
X404Y1124D02*
X410Y1124D01*
X436Y1124D02*
X442Y1124D01*
X456Y1124D02*
X461Y1124D01*
X482Y1124D02*
X488Y1124D01*
X505Y1124D02*
X514Y1124D01*
X282Y1123D02*
X287Y1123D01*
X336Y1123D02*
X342Y1123D01*
X385Y1123D02*
X391Y1123D01*
X404Y1123D02*
X410Y1123D01*
X436Y1123D02*
X442Y1123D01*
X456Y1123D02*
X461Y1123D01*
X482Y1123D02*
X488Y1123D01*
X505Y1123D02*
X513Y1123D01*
X282Y1122D02*
X287Y1122D01*
X312Y1122D02*
X342Y1122D01*
X360Y1122D02*
X391Y1122D01*
X404Y1122D02*
X410Y1122D01*
X436Y1122D02*
X442Y1122D01*
X456Y1122D02*
X461Y1122D01*
X482Y1122D02*
X488Y1122D01*
X505Y1122D02*
X535Y1122D01*
X282Y1121D02*
X287Y1121D01*
X310Y1121D02*
X342Y1121D01*
X359Y1121D02*
X390Y1121D01*
X404Y1121D02*
X410Y1121D01*
X436Y1121D02*
X442Y1121D01*
X456Y1121D02*
X461Y1121D01*
X482Y1121D02*
X488Y1121D01*
X504Y1121D02*
X536Y1121D01*
X282Y1120D02*
X287Y1120D01*
X309Y1120D02*
X341Y1120D01*
X358Y1120D02*
X390Y1120D01*
X404Y1120D02*
X410Y1120D01*
X436Y1120D02*
X442Y1120D01*
X456Y1120D02*
X461Y1120D01*
X482Y1120D02*
X488Y1120D01*
X504Y1120D02*
X537Y1120D01*
X282Y1119D02*
X287Y1119D01*
X309Y1119D02*
X341Y1119D01*
X358Y1119D02*
X390Y1119D01*
X404Y1119D02*
X410Y1119D01*
X436Y1119D02*
X442Y1119D01*
X456Y1119D02*
X461Y1119D01*
X482Y1119D02*
X488Y1119D01*
X505Y1119D02*
X537Y1119D01*
X282Y1118D02*
X287Y1118D01*
X309Y1118D02*
X340Y1118D01*
X358Y1118D02*
X389Y1118D01*
X404Y1118D02*
X410Y1118D01*
X437Y1118D02*
X442Y1118D01*
X456Y1118D02*
X461Y1118D01*
X483Y1118D02*
X488Y1118D01*
X505Y1118D02*
X537Y1118D01*
X282Y1117D02*
X287Y1117D01*
X310Y1117D02*
X339Y1117D01*
X358Y1117D02*
X388Y1117D01*
X404Y1117D02*
X409Y1117D01*
X437Y1117D02*
X442Y1117D01*
X456Y1117D02*
X461Y1117D01*
X483Y1117D02*
X488Y1117D01*
X505Y1117D02*
X537Y1117D01*
X283Y1116D02*
X286Y1116D01*
X311Y1116D02*
X338Y1116D01*
X359Y1116D02*
X386Y1116D01*
X405Y1116D02*
X408Y1116D01*
X438Y1116D02*
X441Y1116D01*
X457Y1116D02*
X460Y1116D01*
X484Y1116D02*
X487Y1116D01*
X506Y1116D02*
X536Y1116D01*
X270Y1092D02*
X286Y1092D01*
X476Y1092D02*
X478Y1092D01*
X492Y1092D02*
X494Y1092D01*
X506Y1092D02*
X516Y1092D01*
X270Y1091D02*
X287Y1091D01*
X476Y1091D02*
X479Y1091D01*
X492Y1091D02*
X495Y1091D01*
X505Y1091D02*
X516Y1091D01*
X270Y1090D02*
X288Y1090D01*
X392Y1090D02*
X394Y1090D01*
X476Y1090D02*
X479Y1090D01*
X492Y1090D02*
X495Y1090D01*
X505Y1090D02*
X516Y1090D01*
X270Y1089D02*
X289Y1089D01*
X392Y1089D02*
X395Y1089D01*
X476Y1089D02*
X479Y1089D01*
X492Y1089D02*
X495Y1089D01*
X506Y1089D02*
X516Y1089D01*
X270Y1088D02*
X273Y1088D01*
X285Y1088D02*
X289Y1088D01*
X392Y1088D02*
X395Y1088D01*
X476Y1088D02*
X479Y1088D01*
X492Y1088D02*
X495Y1088D01*
X513Y1088D02*
X516Y1088D01*
X270Y1087D02*
X273Y1087D01*
X286Y1087D02*
X289Y1087D01*
X392Y1087D02*
X395Y1087D01*
X476Y1087D02*
X479Y1087D01*
X492Y1087D02*
X495Y1087D01*
X513Y1087D02*
X516Y1087D01*
X270Y1086D02*
X273Y1086D01*
X286Y1086D02*
X289Y1086D01*
X392Y1086D02*
X395Y1086D01*
X476Y1086D02*
X479Y1086D01*
X492Y1086D02*
X495Y1086D01*
X513Y1086D02*
X516Y1086D01*
X270Y1085D02*
X273Y1085D01*
X286Y1085D02*
X289Y1085D01*
X392Y1085D02*
X395Y1085D01*
X476Y1085D02*
X479Y1085D01*
X492Y1085D02*
X495Y1085D01*
X513Y1085D02*
X516Y1085D01*
X270Y1084D02*
X273Y1084D01*
X286Y1084D02*
X289Y1084D01*
X307Y1084D02*
X311Y1084D01*
X366Y1084D02*
X370Y1084D01*
X391Y1084D02*
X401Y1084D01*
X424Y1084D02*
X429Y1084D01*
X476Y1084D02*
X479Y1084D01*
X492Y1084D02*
X495Y1084D01*
X513Y1084D02*
X516Y1084D01*
X270Y1083D02*
X273Y1083D01*
X286Y1083D02*
X289Y1083D01*
X304Y1083D02*
X314Y1083D01*
X329Y1083D02*
X331Y1083D01*
X333Y1083D02*
X338Y1083D01*
X341Y1083D02*
X346Y1083D01*
X363Y1083D02*
X373Y1083D01*
X388Y1083D02*
X403Y1083D01*
X421Y1083D02*
X432Y1083D01*
X476Y1083D02*
X479Y1083D01*
X491Y1083D02*
X495Y1083D01*
X513Y1083D02*
X516Y1083D01*
X270Y1082D02*
X289Y1082D01*
X302Y1082D02*
X316Y1082D01*
X328Y1082D02*
X347Y1082D01*
X361Y1082D02*
X374Y1082D01*
X388Y1082D02*
X403Y1082D01*
X420Y1082D02*
X433Y1082D01*
X476Y1082D02*
X480Y1082D01*
X491Y1082D02*
X494Y1082D01*
X513Y1082D02*
X516Y1082D01*
X270Y1081D02*
X288Y1081D01*
X301Y1081D02*
X317Y1081D01*
X328Y1081D02*
X348Y1081D01*
X360Y1081D02*
X375Y1081D01*
X388Y1081D02*
X403Y1081D01*
X419Y1081D02*
X434Y1081D01*
X476Y1081D02*
X480Y1081D01*
X491Y1081D02*
X494Y1081D01*
X513Y1081D02*
X516Y1081D01*
X270Y1080D02*
X287Y1080D01*
X301Y1080D02*
X317Y1080D01*
X328Y1080D02*
X348Y1080D01*
X359Y1080D02*
X376Y1080D01*
X389Y1080D02*
X402Y1080D01*
X418Y1080D02*
X435Y1080D01*
X477Y1080D02*
X480Y1080D01*
X490Y1080D02*
X494Y1080D01*
X513Y1080D02*
X516Y1080D01*
X270Y1079D02*
X286Y1079D01*
X300Y1079D02*
X304Y1079D01*
X314Y1079D02*
X318Y1079D01*
X328Y1079D02*
X334Y1079D01*
X337Y1079D02*
X342Y1079D01*
X345Y1079D02*
X348Y1079D01*
X359Y1079D02*
X363Y1079D01*
X373Y1079D02*
X377Y1079D01*
X392Y1079D02*
X395Y1079D01*
X417Y1079D02*
X422Y1079D01*
X432Y1079D02*
X436Y1079D01*
X477Y1079D02*
X481Y1079D01*
X490Y1079D02*
X493Y1079D01*
X513Y1079D02*
X516Y1079D01*
X270Y1078D02*
X273Y1078D01*
X277Y1078D02*
X281Y1078D01*
X300Y1078D02*
X303Y1078D01*
X315Y1078D02*
X318Y1078D01*
X328Y1078D02*
X332Y1078D01*
X337Y1078D02*
X341Y1078D01*
X345Y1078D02*
X348Y1078D01*
X358Y1078D02*
X362Y1078D01*
X374Y1078D02*
X377Y1078D01*
X392Y1078D02*
X395Y1078D01*
X417Y1078D02*
X421Y1078D01*
X432Y1078D02*
X436Y1078D01*
X478Y1078D02*
X481Y1078D01*
X489Y1078D02*
X493Y1078D01*
X513Y1078D02*
X516Y1078D01*
X270Y1077D02*
X273Y1077D01*
X278Y1077D02*
X281Y1077D01*
X300Y1077D02*
X303Y1077D01*
X315Y1077D02*
X319Y1077D01*
X328Y1077D02*
X332Y1077D01*
X337Y1077D02*
X340Y1077D01*
X345Y1077D02*
X348Y1077D01*
X358Y1077D02*
X361Y1077D01*
X374Y1077D02*
X377Y1077D01*
X392Y1077D02*
X395Y1077D01*
X417Y1077D02*
X420Y1077D01*
X433Y1077D02*
X436Y1077D01*
X478Y1077D02*
X481Y1077D01*
X489Y1077D02*
X492Y1077D01*
X513Y1077D02*
X516Y1077D01*
X270Y1076D02*
X273Y1076D01*
X278Y1076D02*
X282Y1076D01*
X299Y1076D02*
X303Y1076D01*
X316Y1076D02*
X319Y1076D01*
X328Y1076D02*
X332Y1076D01*
X337Y1076D02*
X340Y1076D01*
X345Y1076D02*
X348Y1076D01*
X358Y1076D02*
X361Y1076D01*
X374Y1076D02*
X377Y1076D01*
X392Y1076D02*
X395Y1076D01*
X417Y1076D02*
X420Y1076D01*
X433Y1076D02*
X436Y1076D01*
X478Y1076D02*
X482Y1076D01*
X489Y1076D02*
X492Y1076D01*
X513Y1076D02*
X516Y1076D01*
X270Y1075D02*
X273Y1075D01*
X279Y1075D02*
X283Y1075D01*
X299Y1075D02*
X303Y1075D01*
X316Y1075D02*
X319Y1075D01*
X328Y1075D02*
X332Y1075D01*
X337Y1075D02*
X340Y1075D01*
X345Y1075D02*
X348Y1075D01*
X358Y1075D02*
X361Y1075D01*
X374Y1075D02*
X377Y1075D01*
X392Y1075D02*
X395Y1075D01*
X417Y1075D02*
X420Y1075D01*
X433Y1075D02*
X436Y1075D01*
X479Y1075D02*
X482Y1075D01*
X488Y1075D02*
X492Y1075D01*
X513Y1075D02*
X516Y1075D01*
X270Y1074D02*
X273Y1074D01*
X279Y1074D02*
X283Y1074D01*
X299Y1074D02*
X319Y1074D01*
X328Y1074D02*
X332Y1074D01*
X337Y1074D02*
X340Y1074D01*
X345Y1074D02*
X348Y1074D01*
X358Y1074D02*
X361Y1074D01*
X374Y1074D02*
X377Y1074D01*
X392Y1074D02*
X395Y1074D01*
X417Y1074D02*
X436Y1074D01*
X479Y1074D02*
X483Y1074D01*
X488Y1074D02*
X491Y1074D01*
X513Y1074D02*
X516Y1074D01*
X270Y1073D02*
X273Y1073D01*
X280Y1073D02*
X284Y1073D01*
X299Y1073D02*
X319Y1073D01*
X328Y1073D02*
X332Y1073D01*
X337Y1073D02*
X340Y1073D01*
X345Y1073D02*
X348Y1073D01*
X358Y1073D02*
X361Y1073D01*
X374Y1073D02*
X377Y1073D01*
X392Y1073D02*
X395Y1073D01*
X417Y1073D02*
X436Y1073D01*
X480Y1073D02*
X483Y1073D01*
X487Y1073D02*
X491Y1073D01*
X513Y1073D02*
X516Y1073D01*
X522Y1073D02*
X523Y1073D01*
X270Y1072D02*
X273Y1072D01*
X281Y1072D02*
X284Y1072D01*
X299Y1072D02*
X319Y1072D01*
X328Y1072D02*
X332Y1072D01*
X337Y1072D02*
X340Y1072D01*
X345Y1072D02*
X348Y1072D01*
X358Y1072D02*
X361Y1072D01*
X374Y1072D02*
X377Y1072D01*
X392Y1072D02*
X395Y1072D01*
X417Y1072D02*
X436Y1072D01*
X480Y1072D02*
X483Y1072D01*
X487Y1072D02*
X490Y1072D01*
X513Y1072D02*
X516Y1072D01*
X521Y1072D02*
X524Y1072D01*
X270Y1071D02*
X273Y1071D01*
X281Y1071D02*
X285Y1071D01*
X299Y1071D02*
X318Y1071D01*
X328Y1071D02*
X332Y1071D01*
X337Y1071D02*
X340Y1071D01*
X345Y1071D02*
X348Y1071D01*
X358Y1071D02*
X361Y1071D01*
X374Y1071D02*
X377Y1071D01*
X392Y1071D02*
X395Y1071D01*
X417Y1071D02*
X435Y1071D01*
X480Y1071D02*
X484Y1071D01*
X487Y1071D02*
X490Y1071D01*
X513Y1071D02*
X516Y1071D01*
X521Y1071D02*
X524Y1071D01*
X270Y1070D02*
X273Y1070D01*
X282Y1070D02*
X286Y1070D01*
X299Y1070D02*
X303Y1070D01*
X328Y1070D02*
X332Y1070D01*
X337Y1070D02*
X340Y1070D01*
X345Y1070D02*
X348Y1070D01*
X358Y1070D02*
X361Y1070D01*
X374Y1070D02*
X377Y1070D01*
X392Y1070D02*
X395Y1070D01*
X417Y1070D02*
X420Y1070D01*
X481Y1070D02*
X484Y1070D01*
X486Y1070D02*
X490Y1070D01*
X513Y1070D02*
X516Y1070D01*
X521Y1070D02*
X524Y1070D01*
X270Y1069D02*
X273Y1069D01*
X282Y1069D02*
X286Y1069D01*
X299Y1069D02*
X303Y1069D01*
X328Y1069D02*
X332Y1069D01*
X337Y1069D02*
X340Y1069D01*
X345Y1069D02*
X348Y1069D01*
X358Y1069D02*
X361Y1069D01*
X374Y1069D02*
X377Y1069D01*
X392Y1069D02*
X395Y1069D01*
X417Y1069D02*
X420Y1069D01*
X481Y1069D02*
X489Y1069D01*
X513Y1069D02*
X516Y1069D01*
X521Y1069D02*
X524Y1069D01*
X270Y1068D02*
X273Y1068D01*
X283Y1068D02*
X287Y1068D01*
X299Y1068D02*
X303Y1068D01*
X328Y1068D02*
X332Y1068D01*
X337Y1068D02*
X340Y1068D01*
X345Y1068D02*
X348Y1068D01*
X358Y1068D02*
X361Y1068D01*
X374Y1068D02*
X377Y1068D01*
X392Y1068D02*
X395Y1068D01*
X404Y1068D02*
X406Y1068D01*
X417Y1068D02*
X420Y1068D01*
X482Y1068D02*
X489Y1068D01*
X513Y1068D02*
X516Y1068D01*
X521Y1068D02*
X524Y1068D01*
X270Y1067D02*
X273Y1067D01*
X284Y1067D02*
X287Y1067D01*
X300Y1067D02*
X303Y1067D01*
X328Y1067D02*
X332Y1067D01*
X337Y1067D02*
X340Y1067D01*
X345Y1067D02*
X348Y1067D01*
X358Y1067D02*
X362Y1067D01*
X374Y1067D02*
X377Y1067D01*
X392Y1067D02*
X395Y1067D01*
X404Y1067D02*
X407Y1067D01*
X417Y1067D02*
X421Y1067D01*
X482Y1067D02*
X488Y1067D01*
X513Y1067D02*
X516Y1067D01*
X521Y1067D02*
X524Y1067D01*
X270Y1066D02*
X273Y1066D01*
X284Y1066D02*
X288Y1066D01*
X300Y1066D02*
X304Y1066D01*
X328Y1066D02*
X332Y1066D01*
X337Y1066D02*
X340Y1066D01*
X345Y1066D02*
X348Y1066D01*
X359Y1066D02*
X363Y1066D01*
X373Y1066D02*
X377Y1066D01*
X392Y1066D02*
X395Y1066D01*
X403Y1066D02*
X407Y1066D01*
X417Y1066D02*
X422Y1066D01*
X482Y1066D02*
X488Y1066D01*
X513Y1066D02*
X516Y1066D01*
X521Y1066D02*
X524Y1066D01*
X270Y1065D02*
X273Y1065D01*
X285Y1065D02*
X288Y1065D01*
X300Y1065D02*
X317Y1065D01*
X328Y1065D02*
X332Y1065D01*
X337Y1065D02*
X340Y1065D01*
X345Y1065D02*
X348Y1065D01*
X359Y1065D02*
X376Y1065D01*
X392Y1065D02*
X406Y1065D01*
X418Y1065D02*
X434Y1065D01*
X483Y1065D02*
X488Y1065D01*
X507Y1065D02*
X524Y1065D01*
X270Y1064D02*
X273Y1064D01*
X285Y1064D02*
X289Y1064D01*
X301Y1064D02*
X318Y1064D01*
X328Y1064D02*
X332Y1064D01*
X337Y1064D02*
X340Y1064D01*
X345Y1064D02*
X348Y1064D01*
X360Y1064D02*
X375Y1064D01*
X392Y1064D02*
X406Y1064D01*
X419Y1064D02*
X436Y1064D01*
X483Y1064D02*
X487Y1064D01*
X505Y1064D02*
X524Y1064D01*
X270Y1063D02*
X273Y1063D01*
X286Y1063D02*
X289Y1063D01*
X302Y1063D02*
X319Y1063D01*
X328Y1063D02*
X332Y1063D01*
X337Y1063D02*
X340Y1063D01*
X345Y1063D02*
X348Y1063D01*
X361Y1063D02*
X374Y1063D01*
X393Y1063D02*
X405Y1063D01*
X420Y1063D02*
X436Y1063D01*
X483Y1063D02*
X487Y1063D01*
X505Y1063D02*
X524Y1063D01*
X270Y1062D02*
X273Y1062D01*
X286Y1062D02*
X289Y1062D01*
X304Y1062D02*
X318Y1062D01*
X329Y1062D02*
X331Y1062D01*
X337Y1062D02*
X340Y1062D01*
X346Y1062D02*
X348Y1062D01*
X363Y1062D02*
X373Y1062D01*
X394Y1062D02*
X404Y1062D01*
X421Y1062D02*
X436Y1062D01*
X484Y1062D02*
X486Y1062D01*
X505Y1062D02*
X524Y1062D01*
X307Y1061D02*
X317Y1061D01*
X365Y1061D02*
X370Y1061D01*
X397Y1061D02*
X401Y1061D01*
X424Y1061D02*
X434Y1061D01*
X507Y1061D02*
X522Y1061D01*
D02*
G04 End of Copper1*
M02*