G04 MADE WITH FRITZING*
G04 WWW.FRITZING.ORG*
G04 DOUBLE SIDED*
G04 HOLES PLATED*
G04 CONTOUR ON CENTER OF CONTOUR VECTOR*
%ASAXBY*%
%FSLAX23Y23*%
%MOIN*%
%OFA0B0*%
%SFA1.0B1.0*%
%ADD10C,0.068000*%
%ADD11C,0.078000*%
%ADD12C,0.065000*%
%ADD13C,0.039370*%
%ADD14C,0.075000*%
%ADD15C,0.062992*%
%ADD16C,0.149606*%
%ADD17R,0.078000X0.078000*%
%ADD18R,0.062992X0.062992*%
%ADD19C,0.024000*%
%ADD20R,0.001000X0.001000*%
%LNCOPPER1*%
G90*
G70*
G54D10*
X227Y965D03*
X227Y865D03*
X227Y765D03*
X227Y665D03*
X527Y665D03*
X527Y765D03*
X527Y865D03*
X527Y965D03*
X227Y965D03*
X227Y865D03*
X227Y765D03*
X227Y665D03*
X527Y665D03*
X527Y765D03*
X527Y865D03*
X527Y965D03*
G54D11*
X245Y500D03*
X345Y500D03*
X445Y500D03*
G54D12*
X109Y285D03*
X209Y285D03*
X109Y285D03*
X209Y285D03*
G54D13*
X760Y776D03*
X89Y863D03*
G54D14*
X755Y449D03*
X631Y176D03*
G54D13*
X602Y894D03*
G54D15*
X523Y225D03*
X425Y225D03*
G54D11*
X642Y779D03*
X642Y679D03*
X642Y579D03*
X108Y179D03*
X208Y179D03*
G54D16*
X665Y1064D03*
X127Y1077D03*
G54D17*
X245Y500D03*
G54D18*
X523Y225D03*
G54D17*
X642Y779D03*
X108Y179D03*
G54D19*
X109Y198D02*
X109Y271D01*
D02*
X209Y198D02*
X209Y271D01*
D02*
X109Y299D02*
X110Y339D01*
D02*
X110Y339D02*
X445Y437D01*
D02*
X445Y437D02*
X445Y481D01*
D02*
X718Y511D02*
X758Y768D01*
D02*
X222Y290D02*
X445Y381D01*
D02*
X445Y381D02*
X718Y511D01*
D02*
X758Y783D02*
X720Y934D01*
D02*
X720Y934D02*
X542Y962D01*
D02*
X97Y863D02*
X211Y865D01*
D02*
X595Y891D02*
X542Y871D01*
D02*
X539Y225D02*
X587Y225D01*
D02*
X587Y225D02*
X619Y189D01*
D02*
X329Y130D02*
X327Y225D01*
D02*
X255Y69D02*
X329Y130D01*
D02*
X108Y67D02*
X255Y69D01*
D02*
X327Y225D02*
X409Y225D01*
D02*
X108Y160D02*
X108Y67D01*
D02*
X628Y766D02*
X538Y676D01*
D02*
X444Y519D02*
X443Y581D01*
D02*
X443Y581D02*
X550Y583D01*
D02*
X550Y583D02*
X628Y665D01*
D02*
X50Y180D02*
X50Y664D01*
D02*
X89Y179D02*
X50Y180D01*
D02*
X50Y664D02*
X211Y665D01*
G54D20*
X273Y1153D02*
X274Y1153D01*
X320Y1153D02*
X346Y1153D01*
X369Y1153D02*
X395Y1153D01*
X414Y1153D02*
X420Y1153D01*
X444Y1153D02*
X450Y1153D01*
X467Y1153D02*
X468Y1153D01*
X494Y1153D02*
X495Y1153D01*
X271Y1152D02*
X275Y1152D01*
X319Y1152D02*
X348Y1152D01*
X368Y1152D02*
X396Y1152D01*
X413Y1152D02*
X421Y1152D01*
X443Y1152D02*
X451Y1152D01*
X465Y1152D02*
X470Y1152D01*
X492Y1152D02*
X496Y1152D01*
X271Y1151D02*
X276Y1151D01*
X318Y1151D02*
X349Y1151D01*
X367Y1151D02*
X398Y1151D01*
X413Y1151D02*
X422Y1151D01*
X442Y1151D02*
X451Y1151D01*
X465Y1151D02*
X470Y1151D01*
X492Y1151D02*
X497Y1151D01*
X270Y1150D02*
X276Y1150D01*
X318Y1150D02*
X350Y1150D01*
X367Y1150D02*
X398Y1150D01*
X413Y1150D02*
X422Y1150D01*
X442Y1150D02*
X451Y1150D01*
X465Y1150D02*
X470Y1150D01*
X491Y1150D02*
X497Y1150D01*
X270Y1149D02*
X276Y1149D01*
X318Y1149D02*
X350Y1149D01*
X367Y1149D02*
X399Y1149D01*
X413Y1149D02*
X423Y1149D01*
X441Y1149D02*
X451Y1149D01*
X465Y1149D02*
X470Y1149D01*
X491Y1149D02*
X497Y1149D01*
X270Y1148D02*
X276Y1148D01*
X319Y1148D02*
X350Y1148D01*
X368Y1148D02*
X399Y1148D01*
X413Y1148D02*
X423Y1148D01*
X441Y1148D02*
X451Y1148D01*
X465Y1148D02*
X470Y1148D01*
X491Y1148D02*
X497Y1148D01*
X270Y1147D02*
X276Y1147D01*
X292Y1147D02*
X295Y1147D01*
X320Y1147D02*
X351Y1147D01*
X369Y1147D02*
X399Y1147D01*
X413Y1147D02*
X424Y1147D01*
X440Y1147D02*
X451Y1147D01*
X465Y1147D02*
X470Y1147D01*
X491Y1147D02*
X497Y1147D01*
X270Y1146D02*
X276Y1146D01*
X291Y1146D02*
X296Y1146D01*
X345Y1146D02*
X351Y1146D01*
X394Y1146D02*
X400Y1146D01*
X413Y1146D02*
X424Y1146D01*
X440Y1146D02*
X451Y1146D01*
X465Y1146D02*
X470Y1146D01*
X491Y1146D02*
X497Y1146D01*
X270Y1145D02*
X276Y1145D01*
X291Y1145D02*
X296Y1145D01*
X345Y1145D02*
X351Y1145D01*
X394Y1145D02*
X400Y1145D01*
X413Y1145D02*
X425Y1145D01*
X439Y1145D02*
X451Y1145D01*
X465Y1145D02*
X470Y1145D01*
X491Y1145D02*
X497Y1145D01*
X270Y1144D02*
X276Y1144D01*
X291Y1144D02*
X296Y1144D01*
X345Y1144D02*
X351Y1144D01*
X394Y1144D02*
X400Y1144D01*
X413Y1144D02*
X425Y1144D01*
X439Y1144D02*
X451Y1144D01*
X465Y1144D02*
X470Y1144D01*
X491Y1144D02*
X497Y1144D01*
X270Y1143D02*
X276Y1143D01*
X291Y1143D02*
X296Y1143D01*
X345Y1143D02*
X351Y1143D01*
X394Y1143D02*
X400Y1143D01*
X413Y1143D02*
X426Y1143D01*
X438Y1143D02*
X451Y1143D01*
X465Y1143D02*
X470Y1143D01*
X491Y1143D02*
X497Y1143D01*
X270Y1142D02*
X276Y1142D01*
X291Y1142D02*
X296Y1142D01*
X345Y1142D02*
X351Y1142D01*
X394Y1142D02*
X400Y1142D01*
X413Y1142D02*
X426Y1142D01*
X438Y1142D02*
X451Y1142D01*
X465Y1142D02*
X470Y1142D01*
X491Y1142D02*
X497Y1142D01*
X270Y1141D02*
X276Y1141D01*
X291Y1141D02*
X296Y1141D01*
X345Y1141D02*
X351Y1141D01*
X394Y1141D02*
X400Y1141D01*
X413Y1141D02*
X427Y1141D01*
X437Y1141D02*
X451Y1141D01*
X465Y1141D02*
X470Y1141D01*
X491Y1141D02*
X497Y1141D01*
X270Y1140D02*
X276Y1140D01*
X291Y1140D02*
X296Y1140D01*
X345Y1140D02*
X351Y1140D01*
X394Y1140D02*
X400Y1140D01*
X413Y1140D02*
X419Y1140D01*
X421Y1140D02*
X427Y1140D01*
X437Y1140D02*
X451Y1140D01*
X465Y1140D02*
X470Y1140D01*
X491Y1140D02*
X497Y1140D01*
X270Y1139D02*
X276Y1139D01*
X291Y1139D02*
X296Y1139D01*
X345Y1139D02*
X351Y1139D01*
X394Y1139D02*
X400Y1139D01*
X413Y1139D02*
X419Y1139D01*
X421Y1139D02*
X427Y1139D01*
X436Y1139D02*
X443Y1139D01*
X445Y1139D02*
X451Y1139D01*
X465Y1139D02*
X470Y1139D01*
X491Y1139D02*
X497Y1139D01*
X270Y1138D02*
X276Y1138D01*
X291Y1138D02*
X296Y1138D01*
X345Y1138D02*
X351Y1138D01*
X394Y1138D02*
X400Y1138D01*
X413Y1138D02*
X419Y1138D01*
X421Y1138D02*
X428Y1138D01*
X436Y1138D02*
X443Y1138D01*
X445Y1138D02*
X451Y1138D01*
X465Y1138D02*
X470Y1138D01*
X491Y1138D02*
X497Y1138D01*
X516Y1138D02*
X545Y1138D01*
X270Y1137D02*
X276Y1137D01*
X291Y1137D02*
X296Y1137D01*
X345Y1137D02*
X351Y1137D01*
X394Y1137D02*
X400Y1137D01*
X413Y1137D02*
X419Y1137D01*
X422Y1137D02*
X428Y1137D01*
X436Y1137D02*
X442Y1137D01*
X445Y1137D02*
X451Y1137D01*
X465Y1137D02*
X470Y1137D01*
X491Y1137D02*
X497Y1137D01*
X515Y1137D02*
X546Y1137D01*
X270Y1136D02*
X276Y1136D01*
X291Y1136D02*
X296Y1136D01*
X345Y1136D02*
X351Y1136D01*
X394Y1136D02*
X400Y1136D01*
X413Y1136D02*
X419Y1136D01*
X422Y1136D02*
X429Y1136D01*
X435Y1136D02*
X442Y1136D01*
X445Y1136D02*
X451Y1136D01*
X465Y1136D02*
X470Y1136D01*
X491Y1136D02*
X497Y1136D01*
X515Y1136D02*
X546Y1136D01*
X270Y1135D02*
X276Y1135D01*
X291Y1135D02*
X296Y1135D01*
X345Y1135D02*
X351Y1135D01*
X394Y1135D02*
X400Y1135D01*
X413Y1135D02*
X419Y1135D01*
X423Y1135D02*
X429Y1135D01*
X435Y1135D02*
X441Y1135D01*
X445Y1135D02*
X451Y1135D01*
X465Y1135D02*
X470Y1135D01*
X491Y1135D02*
X497Y1135D01*
X515Y1135D02*
X546Y1135D01*
X270Y1134D02*
X276Y1134D01*
X291Y1134D02*
X296Y1134D01*
X345Y1134D02*
X351Y1134D01*
X394Y1134D02*
X400Y1134D01*
X413Y1134D02*
X419Y1134D01*
X423Y1134D02*
X430Y1134D01*
X434Y1134D02*
X441Y1134D01*
X445Y1134D02*
X451Y1134D01*
X465Y1134D02*
X470Y1134D01*
X491Y1134D02*
X497Y1134D01*
X515Y1134D02*
X546Y1134D01*
X270Y1133D02*
X276Y1133D01*
X291Y1133D02*
X296Y1133D01*
X345Y1133D02*
X351Y1133D01*
X394Y1133D02*
X399Y1133D01*
X413Y1133D02*
X419Y1133D01*
X424Y1133D02*
X430Y1133D01*
X434Y1133D02*
X440Y1133D01*
X445Y1133D02*
X451Y1133D01*
X465Y1133D02*
X470Y1133D01*
X491Y1133D02*
X497Y1133D01*
X516Y1133D02*
X546Y1133D01*
X270Y1132D02*
X276Y1132D01*
X291Y1132D02*
X296Y1132D01*
X344Y1132D02*
X350Y1132D01*
X393Y1132D02*
X399Y1132D01*
X413Y1132D02*
X419Y1132D01*
X424Y1132D02*
X431Y1132D01*
X433Y1132D02*
X440Y1132D01*
X445Y1132D02*
X451Y1132D01*
X465Y1132D02*
X470Y1132D01*
X491Y1132D02*
X497Y1132D01*
X538Y1132D02*
X546Y1132D01*
X270Y1131D02*
X276Y1131D01*
X291Y1131D02*
X296Y1131D01*
X343Y1131D02*
X350Y1131D01*
X392Y1131D02*
X399Y1131D01*
X413Y1131D02*
X419Y1131D01*
X425Y1131D02*
X439Y1131D01*
X445Y1131D02*
X451Y1131D01*
X465Y1131D02*
X470Y1131D01*
X491Y1131D02*
X497Y1131D01*
X537Y1131D02*
X546Y1131D01*
X270Y1130D02*
X276Y1130D01*
X291Y1130D02*
X296Y1130D01*
X327Y1130D02*
X350Y1130D01*
X375Y1130D02*
X399Y1130D01*
X413Y1130D02*
X419Y1130D01*
X425Y1130D02*
X439Y1130D01*
X445Y1130D02*
X451Y1130D01*
X465Y1130D02*
X497Y1130D01*
X536Y1130D02*
X545Y1130D01*
X270Y1129D02*
X276Y1129D01*
X291Y1129D02*
X296Y1129D01*
X325Y1129D02*
X349Y1129D01*
X374Y1129D02*
X398Y1129D01*
X413Y1129D02*
X419Y1129D01*
X426Y1129D02*
X438Y1129D01*
X445Y1129D02*
X451Y1129D01*
X465Y1129D02*
X497Y1129D01*
X535Y1129D02*
X544Y1129D01*
X270Y1128D02*
X276Y1128D01*
X291Y1128D02*
X296Y1128D01*
X325Y1128D02*
X349Y1128D01*
X374Y1128D02*
X398Y1128D01*
X413Y1128D02*
X419Y1128D01*
X426Y1128D02*
X438Y1128D01*
X445Y1128D02*
X451Y1128D01*
X465Y1128D02*
X497Y1128D01*
X534Y1128D02*
X543Y1128D01*
X270Y1127D02*
X276Y1127D01*
X291Y1127D02*
X296Y1127D01*
X325Y1127D02*
X348Y1127D01*
X374Y1127D02*
X397Y1127D01*
X413Y1127D02*
X419Y1127D01*
X427Y1127D02*
X437Y1127D01*
X445Y1127D02*
X451Y1127D01*
X465Y1127D02*
X497Y1127D01*
X533Y1127D02*
X542Y1127D01*
X270Y1126D02*
X276Y1126D01*
X291Y1126D02*
X296Y1126D01*
X325Y1126D02*
X349Y1126D01*
X374Y1126D02*
X398Y1126D01*
X413Y1126D02*
X419Y1126D01*
X427Y1126D02*
X437Y1126D01*
X445Y1126D02*
X451Y1126D01*
X465Y1126D02*
X497Y1126D01*
X532Y1126D02*
X541Y1126D01*
X270Y1125D02*
X276Y1125D01*
X290Y1125D02*
X296Y1125D01*
X325Y1125D02*
X349Y1125D01*
X374Y1125D02*
X398Y1125D01*
X413Y1125D02*
X419Y1125D01*
X428Y1125D02*
X436Y1125D01*
X445Y1125D02*
X451Y1125D01*
X465Y1125D02*
X497Y1125D01*
X531Y1125D02*
X540Y1125D01*
X270Y1124D02*
X299Y1124D01*
X327Y1124D02*
X350Y1124D01*
X375Y1124D02*
X399Y1124D01*
X413Y1124D02*
X419Y1124D01*
X428Y1124D02*
X436Y1124D01*
X445Y1124D02*
X451Y1124D01*
X465Y1124D02*
X497Y1124D01*
X530Y1124D02*
X539Y1124D01*
X270Y1123D02*
X300Y1123D01*
X343Y1123D02*
X350Y1123D01*
X392Y1123D02*
X399Y1123D01*
X413Y1123D02*
X419Y1123D01*
X428Y1123D02*
X435Y1123D01*
X445Y1123D02*
X451Y1123D01*
X465Y1123D02*
X470Y1123D01*
X491Y1123D02*
X497Y1123D01*
X529Y1123D02*
X538Y1123D01*
X270Y1122D02*
X300Y1122D01*
X344Y1122D02*
X350Y1122D01*
X393Y1122D02*
X399Y1122D01*
X413Y1122D02*
X419Y1122D01*
X429Y1122D02*
X435Y1122D01*
X445Y1122D02*
X451Y1122D01*
X465Y1122D02*
X470Y1122D01*
X491Y1122D02*
X497Y1122D01*
X528Y1122D02*
X536Y1122D01*
X270Y1121D02*
X300Y1121D01*
X345Y1121D02*
X351Y1121D01*
X394Y1121D02*
X399Y1121D01*
X413Y1121D02*
X419Y1121D01*
X430Y1121D02*
X434Y1121D01*
X445Y1121D02*
X451Y1121D01*
X465Y1121D02*
X470Y1121D01*
X491Y1121D02*
X497Y1121D01*
X527Y1121D02*
X535Y1121D01*
X270Y1120D02*
X300Y1120D01*
X345Y1120D02*
X351Y1120D01*
X394Y1120D02*
X400Y1120D01*
X413Y1120D02*
X419Y1120D01*
X430Y1120D02*
X434Y1120D01*
X445Y1120D02*
X451Y1120D01*
X465Y1120D02*
X470Y1120D01*
X491Y1120D02*
X497Y1120D01*
X526Y1120D02*
X534Y1120D01*
X270Y1119D02*
X300Y1119D01*
X345Y1119D02*
X351Y1119D01*
X394Y1119D02*
X400Y1119D01*
X413Y1119D02*
X419Y1119D01*
X432Y1119D02*
X432Y1119D01*
X445Y1119D02*
X451Y1119D01*
X465Y1119D02*
X470Y1119D01*
X491Y1119D02*
X497Y1119D01*
X525Y1119D02*
X533Y1119D01*
X271Y1118D02*
X298Y1118D01*
X345Y1118D02*
X351Y1118D01*
X394Y1118D02*
X400Y1118D01*
X413Y1118D02*
X419Y1118D01*
X445Y1118D02*
X451Y1118D01*
X465Y1118D02*
X470Y1118D01*
X491Y1118D02*
X497Y1118D01*
X523Y1118D02*
X532Y1118D01*
X291Y1117D02*
X296Y1117D01*
X345Y1117D02*
X351Y1117D01*
X394Y1117D02*
X400Y1117D01*
X413Y1117D02*
X419Y1117D01*
X445Y1117D02*
X451Y1117D01*
X465Y1117D02*
X470Y1117D01*
X491Y1117D02*
X497Y1117D01*
X522Y1117D02*
X531Y1117D01*
X291Y1116D02*
X296Y1116D01*
X345Y1116D02*
X351Y1116D01*
X394Y1116D02*
X400Y1116D01*
X413Y1116D02*
X419Y1116D01*
X445Y1116D02*
X451Y1116D01*
X465Y1116D02*
X470Y1116D01*
X491Y1116D02*
X497Y1116D01*
X521Y1116D02*
X530Y1116D01*
X291Y1115D02*
X296Y1115D01*
X345Y1115D02*
X351Y1115D01*
X394Y1115D02*
X400Y1115D01*
X413Y1115D02*
X419Y1115D01*
X445Y1115D02*
X451Y1115D01*
X465Y1115D02*
X470Y1115D01*
X491Y1115D02*
X497Y1115D01*
X520Y1115D02*
X529Y1115D01*
X291Y1114D02*
X296Y1114D01*
X345Y1114D02*
X351Y1114D01*
X394Y1114D02*
X400Y1114D01*
X413Y1114D02*
X419Y1114D01*
X445Y1114D02*
X451Y1114D01*
X465Y1114D02*
X470Y1114D01*
X491Y1114D02*
X497Y1114D01*
X519Y1114D02*
X528Y1114D01*
X291Y1113D02*
X296Y1113D01*
X345Y1113D02*
X351Y1113D01*
X394Y1113D02*
X400Y1113D01*
X413Y1113D02*
X419Y1113D01*
X445Y1113D02*
X451Y1113D01*
X465Y1113D02*
X470Y1113D01*
X491Y1113D02*
X497Y1113D01*
X518Y1113D02*
X527Y1113D01*
X291Y1112D02*
X296Y1112D01*
X345Y1112D02*
X351Y1112D01*
X394Y1112D02*
X400Y1112D01*
X413Y1112D02*
X419Y1112D01*
X445Y1112D02*
X451Y1112D01*
X465Y1112D02*
X470Y1112D01*
X491Y1112D02*
X497Y1112D01*
X517Y1112D02*
X526Y1112D01*
X291Y1111D02*
X296Y1111D01*
X345Y1111D02*
X351Y1111D01*
X394Y1111D02*
X400Y1111D01*
X413Y1111D02*
X419Y1111D01*
X445Y1111D02*
X451Y1111D01*
X465Y1111D02*
X470Y1111D01*
X491Y1111D02*
X497Y1111D01*
X516Y1111D02*
X525Y1111D01*
X291Y1110D02*
X296Y1110D01*
X345Y1110D02*
X351Y1110D01*
X394Y1110D02*
X400Y1110D01*
X413Y1110D02*
X419Y1110D01*
X445Y1110D02*
X451Y1110D01*
X465Y1110D02*
X470Y1110D01*
X491Y1110D02*
X497Y1110D01*
X515Y1110D02*
X524Y1110D01*
X291Y1109D02*
X296Y1109D01*
X345Y1109D02*
X351Y1109D01*
X394Y1109D02*
X400Y1109D01*
X413Y1109D02*
X419Y1109D01*
X445Y1109D02*
X451Y1109D01*
X465Y1109D02*
X470Y1109D01*
X491Y1109D02*
X497Y1109D01*
X514Y1109D02*
X523Y1109D01*
X291Y1108D02*
X296Y1108D01*
X345Y1108D02*
X351Y1108D01*
X394Y1108D02*
X400Y1108D01*
X413Y1108D02*
X419Y1108D01*
X445Y1108D02*
X451Y1108D01*
X465Y1108D02*
X470Y1108D01*
X491Y1108D02*
X497Y1108D01*
X514Y1108D02*
X522Y1108D01*
X291Y1107D02*
X296Y1107D01*
X320Y1107D02*
X351Y1107D01*
X369Y1107D02*
X399Y1107D01*
X413Y1107D02*
X419Y1107D01*
X445Y1107D02*
X451Y1107D01*
X465Y1107D02*
X470Y1107D01*
X491Y1107D02*
X497Y1107D01*
X513Y1107D02*
X544Y1107D01*
X291Y1106D02*
X296Y1106D01*
X319Y1106D02*
X350Y1106D01*
X368Y1106D02*
X399Y1106D01*
X413Y1106D02*
X419Y1106D01*
X445Y1106D02*
X451Y1106D01*
X465Y1106D02*
X470Y1106D01*
X491Y1106D02*
X497Y1106D01*
X513Y1106D02*
X545Y1106D01*
X291Y1105D02*
X296Y1105D01*
X318Y1105D02*
X350Y1105D01*
X367Y1105D02*
X399Y1105D01*
X413Y1105D02*
X419Y1105D01*
X445Y1105D02*
X451Y1105D01*
X465Y1105D02*
X470Y1105D01*
X491Y1105D02*
X497Y1105D01*
X513Y1105D02*
X546Y1105D01*
X291Y1104D02*
X296Y1104D01*
X318Y1104D02*
X350Y1104D01*
X367Y1104D02*
X398Y1104D01*
X413Y1104D02*
X419Y1104D01*
X445Y1104D02*
X451Y1104D01*
X465Y1104D02*
X470Y1104D01*
X491Y1104D02*
X497Y1104D01*
X514Y1104D02*
X546Y1104D01*
X291Y1103D02*
X296Y1103D01*
X318Y1103D02*
X349Y1103D01*
X367Y1103D02*
X398Y1103D01*
X413Y1103D02*
X418Y1103D01*
X446Y1103D02*
X451Y1103D01*
X465Y1103D02*
X470Y1103D01*
X492Y1103D02*
X497Y1103D01*
X514Y1103D02*
X546Y1103D01*
X291Y1102D02*
X296Y1102D01*
X319Y1102D02*
X348Y1102D01*
X368Y1102D02*
X397Y1102D01*
X414Y1102D02*
X418Y1102D01*
X446Y1102D02*
X450Y1102D01*
X465Y1102D02*
X470Y1102D01*
X492Y1102D02*
X496Y1102D01*
X514Y1102D02*
X545Y1102D01*
X293Y1101D02*
X294Y1101D01*
X320Y1101D02*
X346Y1101D01*
X369Y1101D02*
X395Y1101D01*
X415Y1101D02*
X417Y1101D01*
X447Y1101D02*
X449Y1101D01*
X467Y1101D02*
X468Y1101D01*
X493Y1101D02*
X495Y1101D01*
X515Y1101D02*
X544Y1101D01*
D02*
G04 End of Copper1*
M02*