G04 MADE WITH FRITZING*
G04 WWW.FRITZING.ORG*
G04 DOUBLE SIDED*
G04 HOLES PLATED*
G04 CONTOUR ON CENTER OF CONTOUR VECTOR*
%ASAXBY*%
%FSLAX23Y23*%
%MOIN*%
%OFA0B0*%
%SFA1.0B1.0*%
%ADD10C,0.148000X0.132*%
%ADD11C,0.066567X0.046567*%
%ADD12C,0.008000*%
%ADD13C,0.010000*%
%ADD14R,0.001000X0.001000*%
%LNSILK1*%
G90*
G70*
G54D10*
X283Y172D03*
G54D11*
X327Y987D03*
G54D12*
X368Y292D02*
X198Y292D01*
D02*
X198Y52D02*
X368Y52D01*
D02*
X403Y211D02*
X403Y132D01*
D02*
X163Y213D02*
X163Y132D01*
G54D13*
D02*
X784Y378D02*
X784Y228D01*
D02*
X784Y228D02*
X734Y228D01*
D02*
X734Y228D02*
X734Y378D01*
D02*
X734Y378D02*
X784Y378D01*
D02*
X592Y829D02*
X592Y529D01*
D02*
X592Y529D02*
X692Y529D01*
D02*
X692Y529D02*
X692Y829D01*
D02*
X692Y829D02*
X592Y829D01*
D02*
X500Y179D02*
X500Y79D01*
D02*
X500Y79D02*
X700Y79D01*
D02*
X700Y79D02*
X700Y179D01*
G54D12*
D02*
X477Y1037D02*
X477Y637D01*
D02*
X477Y1037D02*
X317Y1037D01*
D02*
X477Y637D02*
X277Y637D01*
D02*
X277Y1037D02*
X277Y637D01*
D02*
X277Y1037D02*
X317Y1037D01*
D02*
X317Y1037D02*
X337Y1037D01*
G54D13*
D02*
X195Y506D02*
X495Y506D01*
D02*
X495Y506D02*
X495Y606D01*
D02*
X495Y606D02*
X195Y606D01*
D02*
X195Y606D02*
X195Y506D01*
G54D12*
D02*
X328Y452D02*
X300Y410D01*
G54D14*
X1Y1203D02*
X824Y1203D01*
X1Y1202D02*
X824Y1202D01*
X1Y1201D02*
X824Y1201D01*
X1Y1200D02*
X824Y1200D01*
X1Y1199D02*
X824Y1199D01*
X1Y1198D02*
X824Y1198D01*
X1Y1197D02*
X824Y1197D01*
X1Y1196D02*
X824Y1196D01*
X1Y1195D02*
X8Y1195D01*
X817Y1195D02*
X824Y1195D01*
X1Y1194D02*
X8Y1194D01*
X817Y1194D02*
X824Y1194D01*
X1Y1193D02*
X8Y1193D01*
X817Y1193D02*
X824Y1193D01*
X1Y1192D02*
X8Y1192D01*
X817Y1192D02*
X824Y1192D01*
X1Y1191D02*
X8Y1191D01*
X817Y1191D02*
X824Y1191D01*
X1Y1190D02*
X8Y1190D01*
X817Y1190D02*
X824Y1190D01*
X1Y1189D02*
X8Y1189D01*
X817Y1189D02*
X824Y1189D01*
X1Y1188D02*
X8Y1188D01*
X817Y1188D02*
X824Y1188D01*
X1Y1187D02*
X8Y1187D01*
X817Y1187D02*
X824Y1187D01*
X1Y1186D02*
X8Y1186D01*
X817Y1186D02*
X824Y1186D01*
X1Y1185D02*
X8Y1185D01*
X817Y1185D02*
X824Y1185D01*
X1Y1184D02*
X8Y1184D01*
X817Y1184D02*
X824Y1184D01*
X1Y1183D02*
X8Y1183D01*
X817Y1183D02*
X824Y1183D01*
X1Y1182D02*
X8Y1182D01*
X817Y1182D02*
X824Y1182D01*
X1Y1181D02*
X8Y1181D01*
X817Y1181D02*
X824Y1181D01*
X1Y1180D02*
X8Y1180D01*
X817Y1180D02*
X824Y1180D01*
X1Y1179D02*
X8Y1179D01*
X817Y1179D02*
X824Y1179D01*
X1Y1178D02*
X8Y1178D01*
X817Y1178D02*
X824Y1178D01*
X1Y1177D02*
X8Y1177D01*
X817Y1177D02*
X824Y1177D01*
X1Y1176D02*
X8Y1176D01*
X817Y1176D02*
X824Y1176D01*
X1Y1175D02*
X8Y1175D01*
X817Y1175D02*
X824Y1175D01*
X1Y1174D02*
X8Y1174D01*
X817Y1174D02*
X824Y1174D01*
X1Y1173D02*
X8Y1173D01*
X817Y1173D02*
X824Y1173D01*
X1Y1172D02*
X8Y1172D01*
X817Y1172D02*
X824Y1172D01*
X1Y1171D02*
X8Y1171D01*
X817Y1171D02*
X824Y1171D01*
X1Y1170D02*
X8Y1170D01*
X817Y1170D02*
X824Y1170D01*
X1Y1169D02*
X8Y1169D01*
X817Y1169D02*
X824Y1169D01*
X1Y1168D02*
X8Y1168D01*
X817Y1168D02*
X824Y1168D01*
X1Y1167D02*
X8Y1167D01*
X817Y1167D02*
X824Y1167D01*
X1Y1166D02*
X8Y1166D01*
X817Y1166D02*
X824Y1166D01*
X1Y1165D02*
X8Y1165D01*
X817Y1165D02*
X824Y1165D01*
X1Y1164D02*
X8Y1164D01*
X817Y1164D02*
X824Y1164D01*
X1Y1163D02*
X8Y1163D01*
X817Y1163D02*
X824Y1163D01*
X1Y1162D02*
X8Y1162D01*
X817Y1162D02*
X824Y1162D01*
X1Y1161D02*
X8Y1161D01*
X817Y1161D02*
X824Y1161D01*
X1Y1160D02*
X8Y1160D01*
X817Y1160D02*
X824Y1160D01*
X1Y1159D02*
X8Y1159D01*
X817Y1159D02*
X824Y1159D01*
X1Y1158D02*
X8Y1158D01*
X817Y1158D02*
X824Y1158D01*
X1Y1157D02*
X8Y1157D01*
X817Y1157D02*
X824Y1157D01*
X1Y1156D02*
X8Y1156D01*
X817Y1156D02*
X824Y1156D01*
X1Y1155D02*
X8Y1155D01*
X817Y1155D02*
X824Y1155D01*
X1Y1154D02*
X8Y1154D01*
X817Y1154D02*
X824Y1154D01*
X1Y1153D02*
X8Y1153D01*
X817Y1153D02*
X824Y1153D01*
X1Y1152D02*
X8Y1152D01*
X817Y1152D02*
X824Y1152D01*
X1Y1151D02*
X8Y1151D01*
X817Y1151D02*
X824Y1151D01*
X1Y1150D02*
X8Y1150D01*
X817Y1150D02*
X824Y1150D01*
X1Y1149D02*
X8Y1149D01*
X817Y1149D02*
X824Y1149D01*
X1Y1148D02*
X8Y1148D01*
X817Y1148D02*
X824Y1148D01*
X1Y1147D02*
X8Y1147D01*
X817Y1147D02*
X824Y1147D01*
X1Y1146D02*
X8Y1146D01*
X817Y1146D02*
X824Y1146D01*
X1Y1145D02*
X8Y1145D01*
X817Y1145D02*
X824Y1145D01*
X1Y1144D02*
X8Y1144D01*
X817Y1144D02*
X824Y1144D01*
X1Y1143D02*
X8Y1143D01*
X817Y1143D02*
X824Y1143D01*
X1Y1142D02*
X8Y1142D01*
X817Y1142D02*
X824Y1142D01*
X1Y1141D02*
X8Y1141D01*
X817Y1141D02*
X824Y1141D01*
X1Y1140D02*
X8Y1140D01*
X817Y1140D02*
X824Y1140D01*
X1Y1139D02*
X8Y1139D01*
X817Y1139D02*
X824Y1139D01*
X1Y1138D02*
X8Y1138D01*
X817Y1138D02*
X824Y1138D01*
X1Y1137D02*
X8Y1137D01*
X817Y1137D02*
X824Y1137D01*
X1Y1136D02*
X8Y1136D01*
X817Y1136D02*
X824Y1136D01*
X1Y1135D02*
X8Y1135D01*
X817Y1135D02*
X824Y1135D01*
X1Y1134D02*
X8Y1134D01*
X817Y1134D02*
X824Y1134D01*
X1Y1133D02*
X8Y1133D01*
X817Y1133D02*
X824Y1133D01*
X1Y1132D02*
X8Y1132D01*
X817Y1132D02*
X824Y1132D01*
X1Y1131D02*
X8Y1131D01*
X817Y1131D02*
X824Y1131D01*
X1Y1130D02*
X8Y1130D01*
X817Y1130D02*
X824Y1130D01*
X1Y1129D02*
X8Y1129D01*
X817Y1129D02*
X824Y1129D01*
X1Y1128D02*
X8Y1128D01*
X817Y1128D02*
X824Y1128D01*
X1Y1127D02*
X8Y1127D01*
X817Y1127D02*
X824Y1127D01*
X1Y1126D02*
X8Y1126D01*
X817Y1126D02*
X824Y1126D01*
X1Y1125D02*
X8Y1125D01*
X817Y1125D02*
X824Y1125D01*
X1Y1124D02*
X8Y1124D01*
X817Y1124D02*
X824Y1124D01*
X1Y1123D02*
X8Y1123D01*
X817Y1123D02*
X824Y1123D01*
X1Y1122D02*
X8Y1122D01*
X817Y1122D02*
X824Y1122D01*
X1Y1121D02*
X8Y1121D01*
X817Y1121D02*
X824Y1121D01*
X1Y1120D02*
X8Y1120D01*
X817Y1120D02*
X824Y1120D01*
X1Y1119D02*
X8Y1119D01*
X817Y1119D02*
X824Y1119D01*
X1Y1118D02*
X8Y1118D01*
X817Y1118D02*
X824Y1118D01*
X1Y1117D02*
X8Y1117D01*
X817Y1117D02*
X824Y1117D01*
X1Y1116D02*
X8Y1116D01*
X817Y1116D02*
X824Y1116D01*
X1Y1115D02*
X8Y1115D01*
X817Y1115D02*
X824Y1115D01*
X1Y1114D02*
X8Y1114D01*
X817Y1114D02*
X824Y1114D01*
X1Y1113D02*
X8Y1113D01*
X817Y1113D02*
X824Y1113D01*
X1Y1112D02*
X8Y1112D01*
X817Y1112D02*
X824Y1112D01*
X1Y1111D02*
X8Y1111D01*
X817Y1111D02*
X824Y1111D01*
X1Y1110D02*
X8Y1110D01*
X817Y1110D02*
X824Y1110D01*
X1Y1109D02*
X8Y1109D01*
X817Y1109D02*
X824Y1109D01*
X1Y1108D02*
X8Y1108D01*
X817Y1108D02*
X824Y1108D01*
X1Y1107D02*
X8Y1107D01*
X817Y1107D02*
X824Y1107D01*
X1Y1106D02*
X8Y1106D01*
X817Y1106D02*
X824Y1106D01*
X1Y1105D02*
X8Y1105D01*
X817Y1105D02*
X824Y1105D01*
X1Y1104D02*
X8Y1104D01*
X817Y1104D02*
X824Y1104D01*
X1Y1103D02*
X8Y1103D01*
X817Y1103D02*
X824Y1103D01*
X1Y1102D02*
X8Y1102D01*
X817Y1102D02*
X824Y1102D01*
X1Y1101D02*
X8Y1101D01*
X817Y1101D02*
X824Y1101D01*
X1Y1100D02*
X8Y1100D01*
X817Y1100D02*
X824Y1100D01*
X1Y1099D02*
X8Y1099D01*
X817Y1099D02*
X824Y1099D01*
X1Y1098D02*
X8Y1098D01*
X817Y1098D02*
X824Y1098D01*
X1Y1097D02*
X8Y1097D01*
X817Y1097D02*
X824Y1097D01*
X1Y1096D02*
X8Y1096D01*
X817Y1096D02*
X824Y1096D01*
X1Y1095D02*
X8Y1095D01*
X817Y1095D02*
X824Y1095D01*
X1Y1094D02*
X8Y1094D01*
X817Y1094D02*
X824Y1094D01*
X1Y1093D02*
X8Y1093D01*
X817Y1093D02*
X824Y1093D01*
X1Y1092D02*
X8Y1092D01*
X817Y1092D02*
X824Y1092D01*
X1Y1091D02*
X8Y1091D01*
X817Y1091D02*
X824Y1091D01*
X1Y1090D02*
X8Y1090D01*
X817Y1090D02*
X824Y1090D01*
X1Y1089D02*
X8Y1089D01*
X817Y1089D02*
X824Y1089D01*
X1Y1088D02*
X8Y1088D01*
X817Y1088D02*
X824Y1088D01*
X1Y1087D02*
X8Y1087D01*
X817Y1087D02*
X824Y1087D01*
X1Y1086D02*
X8Y1086D01*
X817Y1086D02*
X824Y1086D01*
X1Y1085D02*
X8Y1085D01*
X817Y1085D02*
X824Y1085D01*
X1Y1084D02*
X8Y1084D01*
X817Y1084D02*
X824Y1084D01*
X1Y1083D02*
X8Y1083D01*
X817Y1083D02*
X824Y1083D01*
X1Y1082D02*
X8Y1082D01*
X817Y1082D02*
X824Y1082D01*
X1Y1081D02*
X8Y1081D01*
X817Y1081D02*
X824Y1081D01*
X1Y1080D02*
X8Y1080D01*
X817Y1080D02*
X824Y1080D01*
X1Y1079D02*
X8Y1079D01*
X817Y1079D02*
X824Y1079D01*
X1Y1078D02*
X8Y1078D01*
X817Y1078D02*
X824Y1078D01*
X1Y1077D02*
X8Y1077D01*
X817Y1077D02*
X824Y1077D01*
X1Y1076D02*
X8Y1076D01*
X817Y1076D02*
X824Y1076D01*
X1Y1075D02*
X8Y1075D01*
X817Y1075D02*
X824Y1075D01*
X1Y1074D02*
X8Y1074D01*
X817Y1074D02*
X824Y1074D01*
X1Y1073D02*
X8Y1073D01*
X817Y1073D02*
X824Y1073D01*
X1Y1072D02*
X8Y1072D01*
X817Y1072D02*
X824Y1072D01*
X1Y1071D02*
X8Y1071D01*
X817Y1071D02*
X824Y1071D01*
X1Y1070D02*
X8Y1070D01*
X817Y1070D02*
X824Y1070D01*
X1Y1069D02*
X8Y1069D01*
X817Y1069D02*
X824Y1069D01*
X1Y1068D02*
X8Y1068D01*
X817Y1068D02*
X824Y1068D01*
X1Y1067D02*
X8Y1067D01*
X817Y1067D02*
X824Y1067D01*
X1Y1066D02*
X8Y1066D01*
X817Y1066D02*
X824Y1066D01*
X1Y1065D02*
X8Y1065D01*
X817Y1065D02*
X824Y1065D01*
X1Y1064D02*
X8Y1064D01*
X817Y1064D02*
X824Y1064D01*
X1Y1063D02*
X8Y1063D01*
X817Y1063D02*
X824Y1063D01*
X1Y1062D02*
X8Y1062D01*
X817Y1062D02*
X824Y1062D01*
X1Y1061D02*
X8Y1061D01*
X817Y1061D02*
X824Y1061D01*
X1Y1060D02*
X8Y1060D01*
X817Y1060D02*
X824Y1060D01*
X1Y1059D02*
X8Y1059D01*
X817Y1059D02*
X824Y1059D01*
X1Y1058D02*
X8Y1058D01*
X817Y1058D02*
X824Y1058D01*
X1Y1057D02*
X8Y1057D01*
X817Y1057D02*
X824Y1057D01*
X1Y1056D02*
X8Y1056D01*
X817Y1056D02*
X824Y1056D01*
X1Y1055D02*
X8Y1055D01*
X817Y1055D02*
X824Y1055D01*
X1Y1054D02*
X8Y1054D01*
X817Y1054D02*
X824Y1054D01*
X1Y1053D02*
X8Y1053D01*
X817Y1053D02*
X824Y1053D01*
X1Y1052D02*
X8Y1052D01*
X817Y1052D02*
X824Y1052D01*
X1Y1051D02*
X8Y1051D01*
X817Y1051D02*
X824Y1051D01*
X1Y1050D02*
X8Y1050D01*
X817Y1050D02*
X824Y1050D01*
X1Y1049D02*
X8Y1049D01*
X817Y1049D02*
X824Y1049D01*
X1Y1048D02*
X8Y1048D01*
X817Y1048D02*
X824Y1048D01*
X1Y1047D02*
X8Y1047D01*
X817Y1047D02*
X824Y1047D01*
X1Y1046D02*
X8Y1046D01*
X817Y1046D02*
X824Y1046D01*
X1Y1045D02*
X8Y1045D01*
X817Y1045D02*
X824Y1045D01*
X1Y1044D02*
X8Y1044D01*
X817Y1044D02*
X824Y1044D01*
X1Y1043D02*
X8Y1043D01*
X817Y1043D02*
X824Y1043D01*
X1Y1042D02*
X8Y1042D01*
X817Y1042D02*
X824Y1042D01*
X1Y1041D02*
X8Y1041D01*
X817Y1041D02*
X824Y1041D01*
X1Y1040D02*
X8Y1040D01*
X817Y1040D02*
X824Y1040D01*
X1Y1039D02*
X8Y1039D01*
X817Y1039D02*
X824Y1039D01*
X1Y1038D02*
X8Y1038D01*
X817Y1038D02*
X824Y1038D01*
X1Y1037D02*
X8Y1037D01*
X817Y1037D02*
X824Y1037D01*
X1Y1036D02*
X8Y1036D01*
X817Y1036D02*
X824Y1036D01*
X1Y1035D02*
X8Y1035D01*
X817Y1035D02*
X824Y1035D01*
X1Y1034D02*
X8Y1034D01*
X817Y1034D02*
X824Y1034D01*
X1Y1033D02*
X8Y1033D01*
X817Y1033D02*
X824Y1033D01*
X1Y1032D02*
X8Y1032D01*
X817Y1032D02*
X824Y1032D01*
X1Y1031D02*
X8Y1031D01*
X817Y1031D02*
X824Y1031D01*
X1Y1030D02*
X8Y1030D01*
X817Y1030D02*
X824Y1030D01*
X1Y1029D02*
X8Y1029D01*
X817Y1029D02*
X824Y1029D01*
X1Y1028D02*
X8Y1028D01*
X817Y1028D02*
X824Y1028D01*
X1Y1027D02*
X8Y1027D01*
X817Y1027D02*
X824Y1027D01*
X1Y1026D02*
X8Y1026D01*
X817Y1026D02*
X824Y1026D01*
X1Y1025D02*
X8Y1025D01*
X817Y1025D02*
X824Y1025D01*
X1Y1024D02*
X8Y1024D01*
X817Y1024D02*
X824Y1024D01*
X1Y1023D02*
X8Y1023D01*
X817Y1023D02*
X824Y1023D01*
X1Y1022D02*
X8Y1022D01*
X817Y1022D02*
X824Y1022D01*
X1Y1021D02*
X8Y1021D01*
X817Y1021D02*
X824Y1021D01*
X1Y1020D02*
X8Y1020D01*
X817Y1020D02*
X824Y1020D01*
X1Y1019D02*
X8Y1019D01*
X817Y1019D02*
X824Y1019D01*
X1Y1018D02*
X8Y1018D01*
X817Y1018D02*
X824Y1018D01*
X1Y1017D02*
X8Y1017D01*
X817Y1017D02*
X824Y1017D01*
X1Y1016D02*
X8Y1016D01*
X817Y1016D02*
X824Y1016D01*
X1Y1015D02*
X8Y1015D01*
X817Y1015D02*
X824Y1015D01*
X1Y1014D02*
X8Y1014D01*
X817Y1014D02*
X824Y1014D01*
X1Y1013D02*
X8Y1013D01*
X817Y1013D02*
X824Y1013D01*
X1Y1012D02*
X8Y1012D01*
X817Y1012D02*
X824Y1012D01*
X1Y1011D02*
X8Y1011D01*
X817Y1011D02*
X824Y1011D01*
X1Y1010D02*
X8Y1010D01*
X817Y1010D02*
X824Y1010D01*
X1Y1009D02*
X8Y1009D01*
X817Y1009D02*
X824Y1009D01*
X1Y1008D02*
X8Y1008D01*
X817Y1008D02*
X824Y1008D01*
X1Y1007D02*
X8Y1007D01*
X817Y1007D02*
X824Y1007D01*
X1Y1006D02*
X8Y1006D01*
X817Y1006D02*
X824Y1006D01*
X1Y1005D02*
X8Y1005D01*
X817Y1005D02*
X824Y1005D01*
X1Y1004D02*
X8Y1004D01*
X817Y1004D02*
X824Y1004D01*
X1Y1003D02*
X8Y1003D01*
X817Y1003D02*
X824Y1003D01*
X1Y1002D02*
X8Y1002D01*
X817Y1002D02*
X824Y1002D01*
X1Y1001D02*
X8Y1001D01*
X817Y1001D02*
X824Y1001D01*
X1Y1000D02*
X8Y1000D01*
X817Y1000D02*
X824Y1000D01*
X1Y999D02*
X8Y999D01*
X817Y999D02*
X824Y999D01*
X1Y998D02*
X8Y998D01*
X817Y998D02*
X824Y998D01*
X1Y997D02*
X8Y997D01*
X817Y997D02*
X824Y997D01*
X1Y996D02*
X8Y996D01*
X817Y996D02*
X824Y996D01*
X1Y995D02*
X8Y995D01*
X817Y995D02*
X824Y995D01*
X1Y994D02*
X8Y994D01*
X817Y994D02*
X824Y994D01*
X1Y993D02*
X8Y993D01*
X817Y993D02*
X824Y993D01*
X1Y992D02*
X8Y992D01*
X817Y992D02*
X824Y992D01*
X1Y991D02*
X8Y991D01*
X817Y991D02*
X824Y991D01*
X1Y990D02*
X8Y990D01*
X817Y990D02*
X824Y990D01*
X1Y989D02*
X8Y989D01*
X817Y989D02*
X824Y989D01*
X1Y988D02*
X8Y988D01*
X817Y988D02*
X824Y988D01*
X1Y987D02*
X8Y987D01*
X817Y987D02*
X824Y987D01*
X1Y986D02*
X8Y986D01*
X817Y986D02*
X824Y986D01*
X1Y985D02*
X8Y985D01*
X817Y985D02*
X824Y985D01*
X1Y984D02*
X8Y984D01*
X817Y984D02*
X824Y984D01*
X1Y983D02*
X8Y983D01*
X817Y983D02*
X824Y983D01*
X1Y982D02*
X8Y982D01*
X817Y982D02*
X824Y982D01*
X1Y981D02*
X8Y981D01*
X817Y981D02*
X824Y981D01*
X1Y980D02*
X8Y980D01*
X817Y980D02*
X824Y980D01*
X1Y979D02*
X8Y979D01*
X817Y979D02*
X824Y979D01*
X1Y978D02*
X8Y978D01*
X817Y978D02*
X824Y978D01*
X1Y977D02*
X8Y977D01*
X817Y977D02*
X824Y977D01*
X1Y976D02*
X8Y976D01*
X817Y976D02*
X824Y976D01*
X1Y975D02*
X8Y975D01*
X817Y975D02*
X824Y975D01*
X1Y974D02*
X8Y974D01*
X817Y974D02*
X824Y974D01*
X1Y973D02*
X8Y973D01*
X817Y973D02*
X824Y973D01*
X1Y972D02*
X8Y972D01*
X817Y972D02*
X824Y972D01*
X1Y971D02*
X8Y971D01*
X817Y971D02*
X824Y971D01*
X1Y970D02*
X8Y970D01*
X817Y970D02*
X824Y970D01*
X1Y969D02*
X8Y969D01*
X817Y969D02*
X824Y969D01*
X1Y968D02*
X8Y968D01*
X817Y968D02*
X824Y968D01*
X1Y967D02*
X8Y967D01*
X817Y967D02*
X824Y967D01*
X1Y966D02*
X8Y966D01*
X817Y966D02*
X824Y966D01*
X1Y965D02*
X8Y965D01*
X817Y965D02*
X824Y965D01*
X1Y964D02*
X8Y964D01*
X817Y964D02*
X824Y964D01*
X1Y963D02*
X8Y963D01*
X817Y963D02*
X824Y963D01*
X1Y962D02*
X8Y962D01*
X817Y962D02*
X824Y962D01*
X1Y961D02*
X8Y961D01*
X817Y961D02*
X824Y961D01*
X1Y960D02*
X8Y960D01*
X817Y960D02*
X824Y960D01*
X1Y959D02*
X8Y959D01*
X817Y959D02*
X824Y959D01*
X1Y958D02*
X8Y958D01*
X817Y958D02*
X824Y958D01*
X1Y957D02*
X8Y957D01*
X817Y957D02*
X824Y957D01*
X1Y956D02*
X8Y956D01*
X817Y956D02*
X824Y956D01*
X1Y955D02*
X8Y955D01*
X817Y955D02*
X824Y955D01*
X1Y954D02*
X8Y954D01*
X817Y954D02*
X824Y954D01*
X1Y953D02*
X8Y953D01*
X817Y953D02*
X824Y953D01*
X1Y952D02*
X8Y952D01*
X817Y952D02*
X824Y952D01*
X1Y951D02*
X8Y951D01*
X817Y951D02*
X824Y951D01*
X1Y950D02*
X8Y950D01*
X817Y950D02*
X824Y950D01*
X1Y949D02*
X8Y949D01*
X817Y949D02*
X824Y949D01*
X1Y948D02*
X8Y948D01*
X817Y948D02*
X824Y948D01*
X1Y947D02*
X8Y947D01*
X817Y947D02*
X824Y947D01*
X1Y946D02*
X8Y946D01*
X817Y946D02*
X824Y946D01*
X1Y945D02*
X8Y945D01*
X817Y945D02*
X824Y945D01*
X1Y944D02*
X8Y944D01*
X817Y944D02*
X824Y944D01*
X1Y943D02*
X8Y943D01*
X817Y943D02*
X824Y943D01*
X1Y942D02*
X8Y942D01*
X817Y942D02*
X824Y942D01*
X1Y941D02*
X8Y941D01*
X817Y941D02*
X824Y941D01*
X1Y940D02*
X8Y940D01*
X817Y940D02*
X824Y940D01*
X1Y939D02*
X8Y939D01*
X817Y939D02*
X824Y939D01*
X1Y938D02*
X8Y938D01*
X817Y938D02*
X824Y938D01*
X1Y937D02*
X8Y937D01*
X817Y937D02*
X824Y937D01*
X1Y936D02*
X8Y936D01*
X817Y936D02*
X824Y936D01*
X1Y935D02*
X8Y935D01*
X817Y935D02*
X824Y935D01*
X1Y934D02*
X8Y934D01*
X817Y934D02*
X824Y934D01*
X1Y933D02*
X8Y933D01*
X817Y933D02*
X824Y933D01*
X1Y932D02*
X8Y932D01*
X817Y932D02*
X824Y932D01*
X1Y931D02*
X8Y931D01*
X817Y931D02*
X824Y931D01*
X1Y930D02*
X8Y930D01*
X817Y930D02*
X824Y930D01*
X1Y929D02*
X8Y929D01*
X817Y929D02*
X824Y929D01*
X1Y928D02*
X8Y928D01*
X817Y928D02*
X824Y928D01*
X1Y927D02*
X8Y927D01*
X817Y927D02*
X824Y927D01*
X1Y926D02*
X8Y926D01*
X817Y926D02*
X824Y926D01*
X1Y925D02*
X8Y925D01*
X817Y925D02*
X824Y925D01*
X1Y924D02*
X8Y924D01*
X817Y924D02*
X824Y924D01*
X1Y923D02*
X8Y923D01*
X817Y923D02*
X824Y923D01*
X1Y922D02*
X8Y922D01*
X817Y922D02*
X824Y922D01*
X1Y921D02*
X8Y921D01*
X817Y921D02*
X824Y921D01*
X1Y920D02*
X8Y920D01*
X817Y920D02*
X824Y920D01*
X1Y919D02*
X8Y919D01*
X817Y919D02*
X824Y919D01*
X1Y918D02*
X8Y918D01*
X817Y918D02*
X824Y918D01*
X1Y917D02*
X8Y917D01*
X817Y917D02*
X824Y917D01*
X1Y916D02*
X8Y916D01*
X817Y916D02*
X824Y916D01*
X1Y915D02*
X8Y915D01*
X817Y915D02*
X824Y915D01*
X1Y914D02*
X8Y914D01*
X817Y914D02*
X824Y914D01*
X1Y913D02*
X8Y913D01*
X817Y913D02*
X824Y913D01*
X1Y912D02*
X8Y912D01*
X817Y912D02*
X824Y912D01*
X1Y911D02*
X8Y911D01*
X817Y911D02*
X824Y911D01*
X1Y910D02*
X8Y910D01*
X817Y910D02*
X824Y910D01*
X1Y909D02*
X8Y909D01*
X817Y909D02*
X824Y909D01*
X1Y908D02*
X8Y908D01*
X817Y908D02*
X824Y908D01*
X1Y907D02*
X8Y907D01*
X817Y907D02*
X824Y907D01*
X1Y906D02*
X8Y906D01*
X817Y906D02*
X824Y906D01*
X1Y905D02*
X8Y905D01*
X817Y905D02*
X824Y905D01*
X1Y904D02*
X8Y904D01*
X817Y904D02*
X824Y904D01*
X1Y903D02*
X8Y903D01*
X817Y903D02*
X824Y903D01*
X1Y902D02*
X8Y902D01*
X817Y902D02*
X824Y902D01*
X1Y901D02*
X8Y901D01*
X817Y901D02*
X824Y901D01*
X1Y900D02*
X8Y900D01*
X817Y900D02*
X824Y900D01*
X1Y899D02*
X8Y899D01*
X817Y899D02*
X824Y899D01*
X1Y898D02*
X8Y898D01*
X817Y898D02*
X824Y898D01*
X1Y897D02*
X8Y897D01*
X817Y897D02*
X824Y897D01*
X1Y896D02*
X8Y896D01*
X817Y896D02*
X824Y896D01*
X1Y895D02*
X8Y895D01*
X817Y895D02*
X824Y895D01*
X1Y894D02*
X8Y894D01*
X817Y894D02*
X824Y894D01*
X1Y893D02*
X8Y893D01*
X817Y893D02*
X824Y893D01*
X1Y892D02*
X8Y892D01*
X817Y892D02*
X824Y892D01*
X1Y891D02*
X8Y891D01*
X817Y891D02*
X824Y891D01*
X1Y890D02*
X8Y890D01*
X817Y890D02*
X824Y890D01*
X1Y889D02*
X8Y889D01*
X817Y889D02*
X824Y889D01*
X1Y888D02*
X8Y888D01*
X817Y888D02*
X824Y888D01*
X1Y887D02*
X8Y887D01*
X817Y887D02*
X824Y887D01*
X1Y886D02*
X8Y886D01*
X817Y886D02*
X824Y886D01*
X1Y885D02*
X8Y885D01*
X817Y885D02*
X824Y885D01*
X1Y884D02*
X8Y884D01*
X817Y884D02*
X824Y884D01*
X1Y883D02*
X8Y883D01*
X817Y883D02*
X824Y883D01*
X1Y882D02*
X8Y882D01*
X817Y882D02*
X824Y882D01*
X1Y881D02*
X8Y881D01*
X817Y881D02*
X824Y881D01*
X1Y880D02*
X8Y880D01*
X817Y880D02*
X824Y880D01*
X1Y879D02*
X8Y879D01*
X817Y879D02*
X824Y879D01*
X1Y878D02*
X8Y878D01*
X817Y878D02*
X824Y878D01*
X1Y877D02*
X8Y877D01*
X817Y877D02*
X824Y877D01*
X1Y876D02*
X8Y876D01*
X817Y876D02*
X824Y876D01*
X1Y875D02*
X8Y875D01*
X817Y875D02*
X824Y875D01*
X1Y874D02*
X8Y874D01*
X817Y874D02*
X824Y874D01*
X1Y873D02*
X8Y873D01*
X817Y873D02*
X824Y873D01*
X1Y872D02*
X8Y872D01*
X817Y872D02*
X824Y872D01*
X1Y871D02*
X8Y871D01*
X817Y871D02*
X824Y871D01*
X1Y870D02*
X8Y870D01*
X817Y870D02*
X824Y870D01*
X1Y869D02*
X8Y869D01*
X817Y869D02*
X824Y869D01*
X1Y868D02*
X8Y868D01*
X817Y868D02*
X824Y868D01*
X1Y867D02*
X8Y867D01*
X817Y867D02*
X824Y867D01*
X1Y866D02*
X8Y866D01*
X817Y866D02*
X824Y866D01*
X1Y865D02*
X8Y865D01*
X817Y865D02*
X824Y865D01*
X1Y864D02*
X8Y864D01*
X817Y864D02*
X824Y864D01*
X1Y863D02*
X8Y863D01*
X817Y863D02*
X824Y863D01*
X1Y862D02*
X8Y862D01*
X817Y862D02*
X824Y862D01*
X1Y861D02*
X8Y861D01*
X817Y861D02*
X824Y861D01*
X1Y860D02*
X8Y860D01*
X817Y860D02*
X824Y860D01*
X1Y859D02*
X8Y859D01*
X817Y859D02*
X824Y859D01*
X1Y858D02*
X8Y858D01*
X817Y858D02*
X824Y858D01*
X1Y857D02*
X8Y857D01*
X817Y857D02*
X824Y857D01*
X1Y856D02*
X8Y856D01*
X817Y856D02*
X824Y856D01*
X1Y855D02*
X8Y855D01*
X817Y855D02*
X824Y855D01*
X1Y854D02*
X8Y854D01*
X817Y854D02*
X824Y854D01*
X1Y853D02*
X8Y853D01*
X817Y853D02*
X824Y853D01*
X1Y852D02*
X8Y852D01*
X817Y852D02*
X824Y852D01*
X1Y851D02*
X8Y851D01*
X817Y851D02*
X824Y851D01*
X1Y850D02*
X8Y850D01*
X817Y850D02*
X824Y850D01*
X1Y849D02*
X8Y849D01*
X817Y849D02*
X824Y849D01*
X1Y848D02*
X8Y848D01*
X817Y848D02*
X824Y848D01*
X1Y847D02*
X8Y847D01*
X817Y847D02*
X824Y847D01*
X1Y846D02*
X8Y846D01*
X817Y846D02*
X824Y846D01*
X1Y845D02*
X8Y845D01*
X817Y845D02*
X824Y845D01*
X1Y844D02*
X8Y844D01*
X817Y844D02*
X824Y844D01*
X1Y843D02*
X8Y843D01*
X817Y843D02*
X824Y843D01*
X1Y842D02*
X8Y842D01*
X817Y842D02*
X824Y842D01*
X1Y841D02*
X8Y841D01*
X817Y841D02*
X824Y841D01*
X1Y840D02*
X8Y840D01*
X817Y840D02*
X824Y840D01*
X1Y839D02*
X8Y839D01*
X817Y839D02*
X824Y839D01*
X1Y838D02*
X8Y838D01*
X817Y838D02*
X824Y838D01*
X1Y837D02*
X8Y837D01*
X817Y837D02*
X824Y837D01*
X1Y836D02*
X8Y836D01*
X817Y836D02*
X824Y836D01*
X1Y835D02*
X8Y835D01*
X817Y835D02*
X824Y835D01*
X1Y834D02*
X8Y834D01*
X817Y834D02*
X824Y834D01*
X1Y833D02*
X8Y833D01*
X817Y833D02*
X824Y833D01*
X1Y832D02*
X8Y832D01*
X817Y832D02*
X824Y832D01*
X1Y831D02*
X8Y831D01*
X817Y831D02*
X824Y831D01*
X1Y830D02*
X8Y830D01*
X625Y830D02*
X625Y830D01*
X817Y830D02*
X824Y830D01*
X1Y829D02*
X8Y829D01*
X624Y829D02*
X626Y829D01*
X817Y829D02*
X824Y829D01*
X1Y828D02*
X8Y828D01*
X623Y828D02*
X627Y828D01*
X817Y828D02*
X824Y828D01*
X1Y827D02*
X8Y827D01*
X622Y827D02*
X628Y827D01*
X817Y827D02*
X824Y827D01*
X1Y826D02*
X8Y826D01*
X621Y826D02*
X627Y826D01*
X817Y826D02*
X824Y826D01*
X1Y825D02*
X8Y825D01*
X620Y825D02*
X626Y825D01*
X817Y825D02*
X824Y825D01*
X1Y824D02*
X8Y824D01*
X619Y824D02*
X625Y824D01*
X817Y824D02*
X824Y824D01*
X1Y823D02*
X8Y823D01*
X618Y823D02*
X624Y823D01*
X817Y823D02*
X824Y823D01*
X1Y822D02*
X8Y822D01*
X817Y822D02*
X824Y822D01*
X1Y821D02*
X8Y821D01*
X817Y821D02*
X824Y821D01*
X1Y820D02*
X8Y820D01*
X817Y820D02*
X824Y820D01*
X1Y819D02*
X8Y819D01*
X817Y819D02*
X824Y819D01*
X1Y818D02*
X8Y818D01*
X817Y818D02*
X824Y818D01*
X1Y817D02*
X8Y817D01*
X817Y817D02*
X824Y817D01*
X1Y816D02*
X8Y816D01*
X817Y816D02*
X824Y816D01*
X1Y815D02*
X8Y815D01*
X817Y815D02*
X824Y815D01*
X1Y814D02*
X8Y814D01*
X817Y814D02*
X824Y814D01*
X1Y813D02*
X8Y813D01*
X817Y813D02*
X824Y813D01*
X1Y812D02*
X8Y812D01*
X817Y812D02*
X824Y812D01*
X1Y811D02*
X8Y811D01*
X817Y811D02*
X824Y811D01*
X1Y810D02*
X8Y810D01*
X817Y810D02*
X824Y810D01*
X1Y809D02*
X8Y809D01*
X817Y809D02*
X824Y809D01*
X1Y808D02*
X8Y808D01*
X817Y808D02*
X824Y808D01*
X1Y807D02*
X8Y807D01*
X817Y807D02*
X824Y807D01*
X1Y806D02*
X8Y806D01*
X817Y806D02*
X824Y806D01*
X1Y805D02*
X8Y805D01*
X817Y805D02*
X824Y805D01*
X1Y804D02*
X8Y804D01*
X817Y804D02*
X824Y804D01*
X1Y803D02*
X8Y803D01*
X817Y803D02*
X824Y803D01*
X1Y802D02*
X8Y802D01*
X597Y802D02*
X597Y802D01*
X817Y802D02*
X824Y802D01*
X1Y801D02*
X8Y801D01*
X596Y801D02*
X597Y801D01*
X817Y801D02*
X824Y801D01*
X1Y800D02*
X8Y800D01*
X595Y800D02*
X597Y800D01*
X817Y800D02*
X824Y800D01*
X1Y799D02*
X8Y799D01*
X594Y799D02*
X597Y799D01*
X817Y799D02*
X824Y799D01*
X1Y798D02*
X8Y798D01*
X593Y798D02*
X597Y798D01*
X817Y798D02*
X824Y798D01*
X1Y797D02*
X8Y797D01*
X592Y797D02*
X597Y797D01*
X817Y797D02*
X824Y797D01*
X1Y796D02*
X8Y796D01*
X591Y796D02*
X597Y796D01*
X817Y796D02*
X824Y796D01*
X1Y795D02*
X8Y795D01*
X591Y795D02*
X596Y795D01*
X817Y795D02*
X824Y795D01*
X1Y794D02*
X8Y794D01*
X592Y794D02*
X595Y794D01*
X817Y794D02*
X824Y794D01*
X1Y793D02*
X8Y793D01*
X593Y793D02*
X594Y793D01*
X817Y793D02*
X824Y793D01*
X1Y792D02*
X8Y792D01*
X817Y792D02*
X824Y792D01*
X1Y791D02*
X8Y791D01*
X817Y791D02*
X824Y791D01*
X1Y790D02*
X8Y790D01*
X817Y790D02*
X824Y790D01*
X1Y789D02*
X8Y789D01*
X817Y789D02*
X824Y789D01*
X1Y788D02*
X8Y788D01*
X817Y788D02*
X824Y788D01*
X1Y787D02*
X8Y787D01*
X817Y787D02*
X824Y787D01*
X1Y786D02*
X8Y786D01*
X817Y786D02*
X824Y786D01*
X1Y785D02*
X8Y785D01*
X817Y785D02*
X824Y785D01*
X1Y784D02*
X8Y784D01*
X817Y784D02*
X824Y784D01*
X1Y783D02*
X8Y783D01*
X817Y783D02*
X824Y783D01*
X1Y782D02*
X8Y782D01*
X817Y782D02*
X824Y782D01*
X1Y781D02*
X8Y781D01*
X817Y781D02*
X824Y781D01*
X1Y780D02*
X8Y780D01*
X817Y780D02*
X824Y780D01*
X1Y779D02*
X8Y779D01*
X817Y779D02*
X824Y779D01*
X1Y778D02*
X8Y778D01*
X817Y778D02*
X824Y778D01*
X1Y777D02*
X8Y777D01*
X817Y777D02*
X824Y777D01*
X1Y776D02*
X8Y776D01*
X817Y776D02*
X824Y776D01*
X1Y775D02*
X8Y775D01*
X817Y775D02*
X824Y775D01*
X1Y774D02*
X8Y774D01*
X817Y774D02*
X824Y774D01*
X1Y773D02*
X8Y773D01*
X817Y773D02*
X824Y773D01*
X1Y772D02*
X8Y772D01*
X817Y772D02*
X824Y772D01*
X1Y771D02*
X8Y771D01*
X817Y771D02*
X824Y771D01*
X1Y770D02*
X8Y770D01*
X817Y770D02*
X824Y770D01*
X1Y769D02*
X8Y769D01*
X817Y769D02*
X824Y769D01*
X1Y768D02*
X8Y768D01*
X817Y768D02*
X824Y768D01*
X1Y767D02*
X8Y767D01*
X817Y767D02*
X824Y767D01*
X1Y766D02*
X8Y766D01*
X817Y766D02*
X824Y766D01*
X1Y765D02*
X8Y765D01*
X817Y765D02*
X824Y765D01*
X1Y764D02*
X8Y764D01*
X817Y764D02*
X824Y764D01*
X1Y763D02*
X8Y763D01*
X817Y763D02*
X824Y763D01*
X1Y762D02*
X8Y762D01*
X817Y762D02*
X824Y762D01*
X1Y761D02*
X8Y761D01*
X817Y761D02*
X824Y761D01*
X1Y760D02*
X8Y760D01*
X817Y760D02*
X824Y760D01*
X1Y759D02*
X8Y759D01*
X817Y759D02*
X824Y759D01*
X1Y758D02*
X8Y758D01*
X817Y758D02*
X824Y758D01*
X1Y757D02*
X8Y757D01*
X817Y757D02*
X824Y757D01*
X1Y756D02*
X8Y756D01*
X817Y756D02*
X824Y756D01*
X1Y755D02*
X8Y755D01*
X817Y755D02*
X824Y755D01*
X1Y754D02*
X8Y754D01*
X817Y754D02*
X824Y754D01*
X1Y753D02*
X8Y753D01*
X817Y753D02*
X824Y753D01*
X1Y752D02*
X8Y752D01*
X817Y752D02*
X824Y752D01*
X1Y751D02*
X8Y751D01*
X817Y751D02*
X824Y751D01*
X1Y750D02*
X8Y750D01*
X817Y750D02*
X824Y750D01*
X1Y749D02*
X8Y749D01*
X817Y749D02*
X824Y749D01*
X1Y748D02*
X8Y748D01*
X817Y748D02*
X824Y748D01*
X1Y747D02*
X8Y747D01*
X817Y747D02*
X824Y747D01*
X1Y746D02*
X8Y746D01*
X817Y746D02*
X824Y746D01*
X1Y745D02*
X8Y745D01*
X817Y745D02*
X824Y745D01*
X1Y744D02*
X8Y744D01*
X817Y744D02*
X824Y744D01*
X1Y743D02*
X8Y743D01*
X817Y743D02*
X824Y743D01*
X1Y742D02*
X8Y742D01*
X817Y742D02*
X824Y742D01*
X1Y741D02*
X8Y741D01*
X817Y741D02*
X824Y741D01*
X1Y740D02*
X8Y740D01*
X817Y740D02*
X824Y740D01*
X1Y739D02*
X8Y739D01*
X817Y739D02*
X824Y739D01*
X1Y738D02*
X8Y738D01*
X817Y738D02*
X824Y738D01*
X1Y737D02*
X8Y737D01*
X817Y737D02*
X824Y737D01*
X1Y736D02*
X8Y736D01*
X817Y736D02*
X824Y736D01*
X1Y735D02*
X8Y735D01*
X817Y735D02*
X824Y735D01*
X1Y734D02*
X8Y734D01*
X817Y734D02*
X824Y734D01*
X1Y733D02*
X8Y733D01*
X817Y733D02*
X824Y733D01*
X1Y732D02*
X8Y732D01*
X817Y732D02*
X824Y732D01*
X1Y731D02*
X8Y731D01*
X817Y731D02*
X824Y731D01*
X1Y730D02*
X8Y730D01*
X817Y730D02*
X824Y730D01*
X1Y729D02*
X8Y729D01*
X817Y729D02*
X824Y729D01*
X1Y728D02*
X8Y728D01*
X817Y728D02*
X824Y728D01*
X1Y727D02*
X8Y727D01*
X817Y727D02*
X824Y727D01*
X1Y726D02*
X8Y726D01*
X817Y726D02*
X824Y726D01*
X1Y725D02*
X8Y725D01*
X817Y725D02*
X824Y725D01*
X1Y724D02*
X8Y724D01*
X817Y724D02*
X824Y724D01*
X1Y723D02*
X8Y723D01*
X817Y723D02*
X824Y723D01*
X1Y722D02*
X8Y722D01*
X817Y722D02*
X824Y722D01*
X1Y721D02*
X8Y721D01*
X817Y721D02*
X824Y721D01*
X1Y720D02*
X8Y720D01*
X817Y720D02*
X824Y720D01*
X1Y719D02*
X8Y719D01*
X817Y719D02*
X824Y719D01*
X1Y718D02*
X8Y718D01*
X817Y718D02*
X824Y718D01*
X1Y717D02*
X8Y717D01*
X817Y717D02*
X824Y717D01*
X1Y716D02*
X8Y716D01*
X817Y716D02*
X824Y716D01*
X1Y715D02*
X8Y715D01*
X817Y715D02*
X824Y715D01*
X1Y714D02*
X8Y714D01*
X817Y714D02*
X824Y714D01*
X1Y713D02*
X8Y713D01*
X817Y713D02*
X824Y713D01*
X1Y712D02*
X8Y712D01*
X817Y712D02*
X824Y712D01*
X1Y711D02*
X8Y711D01*
X817Y711D02*
X824Y711D01*
X1Y710D02*
X8Y710D01*
X817Y710D02*
X824Y710D01*
X1Y709D02*
X8Y709D01*
X817Y709D02*
X824Y709D01*
X1Y708D02*
X8Y708D01*
X817Y708D02*
X824Y708D01*
X1Y707D02*
X8Y707D01*
X817Y707D02*
X824Y707D01*
X1Y706D02*
X8Y706D01*
X817Y706D02*
X824Y706D01*
X1Y705D02*
X8Y705D01*
X817Y705D02*
X824Y705D01*
X1Y704D02*
X8Y704D01*
X817Y704D02*
X824Y704D01*
X1Y703D02*
X8Y703D01*
X817Y703D02*
X824Y703D01*
X1Y702D02*
X8Y702D01*
X817Y702D02*
X824Y702D01*
X1Y701D02*
X8Y701D01*
X817Y701D02*
X824Y701D01*
X1Y700D02*
X8Y700D01*
X817Y700D02*
X824Y700D01*
X1Y699D02*
X8Y699D01*
X817Y699D02*
X824Y699D01*
X1Y698D02*
X8Y698D01*
X817Y698D02*
X824Y698D01*
X1Y697D02*
X8Y697D01*
X817Y697D02*
X824Y697D01*
X1Y696D02*
X8Y696D01*
X817Y696D02*
X824Y696D01*
X1Y695D02*
X8Y695D01*
X817Y695D02*
X824Y695D01*
X1Y694D02*
X8Y694D01*
X817Y694D02*
X824Y694D01*
X1Y693D02*
X8Y693D01*
X817Y693D02*
X824Y693D01*
X1Y692D02*
X8Y692D01*
X817Y692D02*
X824Y692D01*
X1Y691D02*
X8Y691D01*
X817Y691D02*
X824Y691D01*
X1Y690D02*
X8Y690D01*
X817Y690D02*
X824Y690D01*
X1Y689D02*
X8Y689D01*
X817Y689D02*
X824Y689D01*
X1Y688D02*
X8Y688D01*
X817Y688D02*
X824Y688D01*
X1Y687D02*
X8Y687D01*
X817Y687D02*
X824Y687D01*
X1Y686D02*
X8Y686D01*
X817Y686D02*
X824Y686D01*
X1Y685D02*
X8Y685D01*
X817Y685D02*
X824Y685D01*
X1Y684D02*
X8Y684D01*
X352Y684D02*
X369Y684D01*
X386Y684D02*
X395Y684D01*
X415Y684D02*
X428Y684D01*
X817Y684D02*
X824Y684D01*
X1Y683D02*
X8Y683D01*
X329Y683D02*
X332Y683D01*
X351Y683D02*
X371Y683D01*
X385Y683D02*
X396Y683D01*
X414Y683D02*
X430Y683D01*
X817Y683D02*
X824Y683D01*
X1Y682D02*
X8Y682D01*
X329Y682D02*
X332Y682D01*
X350Y682D02*
X371Y682D01*
X385Y682D02*
X397Y682D01*
X414Y682D02*
X430Y682D01*
X817Y682D02*
X824Y682D01*
X1Y681D02*
X8Y681D01*
X328Y681D02*
X332Y681D01*
X350Y681D02*
X371Y681D01*
X385Y681D02*
X397Y681D01*
X414Y681D02*
X430Y681D01*
X817Y681D02*
X824Y681D01*
X1Y680D02*
X8Y680D01*
X328Y680D02*
X333Y680D01*
X350Y680D02*
X371Y680D01*
X385Y680D02*
X397Y680D01*
X414Y680D02*
X428Y680D01*
X817Y680D02*
X824Y680D01*
X1Y679D02*
X8Y679D01*
X328Y679D02*
X333Y679D01*
X350Y679D02*
X353Y679D01*
X359Y679D02*
X362Y679D01*
X368Y679D02*
X371Y679D01*
X385Y679D02*
X388Y679D01*
X394Y679D02*
X397Y679D01*
X414Y679D02*
X417Y679D01*
X817Y679D02*
X824Y679D01*
X1Y678D02*
X8Y678D01*
X328Y678D02*
X333Y678D01*
X350Y678D02*
X353Y678D01*
X359Y678D02*
X362Y678D01*
X368Y678D02*
X371Y678D01*
X385Y678D02*
X388Y678D01*
X394Y678D02*
X397Y678D01*
X414Y678D02*
X417Y678D01*
X817Y678D02*
X824Y678D01*
X1Y677D02*
X8Y677D01*
X327Y677D02*
X334Y677D01*
X351Y677D02*
X353Y677D01*
X359Y677D02*
X362Y677D01*
X368Y677D02*
X370Y677D01*
X385Y677D02*
X388Y677D01*
X394Y677D02*
X397Y677D01*
X414Y677D02*
X417Y677D01*
X817Y677D02*
X824Y677D01*
X1Y676D02*
X8Y676D01*
X327Y676D02*
X334Y676D01*
X359Y676D02*
X362Y676D01*
X385Y676D02*
X388Y676D01*
X394Y676D02*
X397Y676D01*
X414Y676D02*
X417Y676D01*
X817Y676D02*
X824Y676D01*
X1Y675D02*
X8Y675D01*
X327Y675D02*
X334Y675D01*
X359Y675D02*
X362Y675D01*
X385Y675D02*
X388Y675D01*
X394Y675D02*
X397Y675D01*
X414Y675D02*
X417Y675D01*
X817Y675D02*
X824Y675D01*
X1Y674D02*
X8Y674D01*
X326Y674D02*
X335Y674D01*
X359Y674D02*
X362Y674D01*
X385Y674D02*
X388Y674D01*
X394Y674D02*
X397Y674D01*
X414Y674D02*
X417Y674D01*
X817Y674D02*
X824Y674D01*
X1Y673D02*
X8Y673D01*
X326Y673D02*
X335Y673D01*
X359Y673D02*
X362Y673D01*
X385Y673D02*
X388Y673D01*
X394Y673D02*
X397Y673D01*
X414Y673D02*
X417Y673D01*
X817Y673D02*
X824Y673D01*
X1Y672D02*
X8Y672D01*
X326Y672D02*
X329Y672D01*
X332Y672D02*
X335Y672D01*
X359Y672D02*
X362Y672D01*
X385Y672D02*
X388Y672D01*
X394Y672D02*
X397Y672D01*
X414Y672D02*
X417Y672D01*
X817Y672D02*
X824Y672D01*
X1Y671D02*
X8Y671D01*
X326Y671D02*
X329Y671D01*
X332Y671D02*
X335Y671D01*
X359Y671D02*
X362Y671D01*
X385Y671D02*
X388Y671D01*
X394Y671D02*
X397Y671D01*
X414Y671D02*
X417Y671D01*
X817Y671D02*
X824Y671D01*
X1Y670D02*
X8Y670D01*
X325Y670D02*
X329Y670D01*
X332Y670D02*
X336Y670D01*
X359Y670D02*
X362Y670D01*
X384Y670D02*
X388Y670D01*
X393Y670D02*
X397Y670D01*
X414Y670D02*
X418Y670D01*
X817Y670D02*
X824Y670D01*
X1Y669D02*
X8Y669D01*
X325Y669D02*
X328Y669D01*
X333Y669D02*
X336Y669D01*
X359Y669D02*
X362Y669D01*
X382Y669D02*
X399Y669D01*
X414Y669D02*
X428Y669D01*
X817Y669D02*
X824Y669D01*
X1Y668D02*
X8Y668D01*
X325Y668D02*
X328Y668D01*
X333Y668D02*
X336Y668D01*
X359Y668D02*
X362Y668D01*
X381Y668D02*
X400Y668D01*
X414Y668D02*
X429Y668D01*
X817Y668D02*
X824Y668D01*
X1Y667D02*
X8Y667D01*
X324Y667D02*
X328Y667D01*
X333Y667D02*
X337Y667D01*
X359Y667D02*
X362Y667D01*
X381Y667D02*
X400Y667D01*
X414Y667D02*
X430Y667D01*
X817Y667D02*
X824Y667D01*
X1Y666D02*
X8Y666D01*
X324Y666D02*
X328Y666D01*
X333Y666D02*
X337Y666D01*
X359Y666D02*
X362Y666D01*
X381Y666D02*
X401Y666D01*
X414Y666D02*
X430Y666D01*
X817Y666D02*
X824Y666D01*
X1Y665D02*
X8Y665D01*
X324Y665D02*
X327Y665D01*
X334Y665D02*
X337Y665D01*
X359Y665D02*
X362Y665D01*
X381Y665D02*
X384Y665D01*
X397Y665D02*
X401Y665D01*
X427Y665D02*
X430Y665D01*
X817Y665D02*
X824Y665D01*
X1Y664D02*
X8Y664D01*
X324Y664D02*
X327Y664D01*
X334Y664D02*
X337Y664D01*
X359Y664D02*
X362Y664D01*
X381Y664D02*
X384Y664D01*
X397Y664D02*
X401Y664D01*
X427Y664D02*
X430Y664D01*
X817Y664D02*
X824Y664D01*
X1Y663D02*
X8Y663D01*
X323Y663D02*
X327Y663D01*
X334Y663D02*
X338Y663D01*
X359Y663D02*
X362Y663D01*
X381Y663D02*
X384Y663D01*
X397Y663D02*
X401Y663D01*
X427Y663D02*
X430Y663D01*
X817Y663D02*
X824Y663D01*
X1Y662D02*
X8Y662D01*
X323Y662D02*
X338Y662D01*
X359Y662D02*
X362Y662D01*
X381Y662D02*
X384Y662D01*
X397Y662D02*
X401Y662D01*
X427Y662D02*
X430Y662D01*
X817Y662D02*
X824Y662D01*
X1Y661D02*
X8Y661D01*
X323Y661D02*
X338Y661D01*
X359Y661D02*
X362Y661D01*
X381Y661D02*
X384Y661D01*
X397Y661D02*
X401Y661D01*
X427Y661D02*
X430Y661D01*
X817Y661D02*
X824Y661D01*
X1Y660D02*
X8Y660D01*
X322Y660D02*
X339Y660D01*
X359Y660D02*
X362Y660D01*
X381Y660D02*
X384Y660D01*
X397Y660D02*
X401Y660D01*
X427Y660D02*
X430Y660D01*
X817Y660D02*
X824Y660D01*
X1Y659D02*
X8Y659D01*
X322Y659D02*
X339Y659D01*
X359Y659D02*
X362Y659D01*
X381Y659D02*
X384Y659D01*
X397Y659D02*
X401Y659D01*
X427Y659D02*
X430Y659D01*
X817Y659D02*
X824Y659D01*
X1Y658D02*
X8Y658D01*
X322Y658D02*
X325Y658D01*
X336Y658D02*
X339Y658D01*
X359Y658D02*
X362Y658D01*
X381Y658D02*
X384Y658D01*
X397Y658D02*
X401Y658D01*
X427Y658D02*
X430Y658D01*
X817Y658D02*
X824Y658D01*
X1Y657D02*
X8Y657D01*
X321Y657D02*
X325Y657D01*
X336Y657D02*
X340Y657D01*
X359Y657D02*
X362Y657D01*
X381Y657D02*
X384Y657D01*
X397Y657D02*
X401Y657D01*
X427Y657D02*
X430Y657D01*
X817Y657D02*
X824Y657D01*
X1Y656D02*
X8Y656D01*
X321Y656D02*
X325Y656D01*
X336Y656D02*
X340Y656D01*
X359Y656D02*
X362Y656D01*
X381Y656D02*
X384Y656D01*
X397Y656D02*
X401Y656D01*
X412Y656D02*
X415Y656D01*
X426Y656D02*
X430Y656D01*
X817Y656D02*
X824Y656D01*
X1Y655D02*
X8Y655D01*
X321Y655D02*
X324Y655D01*
X337Y655D02*
X340Y655D01*
X359Y655D02*
X362Y655D01*
X381Y655D02*
X400Y655D01*
X412Y655D02*
X430Y655D01*
X817Y655D02*
X824Y655D01*
X1Y654D02*
X8Y654D01*
X321Y654D02*
X324Y654D01*
X337Y654D02*
X340Y654D01*
X359Y654D02*
X362Y654D01*
X381Y654D02*
X400Y654D01*
X412Y654D02*
X429Y654D01*
X817Y654D02*
X824Y654D01*
X1Y653D02*
X8Y653D01*
X321Y653D02*
X324Y653D01*
X337Y653D02*
X340Y653D01*
X359Y653D02*
X362Y653D01*
X382Y653D02*
X399Y653D01*
X413Y653D02*
X429Y653D01*
X817Y653D02*
X824Y653D01*
X1Y652D02*
X8Y652D01*
X322Y652D02*
X323Y652D01*
X338Y652D02*
X339Y652D01*
X360Y652D02*
X361Y652D01*
X383Y652D02*
X398Y652D01*
X415Y652D02*
X427Y652D01*
X817Y652D02*
X824Y652D01*
X1Y651D02*
X8Y651D01*
X817Y651D02*
X824Y651D01*
X1Y650D02*
X8Y650D01*
X817Y650D02*
X824Y650D01*
X1Y649D02*
X8Y649D01*
X817Y649D02*
X824Y649D01*
X1Y648D02*
X8Y648D01*
X152Y648D02*
X165Y648D01*
X179Y648D02*
X181Y648D01*
X817Y648D02*
X824Y648D01*
X1Y647D02*
X8Y647D01*
X151Y647D02*
X166Y647D01*
X179Y647D02*
X182Y647D01*
X817Y647D02*
X824Y647D01*
X1Y646D02*
X8Y646D01*
X151Y646D02*
X167Y646D01*
X178Y646D02*
X182Y646D01*
X817Y646D02*
X824Y646D01*
X1Y645D02*
X8Y645D01*
X150Y645D02*
X167Y645D01*
X178Y645D02*
X182Y645D01*
X817Y645D02*
X824Y645D01*
X1Y644D02*
X8Y644D01*
X150Y644D02*
X153Y644D01*
X164Y644D02*
X167Y644D01*
X178Y644D02*
X182Y644D01*
X817Y644D02*
X824Y644D01*
X1Y643D02*
X8Y643D01*
X150Y643D02*
X153Y643D01*
X164Y643D02*
X167Y643D01*
X178Y643D02*
X182Y643D01*
X817Y643D02*
X824Y643D01*
X1Y642D02*
X8Y642D01*
X150Y642D02*
X153Y642D01*
X164Y642D02*
X167Y642D01*
X178Y642D02*
X182Y642D01*
X817Y642D02*
X824Y642D01*
X1Y641D02*
X8Y641D01*
X150Y641D02*
X153Y641D01*
X164Y641D02*
X167Y641D01*
X178Y641D02*
X182Y641D01*
X817Y641D02*
X824Y641D01*
X1Y640D02*
X8Y640D01*
X150Y640D02*
X153Y640D01*
X164Y640D02*
X167Y640D01*
X178Y640D02*
X182Y640D01*
X817Y640D02*
X824Y640D01*
X1Y639D02*
X8Y639D01*
X150Y639D02*
X153Y639D01*
X164Y639D02*
X167Y639D01*
X178Y639D02*
X182Y639D01*
X817Y639D02*
X824Y639D01*
X1Y638D02*
X8Y638D01*
X150Y638D02*
X153Y638D01*
X164Y638D02*
X167Y638D01*
X178Y638D02*
X182Y638D01*
X817Y638D02*
X824Y638D01*
X1Y637D02*
X8Y637D01*
X150Y637D02*
X153Y637D01*
X164Y637D02*
X167Y637D01*
X178Y637D02*
X182Y637D01*
X817Y637D02*
X824Y637D01*
X1Y636D02*
X8Y636D01*
X150Y636D02*
X153Y636D01*
X164Y636D02*
X167Y636D01*
X178Y636D02*
X182Y636D01*
X817Y636D02*
X824Y636D01*
X1Y635D02*
X8Y635D01*
X150Y635D02*
X153Y635D01*
X164Y635D02*
X167Y635D01*
X178Y635D02*
X182Y635D01*
X817Y635D02*
X824Y635D01*
X1Y634D02*
X8Y634D01*
X150Y634D02*
X153Y634D01*
X164Y634D02*
X167Y634D01*
X178Y634D02*
X182Y634D01*
X817Y634D02*
X824Y634D01*
X1Y633D02*
X8Y633D01*
X150Y633D02*
X153Y633D01*
X164Y633D02*
X167Y633D01*
X178Y633D02*
X182Y633D01*
X817Y633D02*
X824Y633D01*
X1Y632D02*
X8Y632D01*
X150Y632D02*
X153Y632D01*
X164Y632D02*
X182Y632D01*
X817Y632D02*
X824Y632D01*
X1Y631D02*
X8Y631D01*
X150Y631D02*
X153Y631D01*
X165Y631D02*
X182Y631D01*
X817Y631D02*
X824Y631D01*
X1Y630D02*
X8Y630D01*
X150Y630D02*
X153Y630D01*
X165Y630D02*
X182Y630D01*
X817Y630D02*
X824Y630D01*
X1Y629D02*
X8Y629D01*
X150Y629D02*
X153Y629D01*
X166Y629D02*
X182Y629D01*
X817Y629D02*
X824Y629D01*
X1Y628D02*
X8Y628D01*
X152Y628D02*
X152Y628D01*
X168Y628D02*
X181Y628D01*
X817Y628D02*
X824Y628D01*
X1Y627D02*
X8Y627D01*
X817Y627D02*
X824Y627D01*
X1Y626D02*
X8Y626D01*
X817Y626D02*
X824Y626D01*
X1Y625D02*
X8Y625D01*
X817Y625D02*
X824Y625D01*
X1Y624D02*
X8Y624D01*
X817Y624D02*
X824Y624D01*
X1Y623D02*
X8Y623D01*
X817Y623D02*
X824Y623D01*
X1Y622D02*
X8Y622D01*
X817Y622D02*
X824Y622D01*
X1Y621D02*
X8Y621D01*
X817Y621D02*
X824Y621D01*
X1Y620D02*
X8Y620D01*
X817Y620D02*
X824Y620D01*
X1Y619D02*
X8Y619D01*
X817Y619D02*
X824Y619D01*
X1Y618D02*
X8Y618D01*
X166Y618D02*
X179Y618D01*
X817Y618D02*
X824Y618D01*
X1Y617D02*
X8Y617D01*
X165Y617D02*
X181Y617D01*
X817Y617D02*
X824Y617D01*
X1Y616D02*
X8Y616D01*
X165Y616D02*
X181Y616D01*
X817Y616D02*
X824Y616D01*
X1Y615D02*
X8Y615D01*
X164Y615D02*
X181Y615D01*
X817Y615D02*
X824Y615D01*
X1Y614D02*
X8Y614D01*
X151Y614D02*
X168Y614D01*
X178Y614D02*
X182Y614D01*
X817Y614D02*
X824Y614D01*
X1Y613D02*
X8Y613D01*
X150Y613D02*
X167Y613D01*
X178Y613D02*
X182Y613D01*
X817Y613D02*
X824Y613D01*
X1Y612D02*
X8Y612D01*
X150Y612D02*
X167Y612D01*
X178Y612D02*
X182Y612D01*
X817Y612D02*
X824Y612D01*
X1Y611D02*
X8Y611D01*
X150Y611D02*
X167Y611D01*
X178Y611D02*
X182Y611D01*
X817Y611D02*
X824Y611D01*
X1Y610D02*
X8Y610D01*
X150Y610D02*
X153Y610D01*
X164Y610D02*
X167Y610D01*
X178Y610D02*
X182Y610D01*
X817Y610D02*
X824Y610D01*
X1Y609D02*
X8Y609D01*
X150Y609D02*
X153Y609D01*
X164Y609D02*
X167Y609D01*
X178Y609D02*
X182Y609D01*
X817Y609D02*
X824Y609D01*
X1Y608D02*
X8Y608D01*
X150Y608D02*
X153Y608D01*
X164Y608D02*
X167Y608D01*
X178Y608D02*
X182Y608D01*
X817Y608D02*
X824Y608D01*
X1Y607D02*
X8Y607D01*
X150Y607D02*
X153Y607D01*
X164Y607D02*
X167Y607D01*
X178Y607D02*
X182Y607D01*
X817Y607D02*
X824Y607D01*
X1Y606D02*
X8Y606D01*
X150Y606D02*
X153Y606D01*
X164Y606D02*
X167Y606D01*
X178Y606D02*
X182Y606D01*
X817Y606D02*
X824Y606D01*
X1Y605D02*
X8Y605D01*
X150Y605D02*
X167Y605D01*
X178Y605D02*
X182Y605D01*
X817Y605D02*
X824Y605D01*
X1Y604D02*
X8Y604D01*
X150Y604D02*
X167Y604D01*
X178Y604D02*
X182Y604D01*
X817Y604D02*
X824Y604D01*
X1Y603D02*
X8Y603D01*
X150Y603D02*
X167Y603D01*
X178Y603D02*
X182Y603D01*
X817Y603D02*
X824Y603D01*
X1Y602D02*
X8Y602D01*
X151Y602D02*
X168Y602D01*
X178Y602D02*
X182Y602D01*
X817Y602D02*
X824Y602D01*
X1Y601D02*
X8Y601D01*
X164Y601D02*
X181Y601D01*
X817Y601D02*
X824Y601D01*
X1Y600D02*
X8Y600D01*
X165Y600D02*
X181Y600D01*
X817Y600D02*
X824Y600D01*
X1Y599D02*
X8Y599D01*
X165Y599D02*
X180Y599D01*
X817Y599D02*
X824Y599D01*
X1Y598D02*
X8Y598D01*
X167Y598D02*
X178Y598D01*
X817Y598D02*
X824Y598D01*
X1Y597D02*
X8Y597D01*
X817Y597D02*
X824Y597D01*
X1Y596D02*
X8Y596D01*
X817Y596D02*
X824Y596D01*
X1Y595D02*
X8Y595D01*
X817Y595D02*
X824Y595D01*
X1Y594D02*
X8Y594D01*
X817Y594D02*
X824Y594D01*
X1Y593D02*
X8Y593D01*
X817Y593D02*
X824Y593D01*
X1Y592D02*
X8Y592D01*
X817Y592D02*
X824Y592D01*
X1Y591D02*
X8Y591D01*
X817Y591D02*
X824Y591D01*
X1Y590D02*
X8Y590D01*
X817Y590D02*
X824Y590D01*
X1Y589D02*
X8Y589D01*
X817Y589D02*
X824Y589D01*
X1Y588D02*
X8Y588D01*
X167Y588D02*
X179Y588D01*
X817Y588D02*
X824Y588D01*
X1Y587D02*
X8Y587D01*
X165Y587D02*
X180Y587D01*
X817Y587D02*
X824Y587D01*
X1Y586D02*
X8Y586D01*
X165Y586D02*
X181Y586D01*
X817Y586D02*
X824Y586D01*
X1Y585D02*
X8Y585D01*
X164Y585D02*
X181Y585D01*
X817Y585D02*
X824Y585D01*
X1Y584D02*
X8Y584D01*
X151Y584D02*
X168Y584D01*
X178Y584D02*
X182Y584D01*
X817Y584D02*
X824Y584D01*
X1Y583D02*
X8Y583D01*
X150Y583D02*
X167Y583D01*
X178Y583D02*
X182Y583D01*
X817Y583D02*
X824Y583D01*
X1Y582D02*
X8Y582D01*
X150Y582D02*
X167Y582D01*
X178Y582D02*
X182Y582D01*
X817Y582D02*
X824Y582D01*
X1Y581D02*
X8Y581D01*
X150Y581D02*
X167Y581D01*
X178Y581D02*
X182Y581D01*
X817Y581D02*
X824Y581D01*
X1Y580D02*
X8Y580D01*
X150Y580D02*
X153Y580D01*
X164Y580D02*
X167Y580D01*
X178Y580D02*
X182Y580D01*
X817Y580D02*
X824Y580D01*
X1Y579D02*
X8Y579D01*
X150Y579D02*
X153Y579D01*
X164Y579D02*
X167Y579D01*
X178Y579D02*
X182Y579D01*
X817Y579D02*
X824Y579D01*
X1Y578D02*
X8Y578D01*
X150Y578D02*
X153Y578D01*
X164Y578D02*
X167Y578D01*
X178Y578D02*
X182Y578D01*
X817Y578D02*
X824Y578D01*
X1Y577D02*
X8Y577D01*
X150Y577D02*
X153Y577D01*
X164Y577D02*
X167Y577D01*
X178Y577D02*
X182Y577D01*
X817Y577D02*
X824Y577D01*
X1Y576D02*
X8Y576D01*
X150Y576D02*
X153Y576D01*
X164Y576D02*
X167Y576D01*
X178Y576D02*
X182Y576D01*
X817Y576D02*
X824Y576D01*
X1Y575D02*
X8Y575D01*
X150Y575D02*
X167Y575D01*
X178Y575D02*
X182Y575D01*
X817Y575D02*
X824Y575D01*
X1Y574D02*
X8Y574D01*
X150Y574D02*
X167Y574D01*
X178Y574D02*
X182Y574D01*
X817Y574D02*
X824Y574D01*
X1Y573D02*
X8Y573D01*
X150Y573D02*
X167Y573D01*
X178Y573D02*
X182Y573D01*
X817Y573D02*
X824Y573D01*
X1Y572D02*
X8Y572D01*
X151Y572D02*
X168Y572D01*
X178Y572D02*
X182Y572D01*
X817Y572D02*
X824Y572D01*
X1Y571D02*
X8Y571D01*
X164Y571D02*
X181Y571D01*
X817Y571D02*
X824Y571D01*
X1Y570D02*
X8Y570D01*
X165Y570D02*
X181Y570D01*
X817Y570D02*
X824Y570D01*
X1Y569D02*
X8Y569D01*
X165Y569D02*
X180Y569D01*
X817Y569D02*
X824Y569D01*
X1Y568D02*
X8Y568D01*
X167Y568D02*
X179Y568D01*
X817Y568D02*
X824Y568D01*
X1Y567D02*
X8Y567D01*
X817Y567D02*
X824Y567D01*
X1Y566D02*
X8Y566D01*
X817Y566D02*
X824Y566D01*
X1Y565D02*
X8Y565D01*
X817Y565D02*
X824Y565D01*
X1Y564D02*
X8Y564D01*
X817Y564D02*
X824Y564D01*
X1Y563D02*
X8Y563D01*
X817Y563D02*
X824Y563D01*
X1Y562D02*
X8Y562D01*
X817Y562D02*
X824Y562D01*
X1Y561D02*
X8Y561D01*
X817Y561D02*
X824Y561D01*
X1Y560D02*
X8Y560D01*
X817Y560D02*
X824Y560D01*
X1Y559D02*
X8Y559D01*
X817Y559D02*
X824Y559D01*
X1Y558D02*
X8Y558D01*
X151Y558D02*
X152Y558D01*
X179Y558D02*
X181Y558D01*
X817Y558D02*
X824Y558D01*
X1Y557D02*
X8Y557D01*
X150Y557D02*
X154Y557D01*
X178Y557D02*
X181Y557D01*
X817Y557D02*
X824Y557D01*
X1Y556D02*
X8Y556D01*
X150Y556D02*
X156Y556D01*
X176Y556D02*
X182Y556D01*
X817Y556D02*
X824Y556D01*
X1Y555D02*
X8Y555D01*
X151Y555D02*
X158Y555D01*
X174Y555D02*
X181Y555D01*
X817Y555D02*
X824Y555D01*
X1Y554D02*
X8Y554D01*
X152Y554D02*
X159Y554D01*
X173Y554D02*
X180Y554D01*
X817Y554D02*
X824Y554D01*
X1Y553D02*
X8Y553D01*
X154Y553D02*
X161Y553D01*
X171Y553D02*
X178Y553D01*
X817Y553D02*
X824Y553D01*
X1Y552D02*
X8Y552D01*
X155Y552D02*
X163Y552D01*
X169Y552D02*
X176Y552D01*
X817Y552D02*
X824Y552D01*
X1Y551D02*
X8Y551D01*
X157Y551D02*
X164Y551D01*
X167Y551D02*
X175Y551D01*
X817Y551D02*
X824Y551D01*
X1Y550D02*
X8Y550D01*
X159Y550D02*
X173Y550D01*
X817Y550D02*
X824Y550D01*
X1Y549D02*
X8Y549D01*
X160Y549D02*
X171Y549D01*
X817Y549D02*
X824Y549D01*
X1Y548D02*
X8Y548D01*
X162Y548D02*
X170Y548D01*
X817Y548D02*
X824Y548D01*
X1Y547D02*
X8Y547D01*
X160Y547D02*
X171Y547D01*
X817Y547D02*
X824Y547D01*
X1Y546D02*
X8Y546D01*
X159Y546D02*
X173Y546D01*
X817Y546D02*
X824Y546D01*
X1Y545D02*
X8Y545D01*
X157Y545D02*
X164Y545D01*
X167Y545D02*
X175Y545D01*
X817Y545D02*
X824Y545D01*
X1Y544D02*
X8Y544D01*
X155Y544D02*
X163Y544D01*
X169Y544D02*
X176Y544D01*
X817Y544D02*
X824Y544D01*
X1Y543D02*
X8Y543D01*
X154Y543D02*
X161Y543D01*
X171Y543D02*
X178Y543D01*
X817Y543D02*
X824Y543D01*
X1Y542D02*
X8Y542D01*
X152Y542D02*
X159Y542D01*
X172Y542D02*
X180Y542D01*
X197Y542D02*
X197Y542D01*
X817Y542D02*
X824Y542D01*
X1Y541D02*
X8Y541D01*
X151Y541D02*
X158Y541D01*
X174Y541D02*
X181Y541D01*
X196Y541D02*
X198Y541D01*
X817Y541D02*
X824Y541D01*
X1Y540D02*
X8Y540D01*
X150Y540D02*
X156Y540D01*
X176Y540D02*
X182Y540D01*
X195Y540D02*
X199Y540D01*
X817Y540D02*
X824Y540D01*
X1Y539D02*
X8Y539D01*
X150Y539D02*
X154Y539D01*
X178Y539D02*
X181Y539D01*
X194Y539D02*
X200Y539D01*
X817Y539D02*
X824Y539D01*
X1Y538D02*
X8Y538D01*
X151Y538D02*
X152Y538D01*
X179Y538D02*
X181Y538D01*
X195Y538D02*
X201Y538D01*
X817Y538D02*
X824Y538D01*
X1Y537D02*
X8Y537D01*
X196Y537D02*
X201Y537D01*
X817Y537D02*
X824Y537D01*
X1Y536D02*
X8Y536D01*
X197Y536D02*
X201Y536D01*
X817Y536D02*
X824Y536D01*
X1Y535D02*
X8Y535D01*
X198Y535D02*
X201Y535D01*
X817Y535D02*
X824Y535D01*
X1Y534D02*
X8Y534D01*
X199Y534D02*
X201Y534D01*
X817Y534D02*
X824Y534D01*
X1Y533D02*
X8Y533D01*
X200Y533D02*
X201Y533D01*
X817Y533D02*
X824Y533D01*
X1Y532D02*
X8Y532D01*
X201Y532D02*
X201Y532D01*
X817Y532D02*
X824Y532D01*
X1Y531D02*
X8Y531D01*
X817Y531D02*
X824Y531D01*
X1Y530D02*
X8Y530D01*
X817Y530D02*
X824Y530D01*
X1Y529D02*
X8Y529D01*
X817Y529D02*
X824Y529D01*
X1Y528D02*
X8Y528D01*
X151Y528D02*
X156Y528D01*
X817Y528D02*
X824Y528D01*
X1Y527D02*
X8Y527D01*
X150Y527D02*
X157Y527D01*
X817Y527D02*
X824Y527D01*
X1Y526D02*
X8Y526D01*
X150Y526D02*
X157Y526D01*
X817Y526D02*
X824Y526D01*
X1Y525D02*
X8Y525D01*
X150Y525D02*
X156Y525D01*
X817Y525D02*
X824Y525D01*
X1Y524D02*
X8Y524D01*
X150Y524D02*
X153Y524D01*
X817Y524D02*
X824Y524D01*
X1Y523D02*
X8Y523D01*
X150Y523D02*
X153Y523D01*
X817Y523D02*
X824Y523D01*
X1Y522D02*
X8Y522D01*
X150Y522D02*
X153Y522D01*
X817Y522D02*
X824Y522D01*
X1Y521D02*
X8Y521D01*
X150Y521D02*
X153Y521D01*
X817Y521D02*
X824Y521D01*
X1Y520D02*
X8Y520D01*
X150Y520D02*
X154Y520D01*
X817Y520D02*
X824Y520D01*
X1Y519D02*
X8Y519D01*
X150Y519D02*
X181Y519D01*
X817Y519D02*
X824Y519D01*
X1Y518D02*
X8Y518D01*
X150Y518D02*
X182Y518D01*
X817Y518D02*
X824Y518D01*
X1Y517D02*
X8Y517D01*
X150Y517D02*
X181Y517D01*
X817Y517D02*
X824Y517D01*
X1Y516D02*
X8Y516D01*
X150Y516D02*
X180Y516D01*
X817Y516D02*
X824Y516D01*
X1Y515D02*
X8Y515D01*
X150Y515D02*
X153Y515D01*
X817Y515D02*
X824Y515D01*
X1Y514D02*
X8Y514D01*
X150Y514D02*
X153Y514D01*
X624Y514D02*
X627Y514D01*
X817Y514D02*
X824Y514D01*
X1Y513D02*
X8Y513D01*
X150Y513D02*
X153Y513D01*
X623Y513D02*
X628Y513D01*
X817Y513D02*
X824Y513D01*
X1Y512D02*
X8Y512D01*
X150Y512D02*
X153Y512D01*
X559Y512D02*
X573Y512D01*
X623Y512D02*
X628Y512D01*
X707Y512D02*
X709Y512D01*
X817Y512D02*
X824Y512D01*
X1Y511D02*
X8Y511D01*
X150Y511D02*
X156Y511D01*
X222Y511D02*
X228Y511D01*
X557Y511D02*
X574Y511D01*
X623Y511D02*
X628Y511D01*
X707Y511D02*
X710Y511D01*
X817Y511D02*
X824Y511D01*
X1Y510D02*
X8Y510D01*
X150Y510D02*
X157Y510D01*
X223Y510D02*
X229Y510D01*
X557Y510D02*
X575Y510D01*
X623Y510D02*
X628Y510D01*
X651Y510D02*
X653Y510D01*
X707Y510D02*
X710Y510D01*
X817Y510D02*
X824Y510D01*
X1Y509D02*
X8Y509D01*
X150Y509D02*
X157Y509D01*
X224Y509D02*
X230Y509D01*
X556Y509D02*
X576Y509D01*
X623Y509D02*
X627Y509D01*
X651Y509D02*
X654Y509D01*
X707Y509D02*
X710Y509D01*
X817Y509D02*
X824Y509D01*
X1Y508D02*
X8Y508D01*
X151Y508D02*
X156Y508D01*
X225Y508D02*
X231Y508D01*
X556Y508D02*
X560Y508D01*
X572Y508D02*
X576Y508D01*
X651Y508D02*
X654Y508D01*
X707Y508D02*
X710Y508D01*
X817Y508D02*
X824Y508D01*
X1Y507D02*
X8Y507D01*
X226Y507D02*
X231Y507D01*
X556Y507D02*
X560Y507D01*
X573Y507D02*
X576Y507D01*
X651Y507D02*
X654Y507D01*
X707Y507D02*
X710Y507D01*
X817Y507D02*
X824Y507D01*
X1Y506D02*
X8Y506D01*
X227Y506D02*
X230Y506D01*
X557Y506D02*
X561Y506D01*
X573Y506D02*
X576Y506D01*
X651Y506D02*
X654Y506D01*
X707Y506D02*
X710Y506D01*
X817Y506D02*
X824Y506D01*
X1Y505D02*
X8Y505D01*
X228Y505D02*
X229Y505D01*
X557Y505D02*
X562Y505D01*
X574Y505D02*
X574Y505D01*
X651Y505D02*
X654Y505D01*
X707Y505D02*
X710Y505D01*
X817Y505D02*
X824Y505D01*
X1Y504D02*
X8Y504D01*
X558Y504D02*
X562Y504D01*
X650Y504D02*
X654Y504D01*
X707Y504D02*
X710Y504D01*
X817Y504D02*
X824Y504D01*
X1Y503D02*
X8Y503D01*
X559Y503D02*
X563Y503D01*
X586Y503D02*
X589Y503D01*
X604Y503D02*
X606Y503D01*
X619Y503D02*
X627Y503D01*
X647Y503D02*
X662Y503D01*
X683Y503D02*
X696Y503D01*
X707Y503D02*
X710Y503D01*
X715Y503D02*
X723Y503D01*
X817Y503D02*
X824Y503D01*
X1Y502D02*
X8Y502D01*
X560Y502D02*
X564Y502D01*
X586Y502D02*
X589Y502D01*
X603Y502D02*
X606Y502D01*
X619Y502D02*
X628Y502D01*
X647Y502D02*
X663Y502D01*
X682Y502D02*
X696Y502D01*
X707Y502D02*
X710Y502D01*
X714Y502D02*
X724Y502D01*
X817Y502D02*
X824Y502D01*
X1Y501D02*
X8Y501D01*
X560Y501D02*
X565Y501D01*
X586Y501D02*
X589Y501D01*
X603Y501D02*
X606Y501D01*
X619Y501D02*
X628Y501D01*
X647Y501D02*
X663Y501D01*
X681Y501D02*
X696Y501D01*
X707Y501D02*
X710Y501D01*
X712Y501D02*
X725Y501D01*
X817Y501D02*
X824Y501D01*
X1Y500D02*
X8Y500D01*
X561Y500D02*
X565Y500D01*
X586Y500D02*
X589Y500D01*
X603Y500D02*
X606Y500D01*
X619Y500D02*
X628Y500D01*
X648Y500D02*
X662Y500D01*
X680Y500D02*
X695Y500D01*
X707Y500D02*
X725Y500D01*
X817Y500D02*
X824Y500D01*
X1Y499D02*
X8Y499D01*
X562Y499D02*
X566Y499D01*
X586Y499D02*
X589Y499D01*
X603Y499D02*
X606Y499D01*
X625Y499D02*
X628Y499D01*
X651Y499D02*
X654Y499D01*
X679Y499D02*
X684Y499D01*
X707Y499D02*
X716Y499D01*
X722Y499D02*
X726Y499D01*
X817Y499D02*
X824Y499D01*
X1Y498D02*
X8Y498D01*
X155Y498D02*
X155Y498D01*
X177Y498D02*
X178Y498D01*
X563Y498D02*
X567Y498D01*
X586Y498D02*
X589Y498D01*
X603Y498D02*
X606Y498D01*
X625Y498D02*
X628Y498D01*
X651Y498D02*
X654Y498D01*
X678Y498D02*
X683Y498D01*
X707Y498D02*
X714Y498D01*
X723Y498D02*
X726Y498D01*
X817Y498D02*
X824Y498D01*
X1Y497D02*
X8Y497D01*
X153Y497D02*
X157Y497D01*
X175Y497D02*
X180Y497D01*
X563Y497D02*
X568Y497D01*
X586Y497D02*
X589Y497D01*
X603Y497D02*
X606Y497D01*
X625Y497D02*
X628Y497D01*
X651Y497D02*
X654Y497D01*
X677Y497D02*
X682Y497D01*
X707Y497D02*
X713Y497D01*
X723Y497D02*
X726Y497D01*
X817Y497D02*
X824Y497D01*
X1Y496D02*
X8Y496D01*
X151Y496D02*
X157Y496D01*
X174Y496D02*
X181Y496D01*
X564Y496D02*
X569Y496D01*
X586Y496D02*
X589Y496D01*
X595Y496D02*
X597Y496D01*
X603Y496D02*
X606Y496D01*
X625Y496D02*
X628Y496D01*
X651Y496D02*
X654Y496D01*
X677Y496D02*
X681Y496D01*
X707Y496D02*
X711Y496D01*
X723Y496D02*
X726Y496D01*
X817Y496D02*
X824Y496D01*
X1Y495D02*
X8Y495D01*
X151Y495D02*
X157Y495D01*
X172Y495D02*
X181Y495D01*
X565Y495D02*
X569Y495D01*
X586Y495D02*
X589Y495D01*
X595Y495D02*
X598Y495D01*
X603Y495D02*
X606Y495D01*
X625Y495D02*
X628Y495D01*
X651Y495D02*
X654Y495D01*
X677Y495D02*
X680Y495D01*
X707Y495D02*
X710Y495D01*
X723Y495D02*
X726Y495D01*
X817Y495D02*
X824Y495D01*
X1Y494D02*
X8Y494D01*
X150Y494D02*
X155Y494D01*
X171Y494D02*
X182Y494D01*
X566Y494D02*
X570Y494D01*
X586Y494D02*
X589Y494D01*
X595Y494D02*
X598Y494D01*
X603Y494D02*
X606Y494D01*
X625Y494D02*
X628Y494D01*
X651Y494D02*
X654Y494D01*
X677Y494D02*
X680Y494D01*
X707Y494D02*
X710Y494D01*
X723Y494D02*
X726Y494D01*
X817Y494D02*
X824Y494D01*
X1Y493D02*
X8Y493D01*
X150Y493D02*
X153Y493D01*
X170Y493D02*
X176Y493D01*
X178Y493D02*
X182Y493D01*
X567Y493D02*
X571Y493D01*
X586Y493D02*
X589Y493D01*
X595Y493D02*
X598Y493D01*
X603Y493D02*
X606Y493D01*
X625Y493D02*
X628Y493D01*
X651Y493D02*
X654Y493D01*
X677Y493D02*
X680Y493D01*
X707Y493D02*
X710Y493D01*
X723Y493D02*
X726Y493D01*
X817Y493D02*
X824Y493D01*
X1Y492D02*
X8Y492D01*
X150Y492D02*
X153Y492D01*
X168Y492D02*
X174Y492D01*
X178Y492D02*
X182Y492D01*
X567Y492D02*
X572Y492D01*
X586Y492D02*
X589Y492D01*
X595Y492D02*
X598Y492D01*
X603Y492D02*
X606Y492D01*
X625Y492D02*
X628Y492D01*
X651Y492D02*
X654Y492D01*
X677Y492D02*
X680Y492D01*
X707Y492D02*
X710Y492D01*
X723Y492D02*
X726Y492D01*
X817Y492D02*
X824Y492D01*
X1Y491D02*
X8Y491D01*
X150Y491D02*
X153Y491D01*
X167Y491D02*
X173Y491D01*
X178Y491D02*
X182Y491D01*
X568Y491D02*
X572Y491D01*
X586Y491D02*
X589Y491D01*
X595Y491D02*
X598Y491D01*
X603Y491D02*
X606Y491D01*
X625Y491D02*
X628Y491D01*
X651Y491D02*
X654Y491D01*
X677Y491D02*
X680Y491D01*
X707Y491D02*
X710Y491D01*
X723Y491D02*
X726Y491D01*
X817Y491D02*
X824Y491D01*
X1Y490D02*
X8Y490D01*
X150Y490D02*
X153Y490D01*
X166Y490D02*
X172Y490D01*
X178Y490D02*
X182Y490D01*
X569Y490D02*
X573Y490D01*
X586Y490D02*
X590Y490D01*
X595Y490D02*
X598Y490D01*
X603Y490D02*
X606Y490D01*
X625Y490D02*
X628Y490D01*
X651Y490D02*
X654Y490D01*
X677Y490D02*
X680Y490D01*
X707Y490D02*
X710Y490D01*
X723Y490D02*
X726Y490D01*
X817Y490D02*
X824Y490D01*
X1Y489D02*
X8Y489D01*
X150Y489D02*
X153Y489D01*
X165Y489D02*
X171Y489D01*
X178Y489D02*
X182Y489D01*
X570Y489D02*
X574Y489D01*
X586Y489D02*
X590Y489D01*
X594Y489D02*
X598Y489D01*
X603Y489D02*
X606Y489D01*
X625Y489D02*
X628Y489D01*
X651Y489D02*
X654Y489D01*
X677Y489D02*
X680Y489D01*
X707Y489D02*
X710Y489D01*
X723Y489D02*
X726Y489D01*
X817Y489D02*
X824Y489D01*
X1Y488D02*
X8Y488D01*
X150Y488D02*
X153Y488D01*
X163Y488D02*
X169Y488D01*
X178Y488D02*
X182Y488D01*
X570Y488D02*
X575Y488D01*
X587Y488D02*
X590Y488D01*
X593Y488D02*
X599Y488D01*
X602Y488D02*
X606Y488D01*
X625Y488D02*
X628Y488D01*
X651Y488D02*
X654Y488D01*
X677Y488D02*
X681Y488D01*
X707Y488D02*
X710Y488D01*
X723Y488D02*
X726Y488D01*
X817Y488D02*
X824Y488D01*
X1Y487D02*
X8Y487D01*
X150Y487D02*
X153Y487D01*
X162Y487D02*
X168Y487D01*
X178Y487D02*
X182Y487D01*
X557Y487D02*
X559Y487D01*
X571Y487D02*
X575Y487D01*
X587Y487D02*
X590Y487D01*
X593Y487D02*
X600Y487D01*
X602Y487D02*
X606Y487D01*
X625Y487D02*
X628Y487D01*
X651Y487D02*
X654Y487D01*
X664Y487D02*
X666Y487D01*
X677Y487D02*
X682Y487D01*
X707Y487D02*
X710Y487D01*
X723Y487D02*
X726Y487D01*
X817Y487D02*
X824Y487D01*
X1Y486D02*
X8Y486D01*
X150Y486D02*
X153Y486D01*
X161Y486D02*
X167Y486D01*
X178Y486D02*
X182Y486D01*
X556Y486D02*
X559Y486D01*
X572Y486D02*
X576Y486D01*
X587Y486D02*
X600Y486D01*
X602Y486D02*
X605Y486D01*
X625Y486D02*
X628Y486D01*
X651Y486D02*
X654Y486D01*
X663Y486D02*
X666Y486D01*
X678Y486D02*
X683Y486D01*
X707Y486D02*
X710Y486D01*
X723Y486D02*
X726Y486D01*
X817Y486D02*
X824Y486D01*
X1Y485D02*
X8Y485D01*
X150Y485D02*
X153Y485D01*
X159Y485D02*
X165Y485D01*
X178Y485D02*
X182Y485D01*
X556Y485D02*
X560Y485D01*
X573Y485D02*
X576Y485D01*
X588Y485D02*
X605Y485D01*
X625Y485D02*
X628Y485D01*
X651Y485D02*
X655Y485D01*
X662Y485D02*
X666Y485D01*
X679Y485D02*
X684Y485D01*
X707Y485D02*
X710Y485D01*
X723Y485D02*
X726Y485D01*
X817Y485D02*
X824Y485D01*
X1Y484D02*
X8Y484D01*
X150Y484D02*
X153Y484D01*
X158Y484D02*
X164Y484D01*
X178Y484D02*
X182Y484D01*
X557Y484D02*
X576Y484D01*
X588Y484D02*
X595Y484D01*
X597Y484D02*
X605Y484D01*
X620Y484D02*
X633Y484D01*
X651Y484D02*
X666Y484D01*
X680Y484D02*
X695Y484D01*
X707Y484D02*
X710Y484D01*
X723Y484D02*
X726Y484D01*
X817Y484D02*
X824Y484D01*
X1Y483D02*
X8Y483D01*
X150Y483D02*
X153Y483D01*
X157Y483D02*
X163Y483D01*
X178Y483D02*
X182Y483D01*
X557Y483D02*
X576Y483D01*
X588Y483D02*
X594Y483D01*
X598Y483D02*
X604Y483D01*
X619Y483D02*
X634Y483D01*
X652Y483D02*
X665Y483D01*
X681Y483D02*
X696Y483D01*
X707Y483D02*
X710Y483D01*
X723Y483D02*
X726Y483D01*
X817Y483D02*
X824Y483D01*
X1Y482D02*
X8Y482D01*
X150Y482D02*
X153Y482D01*
X156Y482D02*
X161Y482D01*
X178Y482D02*
X182Y482D01*
X558Y482D02*
X575Y482D01*
X588Y482D02*
X594Y482D01*
X599Y482D02*
X604Y482D01*
X619Y482D02*
X634Y482D01*
X653Y482D02*
X664Y482D01*
X682Y482D02*
X696Y482D01*
X707Y482D02*
X710Y482D01*
X723Y482D02*
X726Y482D01*
X817Y482D02*
X824Y482D01*
X1Y481D02*
X8Y481D01*
X150Y481D02*
X160Y481D01*
X176Y481D02*
X181Y481D01*
X559Y481D02*
X574Y481D01*
X589Y481D02*
X593Y481D01*
X599Y481D02*
X604Y481D01*
X619Y481D02*
X634Y481D01*
X654Y481D02*
X663Y481D01*
X684Y481D02*
X696Y481D01*
X707Y481D02*
X709Y481D01*
X724Y481D02*
X726Y481D01*
X817Y481D02*
X824Y481D01*
X1Y480D02*
X8Y480D01*
X151Y480D02*
X159Y480D01*
X175Y480D02*
X181Y480D01*
X817Y480D02*
X824Y480D01*
X1Y479D02*
X8Y479D01*
X151Y479D02*
X158Y479D01*
X175Y479D02*
X180Y479D01*
X817Y479D02*
X824Y479D01*
X1Y478D02*
X8Y478D01*
X153Y478D02*
X156Y478D01*
X176Y478D02*
X178Y478D01*
X817Y478D02*
X824Y478D01*
X1Y477D02*
X8Y477D01*
X817Y477D02*
X824Y477D01*
X1Y476D02*
X8Y476D01*
X817Y476D02*
X824Y476D01*
X1Y475D02*
X8Y475D01*
X817Y475D02*
X824Y475D01*
X1Y474D02*
X8Y474D01*
X817Y474D02*
X824Y474D01*
X1Y473D02*
X8Y473D01*
X817Y473D02*
X824Y473D01*
X1Y472D02*
X8Y472D01*
X817Y472D02*
X824Y472D01*
X1Y471D02*
X8Y471D01*
X817Y471D02*
X824Y471D01*
X1Y470D02*
X8Y470D01*
X817Y470D02*
X824Y470D01*
X1Y469D02*
X8Y469D01*
X817Y469D02*
X824Y469D01*
X1Y468D02*
X8Y468D01*
X817Y468D02*
X824Y468D01*
X1Y467D02*
X8Y467D01*
X817Y467D02*
X824Y467D01*
X1Y466D02*
X8Y466D01*
X817Y466D02*
X824Y466D01*
X1Y465D02*
X8Y465D01*
X817Y465D02*
X824Y465D01*
X1Y464D02*
X8Y464D01*
X817Y464D02*
X824Y464D01*
X1Y463D02*
X8Y463D01*
X817Y463D02*
X824Y463D01*
X1Y462D02*
X8Y462D01*
X817Y462D02*
X824Y462D01*
X1Y461D02*
X8Y461D01*
X817Y461D02*
X824Y461D01*
X1Y460D02*
X8Y460D01*
X817Y460D02*
X824Y460D01*
X1Y459D02*
X8Y459D01*
X817Y459D02*
X824Y459D01*
X1Y458D02*
X8Y458D01*
X817Y458D02*
X824Y458D01*
X1Y457D02*
X8Y457D01*
X817Y457D02*
X824Y457D01*
X1Y456D02*
X8Y456D01*
X817Y456D02*
X824Y456D01*
X1Y455D02*
X8Y455D01*
X817Y455D02*
X824Y455D01*
X1Y454D02*
X8Y454D01*
X817Y454D02*
X824Y454D01*
X1Y453D02*
X8Y453D01*
X817Y453D02*
X824Y453D01*
X1Y452D02*
X8Y452D01*
X817Y452D02*
X824Y452D01*
X1Y451D02*
X8Y451D01*
X817Y451D02*
X824Y451D01*
X1Y450D02*
X8Y450D01*
X817Y450D02*
X824Y450D01*
X1Y449D02*
X8Y449D01*
X817Y449D02*
X824Y449D01*
X1Y448D02*
X8Y448D01*
X817Y448D02*
X824Y448D01*
X1Y447D02*
X8Y447D01*
X817Y447D02*
X824Y447D01*
X1Y446D02*
X8Y446D01*
X817Y446D02*
X824Y446D01*
X1Y445D02*
X8Y445D01*
X817Y445D02*
X824Y445D01*
X1Y444D02*
X8Y444D01*
X817Y444D02*
X824Y444D01*
X1Y443D02*
X8Y443D01*
X817Y443D02*
X824Y443D01*
X1Y442D02*
X8Y442D01*
X817Y442D02*
X824Y442D01*
X1Y441D02*
X8Y441D01*
X817Y441D02*
X824Y441D01*
X1Y440D02*
X8Y440D01*
X817Y440D02*
X824Y440D01*
X1Y439D02*
X8Y439D01*
X817Y439D02*
X824Y439D01*
X1Y438D02*
X8Y438D01*
X817Y438D02*
X824Y438D01*
X1Y437D02*
X8Y437D01*
X817Y437D02*
X824Y437D01*
X1Y436D02*
X8Y436D01*
X817Y436D02*
X824Y436D01*
X1Y435D02*
X8Y435D01*
X817Y435D02*
X824Y435D01*
X1Y434D02*
X8Y434D01*
X817Y434D02*
X824Y434D01*
X1Y433D02*
X8Y433D01*
X817Y433D02*
X824Y433D01*
X1Y432D02*
X8Y432D01*
X582Y432D02*
X605Y432D01*
X817Y432D02*
X824Y432D01*
X1Y431D02*
X8Y431D01*
X574Y431D02*
X613Y431D01*
X817Y431D02*
X824Y431D01*
X1Y430D02*
X8Y430D01*
X230Y430D02*
X233Y430D01*
X569Y430D02*
X618Y430D01*
X817Y430D02*
X824Y430D01*
X1Y429D02*
X8Y429D01*
X229Y429D02*
X235Y429D01*
X565Y429D02*
X622Y429D01*
X817Y429D02*
X824Y429D01*
X1Y428D02*
X8Y428D01*
X228Y428D02*
X236Y428D01*
X561Y428D02*
X626Y428D01*
X817Y428D02*
X824Y428D01*
X1Y427D02*
X8Y427D01*
X227Y427D02*
X238Y427D01*
X558Y427D02*
X630Y427D01*
X817Y427D02*
X824Y427D01*
X1Y426D02*
X8Y426D01*
X227Y426D02*
X231Y426D01*
X233Y426D02*
X239Y426D01*
X555Y426D02*
X633Y426D01*
X817Y426D02*
X824Y426D01*
X1Y425D02*
X8Y425D01*
X226Y425D02*
X230Y425D01*
X234Y425D02*
X241Y425D01*
X552Y425D02*
X635Y425D01*
X817Y425D02*
X824Y425D01*
X1Y424D02*
X8Y424D01*
X225Y424D02*
X229Y424D01*
X236Y424D02*
X242Y424D01*
X549Y424D02*
X580Y424D01*
X608Y424D02*
X638Y424D01*
X817Y424D02*
X824Y424D01*
X1Y423D02*
X8Y423D01*
X225Y423D02*
X229Y423D01*
X237Y423D02*
X244Y423D01*
X547Y423D02*
X573Y423D01*
X614Y423D02*
X641Y423D01*
X817Y423D02*
X824Y423D01*
X1Y422D02*
X8Y422D01*
X224Y422D02*
X228Y422D01*
X239Y422D02*
X245Y422D01*
X544Y422D02*
X568Y422D01*
X619Y422D02*
X643Y422D01*
X817Y422D02*
X824Y422D01*
X1Y421D02*
X8Y421D01*
X223Y421D02*
X227Y421D01*
X240Y421D02*
X245Y421D01*
X542Y421D02*
X564Y421D01*
X623Y421D02*
X645Y421D01*
X817Y421D02*
X824Y421D01*
X1Y420D02*
X8Y420D01*
X223Y420D02*
X227Y420D01*
X242Y420D02*
X245Y420D01*
X540Y420D02*
X560Y420D01*
X627Y420D02*
X647Y420D01*
X817Y420D02*
X824Y420D01*
X1Y419D02*
X8Y419D01*
X222Y419D02*
X226Y419D01*
X242Y419D02*
X245Y419D01*
X538Y419D02*
X557Y419D01*
X630Y419D02*
X649Y419D01*
X817Y419D02*
X824Y419D01*
X1Y418D02*
X8Y418D01*
X221Y418D02*
X225Y418D01*
X241Y418D02*
X245Y418D01*
X536Y418D02*
X554Y418D01*
X633Y418D02*
X651Y418D01*
X817Y418D02*
X824Y418D01*
X1Y417D02*
X8Y417D01*
X221Y417D02*
X225Y417D01*
X241Y417D02*
X245Y417D01*
X535Y417D02*
X552Y417D01*
X636Y417D02*
X653Y417D01*
X817Y417D02*
X824Y417D01*
X1Y416D02*
X8Y416D01*
X220Y416D02*
X224Y416D01*
X240Y416D02*
X244Y416D01*
X533Y416D02*
X549Y416D01*
X638Y416D02*
X655Y416D01*
X817Y416D02*
X824Y416D01*
X1Y415D02*
X8Y415D01*
X219Y415D02*
X223Y415D01*
X239Y415D02*
X243Y415D01*
X531Y415D02*
X547Y415D01*
X640Y415D02*
X656Y415D01*
X817Y415D02*
X824Y415D01*
X1Y414D02*
X8Y414D01*
X219Y414D02*
X223Y414D01*
X239Y414D02*
X243Y414D01*
X529Y414D02*
X545Y414D01*
X643Y414D02*
X658Y414D01*
X817Y414D02*
X824Y414D01*
X1Y413D02*
X8Y413D01*
X218Y413D02*
X222Y413D01*
X238Y413D02*
X242Y413D01*
X528Y413D02*
X543Y413D01*
X645Y413D02*
X659Y413D01*
X817Y413D02*
X824Y413D01*
X1Y412D02*
X8Y412D01*
X217Y412D02*
X221Y412D01*
X237Y412D02*
X241Y412D01*
X526Y412D02*
X541Y412D01*
X647Y412D02*
X661Y412D01*
X817Y412D02*
X824Y412D01*
X1Y411D02*
X8Y411D01*
X217Y411D02*
X221Y411D01*
X237Y411D02*
X241Y411D01*
X525Y411D02*
X539Y411D01*
X649Y411D02*
X662Y411D01*
X817Y411D02*
X824Y411D01*
X1Y410D02*
X8Y410D01*
X216Y410D02*
X220Y410D01*
X236Y410D02*
X240Y410D01*
X523Y410D02*
X537Y410D01*
X650Y410D02*
X664Y410D01*
X754Y410D02*
X763Y410D01*
X817Y410D02*
X824Y410D01*
X1Y409D02*
X8Y409D01*
X215Y409D02*
X219Y409D01*
X235Y409D02*
X239Y409D01*
X522Y409D02*
X535Y409D01*
X652Y409D02*
X665Y409D01*
X754Y409D02*
X763Y409D01*
X817Y409D02*
X824Y409D01*
X1Y408D02*
X8Y408D01*
X215Y408D02*
X219Y408D01*
X235Y408D02*
X239Y408D01*
X521Y408D02*
X533Y408D01*
X654Y408D02*
X667Y408D01*
X754Y408D02*
X763Y408D01*
X817Y408D02*
X824Y408D01*
X1Y407D02*
X8Y407D01*
X215Y407D02*
X218Y407D01*
X234Y407D02*
X238Y407D01*
X519Y407D02*
X532Y407D01*
X655Y407D02*
X668Y407D01*
X754Y407D02*
X763Y407D01*
X817Y407D02*
X824Y407D01*
X1Y406D02*
X8Y406D01*
X215Y406D02*
X218Y406D01*
X233Y406D02*
X237Y406D01*
X518Y406D02*
X530Y406D01*
X657Y406D02*
X669Y406D01*
X754Y406D02*
X763Y406D01*
X817Y406D02*
X824Y406D01*
X1Y405D02*
X8Y405D01*
X215Y405D02*
X220Y405D01*
X233Y405D02*
X237Y405D01*
X517Y405D02*
X529Y405D01*
X658Y405D02*
X670Y405D01*
X754Y405D02*
X763Y405D01*
X817Y405D02*
X824Y405D01*
X1Y404D02*
X8Y404D01*
X215Y404D02*
X221Y404D01*
X232Y404D02*
X236Y404D01*
X516Y404D02*
X527Y404D01*
X660Y404D02*
X672Y404D01*
X754Y404D02*
X763Y404D01*
X817Y404D02*
X824Y404D01*
X1Y403D02*
X8Y403D01*
X216Y403D02*
X223Y403D01*
X231Y403D02*
X235Y403D01*
X515Y403D02*
X526Y403D01*
X661Y403D02*
X673Y403D01*
X754Y403D02*
X763Y403D01*
X817Y403D02*
X824Y403D01*
X1Y402D02*
X8Y402D01*
X218Y402D02*
X224Y402D01*
X231Y402D02*
X235Y402D01*
X513Y402D02*
X525Y402D01*
X663Y402D02*
X674Y402D01*
X754Y402D02*
X763Y402D01*
X817Y402D02*
X824Y402D01*
X1Y401D02*
X8Y401D01*
X219Y401D02*
X226Y401D01*
X230Y401D02*
X234Y401D01*
X512Y401D02*
X523Y401D01*
X664Y401D02*
X675Y401D01*
X754Y401D02*
X763Y401D01*
X817Y401D02*
X824Y401D01*
X1Y400D02*
X8Y400D01*
X221Y400D02*
X227Y400D01*
X229Y400D02*
X233Y400D01*
X511Y400D02*
X522Y400D01*
X665Y400D02*
X676Y400D01*
X754Y400D02*
X763Y400D01*
X817Y400D02*
X824Y400D01*
X1Y399D02*
X8Y399D01*
X222Y399D02*
X233Y399D01*
X510Y399D02*
X521Y399D01*
X666Y399D02*
X677Y399D01*
X754Y399D02*
X763Y399D01*
X817Y399D02*
X824Y399D01*
X1Y398D02*
X8Y398D01*
X224Y398D02*
X232Y398D01*
X509Y398D02*
X520Y398D01*
X668Y398D02*
X678Y398D01*
X754Y398D02*
X763Y398D01*
X817Y398D02*
X824Y398D01*
X1Y397D02*
X8Y397D01*
X225Y397D02*
X231Y397D01*
X280Y397D02*
X283Y397D01*
X508Y397D02*
X518Y397D01*
X669Y397D02*
X679Y397D01*
X754Y397D02*
X763Y397D01*
X817Y397D02*
X824Y397D01*
X1Y396D02*
X8Y396D01*
X227Y396D02*
X230Y396D01*
X280Y396D02*
X284Y396D01*
X507Y396D02*
X517Y396D01*
X670Y396D02*
X680Y396D01*
X754Y396D02*
X763Y396D01*
X817Y396D02*
X824Y396D01*
X1Y395D02*
X8Y395D01*
X280Y395D02*
X286Y395D01*
X506Y395D02*
X516Y395D01*
X671Y395D02*
X681Y395D01*
X754Y395D02*
X763Y395D01*
X817Y395D02*
X824Y395D01*
X1Y394D02*
X8Y394D01*
X281Y394D02*
X287Y394D01*
X505Y394D02*
X515Y394D01*
X672Y394D02*
X682Y394D01*
X754Y394D02*
X763Y394D01*
X817Y394D02*
X824Y394D01*
X1Y393D02*
X8Y393D01*
X249Y393D02*
X250Y393D01*
X282Y393D02*
X289Y393D01*
X504Y393D02*
X514Y393D01*
X673Y393D02*
X683Y393D01*
X754Y393D02*
X763Y393D01*
X817Y393D02*
X824Y393D01*
X1Y392D02*
X8Y392D01*
X248Y392D02*
X251Y392D01*
X284Y392D02*
X290Y392D01*
X503Y392D02*
X513Y392D01*
X674Y392D02*
X684Y392D01*
X754Y392D02*
X763Y392D01*
X817Y392D02*
X824Y392D01*
X1Y391D02*
X8Y391D01*
X247Y391D02*
X253Y391D01*
X285Y391D02*
X290Y391D01*
X502Y391D02*
X512Y391D01*
X675Y391D02*
X685Y391D01*
X754Y391D02*
X763Y391D01*
X817Y391D02*
X824Y391D01*
X1Y390D02*
X8Y390D01*
X246Y390D02*
X254Y390D01*
X285Y390D02*
X289Y390D01*
X502Y390D02*
X511Y390D01*
X676Y390D02*
X686Y390D01*
X754Y390D02*
X763Y390D01*
X817Y390D02*
X824Y390D01*
X1Y389D02*
X8Y389D01*
X246Y389D02*
X254Y389D01*
X284Y389D02*
X288Y389D01*
X501Y389D02*
X510Y389D01*
X677Y389D02*
X687Y389D01*
X754Y389D02*
X763Y389D01*
X817Y389D02*
X824Y389D01*
X1Y388D02*
X8Y388D01*
X246Y388D02*
X254Y388D01*
X284Y388D02*
X288Y388D01*
X500Y388D02*
X509Y388D01*
X678Y388D02*
X687Y388D01*
X754Y388D02*
X763Y388D01*
X817Y388D02*
X824Y388D01*
X1Y387D02*
X8Y387D01*
X246Y387D02*
X253Y387D01*
X283Y387D02*
X287Y387D01*
X499Y387D02*
X508Y387D01*
X679Y387D02*
X688Y387D01*
X754Y387D02*
X763Y387D01*
X817Y387D02*
X824Y387D01*
X1Y386D02*
X8Y386D01*
X247Y386D02*
X253Y386D01*
X282Y386D02*
X286Y386D01*
X498Y386D02*
X507Y386D01*
X680Y386D02*
X689Y386D01*
X754Y386D02*
X763Y386D01*
X817Y386D02*
X824Y386D01*
X1Y385D02*
X8Y385D01*
X249Y385D02*
X252Y385D01*
X282Y385D02*
X286Y385D01*
X497Y385D02*
X507Y385D01*
X681Y385D02*
X690Y385D01*
X754Y385D02*
X763Y385D01*
X817Y385D02*
X824Y385D01*
X1Y384D02*
X8Y384D01*
X251Y384D02*
X251Y384D01*
X281Y384D02*
X285Y384D01*
X497Y384D02*
X506Y384D01*
X682Y384D02*
X691Y384D01*
X754Y384D02*
X763Y384D01*
X817Y384D02*
X824Y384D01*
X1Y383D02*
X8Y383D01*
X280Y383D02*
X284Y383D01*
X496Y383D02*
X505Y383D01*
X682Y383D02*
X691Y383D01*
X754Y383D02*
X763Y383D01*
X817Y383D02*
X824Y383D01*
X1Y382D02*
X8Y382D01*
X280Y382D02*
X284Y382D01*
X496Y382D02*
X504Y382D01*
X683Y382D02*
X692Y382D01*
X754Y382D02*
X763Y382D01*
X817Y382D02*
X824Y382D01*
X1Y381D02*
X8Y381D01*
X279Y381D02*
X283Y381D01*
X496Y381D02*
X503Y381D01*
X684Y381D02*
X693Y381D01*
X754Y381D02*
X763Y381D01*
X817Y381D02*
X824Y381D01*
X1Y380D02*
X8Y380D01*
X278Y380D02*
X282Y380D01*
X496Y380D02*
X503Y380D01*
X685Y380D02*
X693Y380D01*
X754Y380D02*
X763Y380D01*
X817Y380D02*
X824Y380D01*
X1Y379D02*
X8Y379D01*
X278Y379D02*
X282Y379D01*
X496Y379D02*
X503Y379D01*
X686Y379D02*
X694Y379D01*
X754Y379D02*
X763Y379D01*
X817Y379D02*
X824Y379D01*
X1Y378D02*
X8Y378D01*
X277Y378D02*
X281Y378D01*
X496Y378D02*
X503Y378D01*
X686Y378D02*
X695Y378D01*
X817Y378D02*
X824Y378D01*
X1Y377D02*
X8Y377D01*
X276Y377D02*
X280Y377D01*
X496Y377D02*
X503Y377D01*
X687Y377D02*
X695Y377D01*
X817Y377D02*
X824Y377D01*
X1Y376D02*
X8Y376D01*
X276Y376D02*
X280Y376D01*
X496Y376D02*
X503Y376D01*
X688Y376D02*
X696Y376D01*
X817Y376D02*
X824Y376D01*
X1Y375D02*
X8Y375D01*
X275Y375D02*
X279Y375D01*
X496Y375D02*
X503Y375D01*
X688Y375D02*
X697Y375D01*
X817Y375D02*
X824Y375D01*
X1Y374D02*
X8Y374D01*
X265Y374D02*
X266Y374D01*
X274Y374D02*
X278Y374D01*
X496Y374D02*
X503Y374D01*
X689Y374D02*
X697Y374D01*
X817Y374D02*
X824Y374D01*
X1Y373D02*
X8Y373D01*
X264Y373D02*
X268Y373D01*
X274Y373D02*
X278Y373D01*
X496Y373D02*
X503Y373D01*
X690Y373D02*
X698Y373D01*
X817Y373D02*
X824Y373D01*
X1Y372D02*
X8Y372D01*
X264Y372D02*
X269Y372D01*
X273Y372D02*
X277Y372D01*
X283Y372D02*
X284Y372D01*
X496Y372D02*
X503Y372D01*
X690Y372D02*
X699Y372D01*
X817Y372D02*
X824Y372D01*
X1Y371D02*
X8Y371D01*
X264Y371D02*
X276Y371D01*
X282Y371D02*
X285Y371D01*
X496Y371D02*
X503Y371D01*
X691Y371D02*
X699Y371D01*
X817Y371D02*
X824Y371D01*
X1Y370D02*
X8Y370D01*
X266Y370D02*
X276Y370D01*
X282Y370D02*
X285Y370D01*
X300Y370D02*
X302Y370D01*
X496Y370D02*
X503Y370D01*
X692Y370D02*
X700Y370D01*
X817Y370D02*
X824Y370D01*
X1Y369D02*
X8Y369D01*
X267Y369D02*
X275Y369D01*
X281Y369D02*
X285Y369D01*
X299Y369D02*
X302Y369D01*
X496Y369D02*
X503Y369D01*
X692Y369D02*
X700Y369D01*
X817Y369D02*
X824Y369D01*
X1Y368D02*
X8Y368D01*
X269Y368D02*
X275Y368D01*
X280Y368D02*
X284Y368D01*
X298Y368D02*
X302Y368D01*
X496Y368D02*
X503Y368D01*
X693Y368D02*
X701Y368D01*
X817Y368D02*
X824Y368D01*
X1Y367D02*
X8Y367D01*
X270Y367D02*
X277Y367D01*
X280Y367D02*
X284Y367D01*
X297Y367D02*
X302Y367D01*
X496Y367D02*
X503Y367D01*
X693Y367D02*
X701Y367D01*
X817Y367D02*
X824Y367D01*
X1Y366D02*
X8Y366D01*
X272Y366D02*
X283Y366D01*
X297Y366D02*
X301Y366D01*
X496Y366D02*
X503Y366D01*
X694Y366D02*
X702Y366D01*
X817Y366D02*
X824Y366D01*
X1Y365D02*
X8Y365D01*
X273Y365D02*
X282Y365D01*
X296Y365D02*
X300Y365D01*
X496Y365D02*
X503Y365D01*
X695Y365D02*
X702Y365D01*
X774Y365D02*
X776Y365D01*
X817Y365D02*
X824Y365D01*
X1Y364D02*
X8Y364D01*
X274Y364D02*
X282Y364D01*
X295Y364D02*
X300Y364D01*
X330Y364D02*
X332Y364D01*
X496Y364D02*
X503Y364D01*
X695Y364D02*
X703Y364D01*
X761Y364D02*
X762Y364D01*
X774Y364D02*
X777Y364D01*
X817Y364D02*
X824Y364D01*
X1Y363D02*
X8Y363D01*
X276Y363D02*
X281Y363D01*
X295Y363D02*
X299Y363D01*
X330Y363D02*
X333Y363D01*
X496Y363D02*
X503Y363D01*
X696Y363D02*
X703Y363D01*
X758Y363D02*
X765Y363D01*
X774Y363D02*
X777Y363D01*
X817Y363D02*
X824Y363D01*
X1Y362D02*
X8Y362D01*
X277Y362D02*
X280Y362D01*
X294Y362D02*
X298Y362D01*
X311Y362D02*
X313Y362D01*
X329Y362D02*
X335Y362D01*
X496Y362D02*
X503Y362D01*
X696Y362D02*
X704Y362D01*
X756Y362D02*
X767Y362D01*
X774Y362D02*
X777Y362D01*
X817Y362D02*
X824Y362D01*
X1Y361D02*
X8Y361D01*
X293Y361D02*
X298Y361D01*
X310Y361D02*
X314Y361D01*
X328Y361D02*
X336Y361D01*
X496Y361D02*
X503Y361D01*
X697Y361D02*
X704Y361D01*
X754Y361D02*
X769Y361D01*
X774Y361D02*
X777Y361D01*
X817Y361D02*
X824Y361D01*
X1Y360D02*
X8Y360D01*
X293Y360D02*
X297Y360D01*
X310Y360D02*
X314Y360D01*
X328Y360D02*
X338Y360D01*
X496Y360D02*
X503Y360D01*
X697Y360D02*
X705Y360D01*
X752Y360D02*
X771Y360D01*
X774Y360D02*
X777Y360D01*
X817Y360D02*
X824Y360D01*
X1Y359D02*
X8Y359D01*
X292Y359D02*
X296Y359D01*
X309Y359D02*
X313Y359D01*
X327Y359D02*
X331Y359D01*
X333Y359D02*
X339Y359D01*
X496Y359D02*
X503Y359D01*
X698Y359D02*
X705Y359D01*
X750Y359D02*
X758Y359D01*
X765Y359D02*
X777Y359D01*
X817Y359D02*
X824Y359D01*
X1Y358D02*
X8Y358D01*
X291Y358D02*
X295Y358D01*
X308Y358D02*
X312Y358D01*
X326Y358D02*
X330Y358D01*
X334Y358D02*
X341Y358D01*
X496Y358D02*
X503Y358D01*
X698Y358D02*
X705Y358D01*
X749Y358D02*
X756Y358D01*
X767Y358D02*
X777Y358D01*
X817Y358D02*
X824Y358D01*
X1Y357D02*
X8Y357D01*
X291Y357D02*
X295Y357D01*
X308Y357D02*
X312Y357D01*
X326Y357D02*
X330Y357D01*
X336Y357D02*
X342Y357D01*
X496Y357D02*
X503Y357D01*
X698Y357D02*
X706Y357D01*
X747Y357D02*
X755Y357D01*
X769Y357D02*
X777Y357D01*
X817Y357D02*
X824Y357D01*
X1Y356D02*
X8Y356D01*
X290Y356D02*
X295Y356D01*
X307Y356D02*
X311Y356D01*
X325Y356D02*
X329Y356D01*
X337Y356D02*
X344Y356D01*
X496Y356D02*
X503Y356D01*
X699Y356D02*
X706Y356D01*
X746Y356D02*
X753Y356D01*
X771Y356D02*
X777Y356D01*
X817Y356D02*
X824Y356D01*
X1Y355D02*
X8Y355D01*
X289Y355D02*
X295Y355D01*
X306Y355D02*
X310Y355D01*
X324Y355D02*
X328Y355D01*
X339Y355D02*
X345Y355D01*
X496Y355D02*
X503Y355D01*
X699Y355D02*
X707Y355D01*
X746Y355D02*
X751Y355D01*
X773Y355D02*
X777Y355D01*
X817Y355D02*
X824Y355D01*
X1Y354D02*
X8Y354D01*
X289Y354D02*
X296Y354D01*
X306Y354D02*
X310Y354D01*
X323Y354D02*
X328Y354D01*
X340Y354D02*
X346Y354D01*
X496Y354D02*
X503Y354D01*
X700Y354D02*
X707Y354D01*
X745Y354D02*
X749Y354D01*
X774Y354D02*
X777Y354D01*
X817Y354D02*
X824Y354D01*
X1Y353D02*
X8Y353D01*
X288Y353D02*
X296Y353D01*
X305Y353D02*
X309Y353D01*
X323Y353D02*
X329Y353D01*
X342Y353D02*
X346Y353D01*
X496Y353D02*
X503Y353D01*
X700Y353D02*
X707Y353D01*
X745Y353D02*
X749Y353D01*
X817Y353D02*
X824Y353D01*
X1Y352D02*
X8Y352D01*
X287Y352D02*
X296Y352D01*
X304Y352D02*
X308Y352D01*
X322Y352D02*
X331Y352D01*
X343Y352D02*
X346Y352D01*
X496Y352D02*
X503Y352D01*
X701Y352D02*
X708Y352D01*
X745Y352D02*
X749Y352D01*
X775Y352D02*
X777Y352D01*
X817Y352D02*
X824Y352D01*
X1Y351D02*
X8Y351D01*
X287Y351D02*
X291Y351D01*
X293Y351D02*
X297Y351D01*
X304Y351D02*
X308Y351D01*
X321Y351D02*
X332Y351D01*
X496Y351D02*
X503Y351D01*
X701Y351D02*
X708Y351D01*
X746Y351D02*
X750Y351D01*
X773Y351D02*
X777Y351D01*
X817Y351D02*
X824Y351D01*
X1Y350D02*
X8Y350D01*
X286Y350D02*
X290Y350D01*
X294Y350D02*
X297Y350D01*
X303Y350D02*
X307Y350D01*
X321Y350D02*
X325Y350D01*
X327Y350D02*
X334Y350D01*
X496Y350D02*
X503Y350D01*
X701Y350D02*
X709Y350D01*
X746Y350D02*
X752Y350D01*
X771Y350D02*
X777Y350D01*
X817Y350D02*
X824Y350D01*
X1Y349D02*
X8Y349D01*
X285Y349D02*
X289Y349D01*
X294Y349D02*
X298Y349D01*
X302Y349D02*
X306Y349D01*
X320Y349D02*
X324Y349D01*
X329Y349D02*
X335Y349D01*
X496Y349D02*
X503Y349D01*
X702Y349D02*
X709Y349D01*
X747Y349D02*
X754Y349D01*
X769Y349D02*
X777Y349D01*
X817Y349D02*
X824Y349D01*
X1Y348D02*
X8Y348D01*
X285Y348D02*
X289Y348D01*
X294Y348D02*
X306Y348D01*
X319Y348D02*
X324Y348D01*
X330Y348D02*
X336Y348D01*
X496Y348D02*
X503Y348D01*
X702Y348D02*
X709Y348D01*
X748Y348D02*
X756Y348D01*
X768Y348D02*
X777Y348D01*
X817Y348D02*
X824Y348D01*
X1Y347D02*
X8Y347D01*
X284Y347D02*
X288Y347D01*
X295Y347D02*
X305Y347D01*
X319Y347D02*
X323Y347D01*
X331Y347D02*
X337Y347D01*
X496Y347D02*
X503Y347D01*
X702Y347D02*
X710Y347D01*
X750Y347D02*
X758Y347D01*
X766Y347D02*
X777Y347D01*
X817Y347D02*
X824Y347D01*
X1Y346D02*
X8Y346D01*
X284Y346D02*
X287Y346D01*
X297Y346D02*
X304Y346D01*
X318Y346D02*
X322Y346D01*
X333Y346D02*
X337Y346D01*
X496Y346D02*
X503Y346D01*
X703Y346D02*
X710Y346D01*
X752Y346D02*
X760Y346D01*
X764Y346D02*
X777Y346D01*
X817Y346D02*
X824Y346D01*
X1Y345D02*
X8Y345D01*
X284Y345D02*
X287Y345D01*
X299Y345D02*
X304Y345D01*
X317Y345D02*
X322Y345D01*
X334Y345D02*
X336Y345D01*
X496Y345D02*
X503Y345D01*
X703Y345D02*
X710Y345D01*
X754Y345D02*
X770Y345D01*
X774Y345D02*
X777Y345D01*
X817Y345D02*
X824Y345D01*
X1Y344D02*
X8Y344D01*
X299Y344D02*
X303Y344D01*
X317Y344D02*
X321Y344D01*
X496Y344D02*
X503Y344D01*
X703Y344D02*
X710Y344D01*
X755Y344D02*
X768Y344D01*
X774Y344D02*
X777Y344D01*
X817Y344D02*
X824Y344D01*
X1Y343D02*
X8Y343D01*
X299Y343D02*
X302Y343D01*
X316Y343D02*
X320Y343D01*
X496Y343D02*
X503Y343D01*
X704Y343D02*
X711Y343D01*
X757Y343D02*
X766Y343D01*
X774Y343D02*
X777Y343D01*
X817Y343D02*
X824Y343D01*
X1Y342D02*
X8Y342D01*
X299Y342D02*
X302Y342D01*
X315Y342D02*
X320Y342D01*
X496Y342D02*
X503Y342D01*
X704Y342D02*
X711Y342D01*
X760Y342D02*
X764Y342D01*
X774Y342D02*
X777Y342D01*
X817Y342D02*
X824Y342D01*
X1Y341D02*
X8Y341D01*
X315Y341D02*
X319Y341D01*
X496Y341D02*
X503Y341D01*
X704Y341D02*
X711Y341D01*
X774Y341D02*
X776Y341D01*
X817Y341D02*
X824Y341D01*
X1Y340D02*
X8Y340D01*
X314Y340D02*
X318Y340D01*
X496Y340D02*
X503Y340D01*
X704Y340D02*
X711Y340D01*
X775Y340D02*
X775Y340D01*
X817Y340D02*
X824Y340D01*
X1Y339D02*
X8Y339D01*
X314Y339D02*
X317Y339D01*
X496Y339D02*
X503Y339D01*
X705Y339D02*
X712Y339D01*
X817Y339D02*
X824Y339D01*
X1Y338D02*
X8Y338D01*
X314Y338D02*
X317Y338D01*
X496Y338D02*
X503Y338D01*
X705Y338D02*
X712Y338D01*
X817Y338D02*
X824Y338D01*
X1Y337D02*
X8Y337D01*
X315Y337D02*
X316Y337D01*
X496Y337D02*
X503Y337D01*
X705Y337D02*
X712Y337D01*
X817Y337D02*
X824Y337D01*
X1Y336D02*
X8Y336D01*
X496Y336D02*
X503Y336D01*
X705Y336D02*
X712Y336D01*
X817Y336D02*
X824Y336D01*
X1Y335D02*
X8Y335D01*
X496Y335D02*
X503Y335D01*
X706Y335D02*
X713Y335D01*
X817Y335D02*
X824Y335D01*
X1Y334D02*
X8Y334D01*
X496Y334D02*
X503Y334D01*
X706Y334D02*
X713Y334D01*
X817Y334D02*
X824Y334D01*
X1Y333D02*
X8Y333D01*
X496Y333D02*
X503Y333D01*
X706Y333D02*
X713Y333D01*
X749Y333D02*
X773Y333D01*
X817Y333D02*
X824Y333D01*
X1Y332D02*
X8Y332D01*
X496Y332D02*
X503Y332D01*
X706Y332D02*
X713Y332D01*
X747Y332D02*
X775Y332D01*
X817Y332D02*
X824Y332D01*
X1Y331D02*
X8Y331D01*
X496Y331D02*
X503Y331D01*
X706Y331D02*
X713Y331D01*
X746Y331D02*
X776Y331D01*
X817Y331D02*
X824Y331D01*
X1Y330D02*
X8Y330D01*
X496Y330D02*
X503Y330D01*
X707Y330D02*
X714Y330D01*
X745Y330D02*
X777Y330D01*
X817Y330D02*
X824Y330D01*
X1Y329D02*
X8Y329D01*
X496Y329D02*
X503Y329D01*
X707Y329D02*
X714Y329D01*
X745Y329D02*
X777Y329D01*
X817Y329D02*
X824Y329D01*
X1Y328D02*
X8Y328D01*
X496Y328D02*
X503Y328D01*
X707Y328D02*
X714Y328D01*
X745Y328D02*
X748Y328D01*
X774Y328D02*
X777Y328D01*
X817Y328D02*
X824Y328D01*
X1Y327D02*
X8Y327D01*
X496Y327D02*
X503Y327D01*
X707Y327D02*
X714Y327D01*
X745Y327D02*
X748Y327D01*
X774Y327D02*
X777Y327D01*
X817Y327D02*
X824Y327D01*
X1Y326D02*
X8Y326D01*
X496Y326D02*
X503Y326D01*
X707Y326D02*
X714Y326D01*
X745Y326D02*
X748Y326D01*
X774Y326D02*
X777Y326D01*
X817Y326D02*
X824Y326D01*
X1Y325D02*
X8Y325D01*
X496Y325D02*
X503Y325D01*
X707Y325D02*
X714Y325D01*
X745Y325D02*
X748Y325D01*
X774Y325D02*
X777Y325D01*
X817Y325D02*
X824Y325D01*
X1Y324D02*
X8Y324D01*
X496Y324D02*
X503Y324D01*
X707Y324D02*
X714Y324D01*
X745Y324D02*
X748Y324D01*
X774Y324D02*
X777Y324D01*
X817Y324D02*
X824Y324D01*
X1Y323D02*
X8Y323D01*
X496Y323D02*
X503Y323D01*
X708Y323D02*
X714Y323D01*
X745Y323D02*
X748Y323D01*
X774Y323D02*
X777Y323D01*
X817Y323D02*
X824Y323D01*
X1Y322D02*
X8Y322D01*
X496Y322D02*
X503Y322D01*
X708Y322D02*
X715Y322D01*
X745Y322D02*
X748Y322D01*
X774Y322D02*
X777Y322D01*
X817Y322D02*
X824Y322D01*
X1Y321D02*
X8Y321D01*
X496Y321D02*
X503Y321D01*
X708Y321D02*
X715Y321D01*
X745Y321D02*
X748Y321D01*
X774Y321D02*
X777Y321D01*
X817Y321D02*
X824Y321D01*
X1Y320D02*
X8Y320D01*
X496Y320D02*
X503Y320D01*
X708Y320D02*
X715Y320D01*
X745Y320D02*
X748Y320D01*
X774Y320D02*
X777Y320D01*
X817Y320D02*
X824Y320D01*
X1Y319D02*
X8Y319D01*
X496Y319D02*
X503Y319D01*
X708Y319D02*
X715Y319D01*
X745Y319D02*
X748Y319D01*
X774Y319D02*
X777Y319D01*
X817Y319D02*
X824Y319D01*
X1Y318D02*
X8Y318D01*
X496Y318D02*
X503Y318D01*
X708Y318D02*
X715Y318D01*
X745Y318D02*
X748Y318D01*
X774Y318D02*
X777Y318D01*
X817Y318D02*
X824Y318D01*
X1Y317D02*
X8Y317D01*
X496Y317D02*
X503Y317D01*
X708Y317D02*
X715Y317D01*
X745Y317D02*
X749Y317D01*
X774Y317D02*
X777Y317D01*
X817Y317D02*
X824Y317D01*
X1Y316D02*
X8Y316D01*
X496Y316D02*
X503Y316D01*
X708Y316D02*
X715Y316D01*
X745Y316D02*
X777Y316D01*
X817Y316D02*
X824Y316D01*
X1Y315D02*
X8Y315D01*
X496Y315D02*
X503Y315D01*
X708Y315D02*
X715Y315D01*
X746Y315D02*
X776Y315D01*
X817Y315D02*
X824Y315D01*
X1Y314D02*
X8Y314D01*
X496Y314D02*
X503Y314D01*
X708Y314D02*
X715Y314D01*
X746Y314D02*
X776Y314D01*
X817Y314D02*
X824Y314D01*
X1Y313D02*
X8Y313D01*
X496Y313D02*
X503Y313D01*
X708Y313D02*
X715Y313D01*
X747Y313D02*
X775Y313D01*
X817Y313D02*
X824Y313D01*
X1Y312D02*
X8Y312D01*
X496Y312D02*
X503Y312D01*
X708Y312D02*
X715Y312D01*
X817Y312D02*
X824Y312D01*
X1Y311D02*
X8Y311D01*
X496Y311D02*
X503Y311D01*
X708Y311D02*
X715Y311D01*
X817Y311D02*
X824Y311D01*
X1Y310D02*
X8Y310D01*
X496Y310D02*
X503Y310D01*
X708Y310D02*
X715Y310D01*
X817Y310D02*
X824Y310D01*
X1Y309D02*
X8Y309D01*
X496Y309D02*
X503Y309D01*
X708Y309D02*
X715Y309D01*
X817Y309D02*
X824Y309D01*
X1Y308D02*
X8Y308D01*
X496Y308D02*
X503Y308D01*
X708Y308D02*
X715Y308D01*
X817Y308D02*
X824Y308D01*
X1Y307D02*
X8Y307D01*
X496Y307D02*
X503Y307D01*
X708Y307D02*
X715Y307D01*
X817Y307D02*
X824Y307D01*
X1Y306D02*
X8Y306D01*
X496Y306D02*
X503Y306D01*
X708Y306D02*
X715Y306D01*
X817Y306D02*
X824Y306D01*
X1Y305D02*
X8Y305D01*
X496Y305D02*
X503Y305D01*
X708Y305D02*
X715Y305D01*
X817Y305D02*
X824Y305D01*
X1Y304D02*
X8Y304D01*
X496Y304D02*
X503Y304D01*
X708Y304D02*
X715Y304D01*
X817Y304D02*
X824Y304D01*
X1Y303D02*
X8Y303D01*
X496Y303D02*
X503Y303D01*
X708Y303D02*
X715Y303D01*
X749Y303D02*
X758Y303D01*
X817Y303D02*
X824Y303D01*
X1Y302D02*
X8Y302D01*
X496Y302D02*
X503Y302D01*
X708Y302D02*
X715Y302D01*
X747Y302D02*
X761Y302D01*
X774Y302D02*
X776Y302D01*
X817Y302D02*
X824Y302D01*
X1Y301D02*
X8Y301D01*
X496Y301D02*
X503Y301D01*
X708Y301D02*
X715Y301D01*
X746Y301D02*
X762Y301D01*
X774Y301D02*
X777Y301D01*
X817Y301D02*
X824Y301D01*
X1Y300D02*
X8Y300D01*
X496Y300D02*
X503Y300D01*
X708Y300D02*
X715Y300D01*
X746Y300D02*
X762Y300D01*
X774Y300D02*
X777Y300D01*
X817Y300D02*
X824Y300D01*
X1Y299D02*
X8Y299D01*
X496Y299D02*
X503Y299D01*
X708Y299D02*
X715Y299D01*
X745Y299D02*
X763Y299D01*
X774Y299D02*
X777Y299D01*
X817Y299D02*
X824Y299D01*
X1Y298D02*
X8Y298D01*
X496Y298D02*
X503Y298D01*
X708Y298D02*
X714Y298D01*
X745Y298D02*
X748Y298D01*
X759Y298D02*
X763Y298D01*
X774Y298D02*
X777Y298D01*
X817Y298D02*
X824Y298D01*
X1Y297D02*
X8Y297D01*
X496Y297D02*
X503Y297D01*
X707Y297D02*
X714Y297D01*
X745Y297D02*
X748Y297D01*
X759Y297D02*
X763Y297D01*
X774Y297D02*
X777Y297D01*
X817Y297D02*
X824Y297D01*
X1Y296D02*
X8Y296D01*
X496Y296D02*
X503Y296D01*
X707Y296D02*
X714Y296D01*
X745Y296D02*
X748Y296D01*
X759Y296D02*
X763Y296D01*
X774Y296D02*
X777Y296D01*
X817Y296D02*
X824Y296D01*
X1Y295D02*
X8Y295D01*
X496Y295D02*
X503Y295D01*
X707Y295D02*
X714Y295D01*
X745Y295D02*
X748Y295D01*
X759Y295D02*
X763Y295D01*
X774Y295D02*
X777Y295D01*
X817Y295D02*
X824Y295D01*
X1Y294D02*
X8Y294D01*
X496Y294D02*
X503Y294D01*
X707Y294D02*
X714Y294D01*
X745Y294D02*
X748Y294D01*
X759Y294D02*
X763Y294D01*
X774Y294D02*
X777Y294D01*
X817Y294D02*
X824Y294D01*
X1Y293D02*
X8Y293D01*
X496Y293D02*
X503Y293D01*
X707Y293D02*
X714Y293D01*
X745Y293D02*
X748Y293D01*
X759Y293D02*
X763Y293D01*
X774Y293D02*
X777Y293D01*
X817Y293D02*
X824Y293D01*
X1Y292D02*
X8Y292D01*
X496Y292D02*
X503Y292D01*
X707Y292D02*
X714Y292D01*
X745Y292D02*
X748Y292D01*
X759Y292D02*
X763Y292D01*
X774Y292D02*
X777Y292D01*
X817Y292D02*
X824Y292D01*
X1Y291D02*
X8Y291D01*
X496Y291D02*
X503Y291D01*
X707Y291D02*
X713Y291D01*
X745Y291D02*
X748Y291D01*
X759Y291D02*
X763Y291D01*
X774Y291D02*
X777Y291D01*
X817Y291D02*
X824Y291D01*
X1Y290D02*
X8Y290D01*
X496Y290D02*
X503Y290D01*
X706Y290D02*
X713Y290D01*
X745Y290D02*
X748Y290D01*
X759Y290D02*
X763Y290D01*
X774Y290D02*
X777Y290D01*
X817Y290D02*
X824Y290D01*
X1Y289D02*
X8Y289D01*
X496Y289D02*
X503Y289D01*
X706Y289D02*
X713Y289D01*
X745Y289D02*
X748Y289D01*
X759Y289D02*
X763Y289D01*
X774Y289D02*
X777Y289D01*
X817Y289D02*
X824Y289D01*
X1Y288D02*
X8Y288D01*
X496Y288D02*
X503Y288D01*
X706Y288D02*
X713Y288D01*
X745Y288D02*
X748Y288D01*
X759Y288D02*
X763Y288D01*
X774Y288D02*
X777Y288D01*
X817Y288D02*
X824Y288D01*
X1Y287D02*
X8Y287D01*
X496Y287D02*
X503Y287D01*
X706Y287D02*
X713Y287D01*
X745Y287D02*
X748Y287D01*
X759Y287D02*
X763Y287D01*
X774Y287D02*
X777Y287D01*
X817Y287D02*
X824Y287D01*
X1Y286D02*
X8Y286D01*
X496Y286D02*
X503Y286D01*
X706Y286D02*
X713Y286D01*
X745Y286D02*
X748Y286D01*
X760Y286D02*
X777Y286D01*
X817Y286D02*
X824Y286D01*
X1Y285D02*
X8Y285D01*
X496Y285D02*
X503Y285D01*
X705Y285D02*
X712Y285D01*
X745Y285D02*
X748Y285D01*
X760Y285D02*
X777Y285D01*
X817Y285D02*
X824Y285D01*
X1Y284D02*
X8Y284D01*
X496Y284D02*
X503Y284D01*
X705Y284D02*
X712Y284D01*
X745Y284D02*
X748Y284D01*
X760Y284D02*
X777Y284D01*
X817Y284D02*
X824Y284D01*
X1Y283D02*
X8Y283D01*
X496Y283D02*
X503Y283D01*
X705Y283D02*
X712Y283D01*
X746Y283D02*
X748Y283D01*
X761Y283D02*
X777Y283D01*
X817Y283D02*
X824Y283D01*
X1Y282D02*
X8Y282D01*
X496Y282D02*
X503Y282D01*
X705Y282D02*
X712Y282D01*
X817Y282D02*
X824Y282D01*
X1Y281D02*
X8Y281D01*
X496Y281D02*
X503Y281D01*
X704Y281D02*
X711Y281D01*
X817Y281D02*
X824Y281D01*
X1Y280D02*
X8Y280D01*
X496Y280D02*
X503Y280D01*
X704Y280D02*
X711Y280D01*
X817Y280D02*
X824Y280D01*
X1Y279D02*
X8Y279D01*
X496Y279D02*
X503Y279D01*
X704Y279D02*
X711Y279D01*
X817Y279D02*
X824Y279D01*
X1Y278D02*
X8Y278D01*
X496Y278D02*
X503Y278D01*
X704Y278D02*
X711Y278D01*
X817Y278D02*
X824Y278D01*
X1Y277D02*
X8Y277D01*
X496Y277D02*
X503Y277D01*
X703Y277D02*
X710Y277D01*
X817Y277D02*
X824Y277D01*
X1Y276D02*
X8Y276D01*
X496Y276D02*
X503Y276D01*
X703Y276D02*
X710Y276D01*
X817Y276D02*
X824Y276D01*
X1Y275D02*
X8Y275D01*
X496Y275D02*
X503Y275D01*
X703Y275D02*
X710Y275D01*
X817Y275D02*
X824Y275D01*
X1Y274D02*
X8Y274D01*
X496Y274D02*
X503Y274D01*
X702Y274D02*
X709Y274D01*
X817Y274D02*
X824Y274D01*
X1Y273D02*
X8Y273D01*
X496Y273D02*
X503Y273D01*
X702Y273D02*
X709Y273D01*
X817Y273D02*
X824Y273D01*
X1Y272D02*
X8Y272D01*
X496Y272D02*
X503Y272D01*
X702Y272D02*
X709Y272D01*
X747Y272D02*
X761Y272D01*
X774Y272D02*
X776Y272D01*
X817Y272D02*
X824Y272D01*
X1Y271D02*
X8Y271D01*
X496Y271D02*
X503Y271D01*
X701Y271D02*
X708Y271D01*
X746Y271D02*
X762Y271D01*
X774Y271D02*
X777Y271D01*
X817Y271D02*
X824Y271D01*
X1Y270D02*
X8Y270D01*
X496Y270D02*
X503Y270D01*
X701Y270D02*
X708Y270D01*
X746Y270D02*
X762Y270D01*
X774Y270D02*
X777Y270D01*
X817Y270D02*
X824Y270D01*
X1Y269D02*
X8Y269D01*
X496Y269D02*
X503Y269D01*
X700Y269D02*
X708Y269D01*
X745Y269D02*
X763Y269D01*
X774Y269D02*
X777Y269D01*
X817Y269D02*
X824Y269D01*
X1Y268D02*
X8Y268D01*
X496Y268D02*
X503Y268D01*
X700Y268D02*
X707Y268D01*
X745Y268D02*
X748Y268D01*
X759Y268D02*
X763Y268D01*
X774Y268D02*
X777Y268D01*
X817Y268D02*
X824Y268D01*
X1Y267D02*
X8Y267D01*
X496Y267D02*
X503Y267D01*
X700Y267D02*
X707Y267D01*
X745Y267D02*
X748Y267D01*
X759Y267D02*
X763Y267D01*
X774Y267D02*
X777Y267D01*
X817Y267D02*
X824Y267D01*
X1Y266D02*
X8Y266D01*
X496Y266D02*
X503Y266D01*
X699Y266D02*
X707Y266D01*
X745Y266D02*
X748Y266D01*
X759Y266D02*
X763Y266D01*
X774Y266D02*
X777Y266D01*
X817Y266D02*
X824Y266D01*
X1Y265D02*
X8Y265D01*
X496Y265D02*
X503Y265D01*
X699Y265D02*
X706Y265D01*
X745Y265D02*
X748Y265D01*
X759Y265D02*
X763Y265D01*
X774Y265D02*
X777Y265D01*
X817Y265D02*
X824Y265D01*
X1Y264D02*
X8Y264D01*
X496Y264D02*
X503Y264D01*
X698Y264D02*
X706Y264D01*
X745Y264D02*
X748Y264D01*
X759Y264D02*
X763Y264D01*
X774Y264D02*
X777Y264D01*
X817Y264D02*
X824Y264D01*
X1Y263D02*
X8Y263D01*
X496Y263D02*
X503Y263D01*
X698Y263D02*
X705Y263D01*
X745Y263D02*
X748Y263D01*
X759Y263D02*
X763Y263D01*
X774Y263D02*
X777Y263D01*
X817Y263D02*
X824Y263D01*
X1Y262D02*
X8Y262D01*
X496Y262D02*
X503Y262D01*
X697Y262D02*
X705Y262D01*
X745Y262D02*
X748Y262D01*
X759Y262D02*
X763Y262D01*
X774Y262D02*
X777Y262D01*
X817Y262D02*
X824Y262D01*
X1Y261D02*
X8Y261D01*
X496Y261D02*
X503Y261D01*
X697Y261D02*
X704Y261D01*
X745Y261D02*
X748Y261D01*
X759Y261D02*
X763Y261D01*
X774Y261D02*
X777Y261D01*
X817Y261D02*
X824Y261D01*
X1Y260D02*
X8Y260D01*
X496Y260D02*
X503Y260D01*
X696Y260D02*
X704Y260D01*
X745Y260D02*
X748Y260D01*
X759Y260D02*
X763Y260D01*
X774Y260D02*
X777Y260D01*
X817Y260D02*
X824Y260D01*
X1Y259D02*
X8Y259D01*
X496Y259D02*
X503Y259D01*
X696Y259D02*
X704Y259D01*
X745Y259D02*
X748Y259D01*
X759Y259D02*
X763Y259D01*
X774Y259D02*
X777Y259D01*
X817Y259D02*
X824Y259D01*
X1Y258D02*
X8Y258D01*
X496Y258D02*
X503Y258D01*
X695Y258D02*
X703Y258D01*
X745Y258D02*
X748Y258D01*
X759Y258D02*
X763Y258D01*
X774Y258D02*
X777Y258D01*
X817Y258D02*
X824Y258D01*
X1Y257D02*
X8Y257D01*
X496Y257D02*
X503Y257D01*
X695Y257D02*
X703Y257D01*
X745Y257D02*
X748Y257D01*
X759Y257D02*
X763Y257D01*
X774Y257D02*
X777Y257D01*
X817Y257D02*
X824Y257D01*
X1Y256D02*
X8Y256D01*
X496Y256D02*
X503Y256D01*
X694Y256D02*
X702Y256D01*
X745Y256D02*
X748Y256D01*
X760Y256D02*
X777Y256D01*
X817Y256D02*
X824Y256D01*
X1Y255D02*
X8Y255D01*
X496Y255D02*
X503Y255D01*
X694Y255D02*
X702Y255D01*
X745Y255D02*
X748Y255D01*
X760Y255D02*
X777Y255D01*
X817Y255D02*
X824Y255D01*
X1Y254D02*
X8Y254D01*
X496Y254D02*
X503Y254D01*
X693Y254D02*
X701Y254D01*
X745Y254D02*
X748Y254D01*
X760Y254D02*
X777Y254D01*
X817Y254D02*
X824Y254D01*
X1Y253D02*
X8Y253D01*
X496Y253D02*
X503Y253D01*
X693Y253D02*
X701Y253D01*
X746Y253D02*
X748Y253D01*
X761Y253D02*
X777Y253D01*
X817Y253D02*
X824Y253D01*
X1Y252D02*
X8Y252D01*
X496Y252D02*
X503Y252D01*
X692Y252D02*
X700Y252D01*
X817Y252D02*
X824Y252D01*
X1Y251D02*
X8Y251D01*
X496Y251D02*
X503Y251D01*
X691Y251D02*
X699Y251D01*
X817Y251D02*
X824Y251D01*
X1Y250D02*
X8Y250D01*
X496Y250D02*
X503Y250D01*
X691Y250D02*
X699Y250D01*
X817Y250D02*
X824Y250D01*
X1Y249D02*
X8Y249D01*
X496Y249D02*
X503Y249D01*
X690Y249D02*
X698Y249D01*
X817Y249D02*
X824Y249D01*
X1Y248D02*
X8Y248D01*
X496Y248D02*
X503Y248D01*
X689Y248D02*
X698Y248D01*
X817Y248D02*
X824Y248D01*
X1Y247D02*
X8Y247D01*
X496Y247D02*
X503Y247D01*
X689Y247D02*
X697Y247D01*
X817Y247D02*
X824Y247D01*
X1Y246D02*
X8Y246D01*
X496Y246D02*
X503Y246D01*
X688Y246D02*
X697Y246D01*
X817Y246D02*
X824Y246D01*
X1Y245D02*
X8Y245D01*
X496Y245D02*
X503Y245D01*
X687Y245D02*
X696Y245D01*
X817Y245D02*
X824Y245D01*
X1Y244D02*
X8Y244D01*
X496Y244D02*
X503Y244D01*
X687Y244D02*
X695Y244D01*
X817Y244D02*
X824Y244D01*
X1Y243D02*
X8Y243D01*
X496Y243D02*
X503Y243D01*
X686Y243D02*
X695Y243D01*
X817Y243D02*
X824Y243D01*
X1Y242D02*
X8Y242D01*
X496Y242D02*
X503Y242D01*
X685Y242D02*
X694Y242D01*
X817Y242D02*
X824Y242D01*
X1Y241D02*
X8Y241D01*
X496Y241D02*
X503Y241D01*
X684Y241D02*
X693Y241D01*
X817Y241D02*
X824Y241D01*
X1Y240D02*
X8Y240D01*
X496Y240D02*
X504Y240D01*
X684Y240D02*
X693Y240D01*
X817Y240D02*
X824Y240D01*
X1Y239D02*
X8Y239D01*
X496Y239D02*
X504Y239D01*
X683Y239D02*
X692Y239D01*
X817Y239D02*
X824Y239D01*
X1Y238D02*
X8Y238D01*
X496Y238D02*
X505Y238D01*
X682Y238D02*
X691Y238D01*
X817Y238D02*
X824Y238D01*
X1Y237D02*
X8Y237D01*
X497Y237D02*
X506Y237D01*
X681Y237D02*
X690Y237D01*
X817Y237D02*
X824Y237D01*
X1Y236D02*
X8Y236D01*
X498Y236D02*
X507Y236D01*
X680Y236D02*
X690Y236D01*
X817Y236D02*
X824Y236D01*
X1Y235D02*
X8Y235D01*
X499Y235D02*
X508Y235D01*
X680Y235D02*
X689Y235D01*
X817Y235D02*
X824Y235D01*
X1Y234D02*
X8Y234D01*
X499Y234D02*
X509Y234D01*
X679Y234D02*
X688Y234D01*
X817Y234D02*
X824Y234D01*
X1Y233D02*
X8Y233D01*
X500Y233D02*
X510Y233D01*
X678Y233D02*
X687Y233D01*
X817Y233D02*
X824Y233D01*
X1Y232D02*
X8Y232D01*
X501Y232D02*
X511Y232D01*
X677Y232D02*
X686Y232D01*
X817Y232D02*
X824Y232D01*
X1Y231D02*
X8Y231D01*
X502Y231D02*
X511Y231D01*
X676Y231D02*
X685Y231D01*
X817Y231D02*
X824Y231D01*
X1Y230D02*
X8Y230D01*
X503Y230D02*
X512Y230D01*
X675Y230D02*
X685Y230D01*
X817Y230D02*
X824Y230D01*
X1Y229D02*
X8Y229D01*
X504Y229D02*
X514Y229D01*
X674Y229D02*
X684Y229D01*
X817Y229D02*
X824Y229D01*
X1Y228D02*
X8Y228D01*
X505Y228D02*
X515Y228D01*
X673Y228D02*
X683Y228D01*
X754Y228D02*
X763Y228D01*
X817Y228D02*
X824Y228D01*
X1Y227D02*
X8Y227D01*
X505Y227D02*
X516Y227D01*
X672Y227D02*
X682Y227D01*
X754Y227D02*
X763Y227D01*
X817Y227D02*
X824Y227D01*
X1Y226D02*
X8Y226D01*
X506Y226D02*
X517Y226D01*
X671Y226D02*
X681Y226D01*
X754Y226D02*
X763Y226D01*
X817Y226D02*
X824Y226D01*
X1Y225D02*
X8Y225D01*
X507Y225D02*
X518Y225D01*
X670Y225D02*
X680Y225D01*
X754Y225D02*
X763Y225D01*
X817Y225D02*
X824Y225D01*
X1Y224D02*
X8Y224D01*
X508Y224D02*
X519Y224D01*
X668Y224D02*
X679Y224D01*
X754Y224D02*
X763Y224D01*
X817Y224D02*
X824Y224D01*
X1Y223D02*
X8Y223D01*
X509Y223D02*
X520Y223D01*
X667Y223D02*
X678Y223D01*
X754Y223D02*
X763Y223D01*
X817Y223D02*
X824Y223D01*
X1Y222D02*
X8Y222D01*
X511Y222D02*
X521Y222D01*
X666Y222D02*
X677Y222D01*
X754Y222D02*
X763Y222D01*
X817Y222D02*
X824Y222D01*
X1Y221D02*
X8Y221D01*
X512Y221D02*
X523Y221D01*
X665Y221D02*
X676Y221D01*
X754Y221D02*
X763Y221D01*
X817Y221D02*
X824Y221D01*
X1Y220D02*
X8Y220D01*
X513Y220D02*
X524Y220D01*
X663Y220D02*
X675Y220D01*
X754Y220D02*
X763Y220D01*
X817Y220D02*
X824Y220D01*
X1Y219D02*
X8Y219D01*
X514Y219D02*
X525Y219D01*
X662Y219D02*
X674Y219D01*
X754Y219D02*
X763Y219D01*
X817Y219D02*
X824Y219D01*
X1Y218D02*
X8Y218D01*
X515Y218D02*
X527Y218D01*
X661Y218D02*
X672Y218D01*
X754Y218D02*
X763Y218D01*
X817Y218D02*
X824Y218D01*
X1Y217D02*
X8Y217D01*
X276Y217D02*
X279Y217D01*
X289Y217D02*
X293Y217D01*
X516Y217D02*
X528Y217D01*
X659Y217D02*
X671Y217D01*
X754Y217D02*
X763Y217D01*
X817Y217D02*
X824Y217D01*
X1Y216D02*
X8Y216D01*
X274Y216D02*
X281Y216D01*
X288Y216D02*
X294Y216D01*
X517Y216D02*
X529Y216D01*
X658Y216D02*
X670Y216D01*
X754Y216D02*
X763Y216D01*
X817Y216D02*
X824Y216D01*
X1Y215D02*
X8Y215D01*
X274Y215D02*
X281Y215D01*
X287Y215D02*
X295Y215D01*
X519Y215D02*
X531Y215D01*
X656Y215D02*
X669Y215D01*
X754Y215D02*
X763Y215D01*
X817Y215D02*
X824Y215D01*
X1Y214D02*
X8Y214D01*
X273Y214D02*
X282Y214D01*
X287Y214D02*
X295Y214D01*
X520Y214D02*
X533Y214D01*
X655Y214D02*
X667Y214D01*
X754Y214D02*
X763Y214D01*
X817Y214D02*
X824Y214D01*
X1Y213D02*
X8Y213D01*
X273Y213D02*
X282Y213D01*
X287Y213D02*
X296Y213D01*
X521Y213D02*
X534Y213D01*
X653Y213D02*
X666Y213D01*
X754Y213D02*
X763Y213D01*
X817Y213D02*
X824Y213D01*
X1Y212D02*
X8Y212D01*
X273Y212D02*
X282Y212D01*
X287Y212D02*
X296Y212D01*
X523Y212D02*
X536Y212D01*
X652Y212D02*
X665Y212D01*
X754Y212D02*
X763Y212D01*
X817Y212D02*
X824Y212D01*
X1Y211D02*
X8Y211D01*
X273Y211D02*
X282Y211D01*
X287Y211D02*
X296Y211D01*
X524Y211D02*
X538Y211D01*
X650Y211D02*
X663Y211D01*
X754Y211D02*
X763Y211D01*
X817Y211D02*
X824Y211D01*
X1Y210D02*
X8Y210D01*
X273Y210D02*
X282Y210D01*
X287Y210D02*
X296Y210D01*
X525Y210D02*
X539Y210D01*
X648Y210D02*
X662Y210D01*
X754Y210D02*
X763Y210D01*
X817Y210D02*
X824Y210D01*
X1Y209D02*
X8Y209D01*
X273Y209D02*
X282Y209D01*
X287Y209D02*
X296Y209D01*
X527Y209D02*
X541Y209D01*
X646Y209D02*
X660Y209D01*
X754Y209D02*
X763Y209D01*
X817Y209D02*
X824Y209D01*
X1Y208D02*
X8Y208D01*
X273Y208D02*
X282Y208D01*
X287Y208D02*
X296Y208D01*
X528Y208D02*
X543Y208D01*
X644Y208D02*
X659Y208D01*
X754Y208D02*
X763Y208D01*
X817Y208D02*
X824Y208D01*
X1Y207D02*
X8Y207D01*
X273Y207D02*
X282Y207D01*
X287Y207D02*
X296Y207D01*
X530Y207D02*
X545Y207D01*
X642Y207D02*
X657Y207D01*
X754Y207D02*
X763Y207D01*
X817Y207D02*
X824Y207D01*
X1Y206D02*
X8Y206D01*
X273Y206D02*
X282Y206D01*
X287Y206D02*
X296Y206D01*
X532Y206D02*
X548Y206D01*
X640Y206D02*
X656Y206D01*
X754Y206D02*
X763Y206D01*
X817Y206D02*
X824Y206D01*
X1Y205D02*
X8Y205D01*
X264Y205D02*
X296Y205D01*
X533Y205D02*
X550Y205D01*
X637Y205D02*
X654Y205D01*
X754Y205D02*
X763Y205D01*
X817Y205D02*
X824Y205D01*
X1Y204D02*
X8Y204D01*
X264Y204D02*
X299Y204D01*
X535Y204D02*
X553Y204D01*
X635Y204D02*
X652Y204D01*
X754Y204D02*
X763Y204D01*
X817Y204D02*
X824Y204D01*
X1Y203D02*
X8Y203D01*
X264Y203D02*
X301Y203D01*
X537Y203D02*
X555Y203D01*
X632Y203D02*
X650Y203D01*
X754Y203D02*
X763Y203D01*
X817Y203D02*
X824Y203D01*
X1Y202D02*
X8Y202D01*
X264Y202D02*
X303Y202D01*
X539Y202D02*
X558Y202D01*
X629Y202D02*
X648Y202D01*
X754Y202D02*
X763Y202D01*
X817Y202D02*
X824Y202D01*
X1Y201D02*
X8Y201D01*
X264Y201D02*
X304Y201D01*
X541Y201D02*
X561Y201D01*
X626Y201D02*
X646Y201D01*
X754Y201D02*
X763Y201D01*
X817Y201D02*
X824Y201D01*
X1Y200D02*
X8Y200D01*
X264Y200D02*
X305Y200D01*
X543Y200D02*
X565Y200D01*
X622Y200D02*
X644Y200D01*
X754Y200D02*
X763Y200D01*
X817Y200D02*
X824Y200D01*
X1Y199D02*
X8Y199D01*
X264Y199D02*
X306Y199D01*
X545Y199D02*
X569Y199D01*
X617Y199D02*
X642Y199D01*
X754Y199D02*
X763Y199D01*
X817Y199D02*
X824Y199D01*
X1Y198D02*
X8Y198D01*
X264Y198D02*
X307Y198D01*
X548Y198D02*
X575Y198D01*
X612Y198D02*
X640Y198D01*
X754Y198D02*
X763Y198D01*
X817Y198D02*
X824Y198D01*
X1Y197D02*
X8Y197D01*
X264Y197D02*
X308Y197D01*
X550Y197D02*
X583Y197D01*
X604Y197D02*
X637Y197D01*
X754Y197D02*
X763Y197D01*
X817Y197D02*
X824Y197D01*
X1Y196D02*
X8Y196D01*
X264Y196D02*
X308Y196D01*
X553Y196D02*
X635Y196D01*
X754Y196D02*
X763Y196D01*
X817Y196D02*
X824Y196D01*
X1Y195D02*
X8Y195D01*
X264Y195D02*
X272Y195D01*
X296Y195D02*
X309Y195D01*
X556Y195D02*
X632Y195D01*
X754Y195D02*
X754Y195D01*
X817Y195D02*
X824Y195D01*
X1Y194D02*
X8Y194D01*
X264Y194D02*
X272Y194D01*
X298Y194D02*
X309Y194D01*
X559Y194D02*
X629Y194D01*
X817Y194D02*
X824Y194D01*
X1Y193D02*
X8Y193D01*
X264Y193D02*
X272Y193D01*
X299Y193D02*
X310Y193D01*
X562Y193D02*
X625Y193D01*
X817Y193D02*
X824Y193D01*
X1Y192D02*
X8Y192D01*
X264Y192D02*
X272Y192D01*
X300Y192D02*
X310Y192D01*
X566Y192D02*
X621Y192D01*
X817Y192D02*
X824Y192D01*
X1Y191D02*
X8Y191D01*
X264Y191D02*
X272Y191D01*
X301Y191D02*
X310Y191D01*
X571Y191D02*
X617Y191D01*
X817Y191D02*
X824Y191D01*
X1Y190D02*
X8Y190D01*
X264Y190D02*
X272Y190D01*
X301Y190D02*
X311Y190D01*
X577Y190D02*
X611Y190D01*
X817Y190D02*
X824Y190D01*
X1Y189D02*
X8Y189D01*
X264Y189D02*
X272Y189D01*
X302Y189D02*
X311Y189D01*
X587Y189D02*
X601Y189D01*
X817Y189D02*
X824Y189D01*
X1Y188D02*
X8Y188D01*
X264Y188D02*
X272Y188D01*
X302Y188D02*
X311Y188D01*
X817Y188D02*
X824Y188D01*
X1Y187D02*
X8Y187D01*
X264Y187D02*
X272Y187D01*
X302Y187D02*
X311Y187D01*
X817Y187D02*
X824Y187D01*
X1Y186D02*
X8Y186D01*
X264Y186D02*
X272Y186D01*
X302Y186D02*
X311Y186D01*
X817Y186D02*
X824Y186D01*
X1Y185D02*
X8Y185D01*
X264Y185D02*
X272Y185D01*
X302Y185D02*
X311Y185D01*
X817Y185D02*
X824Y185D01*
X1Y184D02*
X8Y184D01*
X264Y184D02*
X272Y184D01*
X302Y184D02*
X311Y184D01*
X500Y184D02*
X699Y184D01*
X817Y184D02*
X824Y184D01*
X1Y183D02*
X8Y183D01*
X264Y183D02*
X272Y183D01*
X302Y183D02*
X311Y183D01*
X500Y183D02*
X699Y183D01*
X817Y183D02*
X824Y183D01*
X1Y182D02*
X8Y182D01*
X264Y182D02*
X272Y182D01*
X302Y182D02*
X311Y182D01*
X500Y182D02*
X699Y182D01*
X817Y182D02*
X824Y182D01*
X1Y181D02*
X8Y181D01*
X264Y181D02*
X272Y181D01*
X302Y181D02*
X311Y181D01*
X500Y181D02*
X699Y181D01*
X817Y181D02*
X824Y181D01*
X1Y180D02*
X8Y180D01*
X264Y180D02*
X272Y180D01*
X302Y180D02*
X311Y180D01*
X500Y180D02*
X699Y180D01*
X817Y180D02*
X824Y180D01*
X1Y179D02*
X8Y179D01*
X264Y179D02*
X272Y179D01*
X302Y179D02*
X311Y179D01*
X500Y179D02*
X699Y179D01*
X817Y179D02*
X824Y179D01*
X1Y178D02*
X8Y178D01*
X264Y178D02*
X272Y178D01*
X301Y178D02*
X310Y178D01*
X500Y178D02*
X699Y178D01*
X817Y178D02*
X824Y178D01*
X1Y177D02*
X8Y177D01*
X264Y177D02*
X272Y177D01*
X300Y177D02*
X310Y177D01*
X500Y177D02*
X699Y177D01*
X817Y177D02*
X824Y177D01*
X1Y176D02*
X8Y176D01*
X264Y176D02*
X272Y176D01*
X300Y176D02*
X310Y176D01*
X500Y176D02*
X699Y176D01*
X817Y176D02*
X824Y176D01*
X1Y175D02*
X8Y175D01*
X264Y175D02*
X272Y175D01*
X299Y175D02*
X309Y175D01*
X500Y175D02*
X699Y175D01*
X817Y175D02*
X824Y175D01*
X1Y174D02*
X8Y174D01*
X264Y174D02*
X272Y174D01*
X297Y174D02*
X309Y174D01*
X667Y174D02*
X673Y174D01*
X817Y174D02*
X824Y174D01*
X1Y173D02*
X8Y173D01*
X264Y173D02*
X273Y173D01*
X295Y173D02*
X308Y173D01*
X817Y173D02*
X824Y173D01*
X1Y172D02*
X8Y172D01*
X264Y172D02*
X308Y172D01*
X817Y172D02*
X824Y172D01*
X1Y171D02*
X8Y171D01*
X264Y171D02*
X307Y171D01*
X817Y171D02*
X824Y171D01*
X1Y170D02*
X8Y170D01*
X264Y170D02*
X306Y170D01*
X817Y170D02*
X824Y170D01*
X1Y169D02*
X8Y169D01*
X264Y169D02*
X305Y169D01*
X817Y169D02*
X824Y169D01*
X1Y168D02*
X8Y168D01*
X264Y168D02*
X305Y168D01*
X817Y168D02*
X824Y168D01*
X1Y167D02*
X8Y167D01*
X264Y167D02*
X305Y167D01*
X817Y167D02*
X824Y167D01*
X1Y166D02*
X8Y166D01*
X264Y166D02*
X306Y166D01*
X817Y166D02*
X824Y166D01*
X1Y165D02*
X8Y165D01*
X264Y165D02*
X307Y165D01*
X817Y165D02*
X824Y165D01*
X1Y164D02*
X8Y164D01*
X264Y164D02*
X308Y164D01*
X817Y164D02*
X824Y164D01*
X1Y163D02*
X8Y163D01*
X264Y163D02*
X308Y163D01*
X817Y163D02*
X824Y163D01*
X1Y162D02*
X8Y162D01*
X264Y162D02*
X272Y162D01*
X296Y162D02*
X309Y162D01*
X817Y162D02*
X824Y162D01*
X1Y161D02*
X8Y161D01*
X264Y161D02*
X272Y161D01*
X298Y161D02*
X309Y161D01*
X817Y161D02*
X824Y161D01*
X1Y160D02*
X8Y160D01*
X264Y160D02*
X272Y160D01*
X299Y160D02*
X310Y160D01*
X817Y160D02*
X824Y160D01*
X1Y159D02*
X8Y159D01*
X264Y159D02*
X272Y159D01*
X300Y159D02*
X310Y159D01*
X817Y159D02*
X824Y159D01*
X1Y158D02*
X8Y158D01*
X264Y158D02*
X272Y158D01*
X301Y158D02*
X310Y158D01*
X817Y158D02*
X824Y158D01*
X1Y157D02*
X8Y157D01*
X264Y157D02*
X272Y157D01*
X301Y157D02*
X311Y157D01*
X817Y157D02*
X824Y157D01*
X1Y156D02*
X8Y156D01*
X264Y156D02*
X272Y156D01*
X302Y156D02*
X311Y156D01*
X817Y156D02*
X824Y156D01*
X1Y155D02*
X8Y155D01*
X264Y155D02*
X272Y155D01*
X302Y155D02*
X311Y155D01*
X817Y155D02*
X824Y155D01*
X1Y154D02*
X8Y154D01*
X264Y154D02*
X272Y154D01*
X302Y154D02*
X311Y154D01*
X817Y154D02*
X824Y154D01*
X1Y153D02*
X8Y153D01*
X264Y153D02*
X272Y153D01*
X302Y153D02*
X311Y153D01*
X694Y153D02*
X694Y153D01*
X817Y153D02*
X824Y153D01*
X1Y152D02*
X8Y152D01*
X264Y152D02*
X272Y152D01*
X302Y152D02*
X311Y152D01*
X694Y152D02*
X695Y152D01*
X817Y152D02*
X824Y152D01*
X1Y151D02*
X8Y151D01*
X264Y151D02*
X272Y151D01*
X302Y151D02*
X311Y151D01*
X694Y151D02*
X696Y151D01*
X817Y151D02*
X824Y151D01*
X1Y150D02*
X8Y150D01*
X264Y150D02*
X272Y150D01*
X302Y150D02*
X311Y150D01*
X694Y150D02*
X697Y150D01*
X817Y150D02*
X824Y150D01*
X1Y149D02*
X8Y149D01*
X264Y149D02*
X272Y149D01*
X302Y149D02*
X311Y149D01*
X694Y149D02*
X698Y149D01*
X817Y149D02*
X824Y149D01*
X1Y148D02*
X8Y148D01*
X264Y148D02*
X272Y148D01*
X302Y148D02*
X311Y148D01*
X694Y148D02*
X699Y148D01*
X817Y148D02*
X824Y148D01*
X1Y147D02*
X8Y147D01*
X264Y147D02*
X272Y147D01*
X302Y147D02*
X311Y147D01*
X694Y147D02*
X700Y147D01*
X817Y147D02*
X824Y147D01*
X1Y146D02*
X8Y146D01*
X264Y146D02*
X272Y146D01*
X302Y146D02*
X311Y146D01*
X695Y146D02*
X701Y146D01*
X817Y146D02*
X824Y146D01*
X1Y145D02*
X8Y145D01*
X264Y145D02*
X272Y145D01*
X301Y145D02*
X310Y145D01*
X696Y145D02*
X700Y145D01*
X817Y145D02*
X824Y145D01*
X1Y144D02*
X8Y144D01*
X264Y144D02*
X272Y144D01*
X300Y144D02*
X310Y144D01*
X697Y144D02*
X699Y144D01*
X817Y144D02*
X824Y144D01*
X1Y143D02*
X8Y143D01*
X264Y143D02*
X272Y143D01*
X300Y143D02*
X310Y143D01*
X698Y143D02*
X698Y143D01*
X817Y143D02*
X824Y143D01*
X1Y142D02*
X8Y142D01*
X264Y142D02*
X272Y142D01*
X299Y142D02*
X309Y142D01*
X817Y142D02*
X824Y142D01*
X1Y141D02*
X8Y141D01*
X264Y141D02*
X272Y141D01*
X297Y141D02*
X309Y141D01*
X817Y141D02*
X824Y141D01*
X1Y140D02*
X8Y140D01*
X264Y140D02*
X273Y140D01*
X295Y140D02*
X309Y140D01*
X817Y140D02*
X824Y140D01*
X1Y139D02*
X8Y139D01*
X264Y139D02*
X308Y139D01*
X817Y139D02*
X824Y139D01*
X1Y138D02*
X8Y138D01*
X264Y138D02*
X307Y138D01*
X817Y138D02*
X824Y138D01*
X1Y137D02*
X8Y137D01*
X264Y137D02*
X306Y137D01*
X817Y137D02*
X824Y137D01*
X1Y136D02*
X8Y136D01*
X264Y136D02*
X305Y136D01*
X817Y136D02*
X824Y136D01*
X1Y135D02*
X8Y135D01*
X264Y135D02*
X305Y135D01*
X817Y135D02*
X824Y135D01*
X1Y134D02*
X8Y134D01*
X264Y134D02*
X303Y134D01*
X817Y134D02*
X824Y134D01*
X1Y133D02*
X8Y133D01*
X264Y133D02*
X302Y133D01*
X817Y133D02*
X824Y133D01*
X1Y132D02*
X8Y132D01*
X264Y132D02*
X300Y132D01*
X817Y132D02*
X824Y132D01*
X1Y131D02*
X8Y131D01*
X264Y131D02*
X298Y131D01*
X817Y131D02*
X824Y131D01*
X1Y130D02*
X8Y130D01*
X265Y130D02*
X296Y130D01*
X817Y130D02*
X824Y130D01*
X1Y129D02*
X8Y129D01*
X273Y129D02*
X282Y129D01*
X287Y129D02*
X296Y129D01*
X817Y129D02*
X824Y129D01*
X1Y128D02*
X8Y128D01*
X273Y128D02*
X282Y128D01*
X287Y128D02*
X296Y128D01*
X817Y128D02*
X824Y128D01*
X1Y127D02*
X8Y127D01*
X273Y127D02*
X282Y127D01*
X287Y127D02*
X296Y127D01*
X817Y127D02*
X824Y127D01*
X1Y126D02*
X8Y126D01*
X273Y126D02*
X282Y126D01*
X287Y126D02*
X296Y126D01*
X817Y126D02*
X824Y126D01*
X1Y125D02*
X8Y125D01*
X273Y125D02*
X282Y125D01*
X287Y125D02*
X296Y125D01*
X817Y125D02*
X824Y125D01*
X1Y124D02*
X8Y124D01*
X273Y124D02*
X282Y124D01*
X287Y124D02*
X296Y124D01*
X817Y124D02*
X824Y124D01*
X1Y123D02*
X8Y123D01*
X273Y123D02*
X282Y123D01*
X287Y123D02*
X296Y123D01*
X817Y123D02*
X824Y123D01*
X1Y122D02*
X8Y122D01*
X273Y122D02*
X282Y122D01*
X287Y122D02*
X296Y122D01*
X817Y122D02*
X824Y122D01*
X1Y121D02*
X8Y121D01*
X273Y121D02*
X282Y121D01*
X287Y121D02*
X295Y121D01*
X817Y121D02*
X824Y121D01*
X1Y120D02*
X8Y120D01*
X274Y120D02*
X281Y120D01*
X287Y120D02*
X295Y120D01*
X817Y120D02*
X824Y120D01*
X1Y119D02*
X8Y119D01*
X274Y119D02*
X281Y119D01*
X288Y119D02*
X294Y119D01*
X817Y119D02*
X824Y119D01*
X1Y118D02*
X8Y118D01*
X275Y118D02*
X280Y118D01*
X289Y118D02*
X293Y118D01*
X817Y118D02*
X824Y118D01*
X1Y117D02*
X8Y117D01*
X817Y117D02*
X824Y117D01*
X1Y116D02*
X8Y116D01*
X817Y116D02*
X824Y116D01*
X1Y115D02*
X8Y115D01*
X817Y115D02*
X824Y115D01*
X1Y114D02*
X8Y114D01*
X817Y114D02*
X824Y114D01*
X1Y113D02*
X8Y113D01*
X817Y113D02*
X824Y113D01*
X1Y112D02*
X8Y112D01*
X817Y112D02*
X824Y112D01*
X1Y111D02*
X8Y111D01*
X817Y111D02*
X824Y111D01*
X1Y110D02*
X8Y110D01*
X817Y110D02*
X824Y110D01*
X1Y109D02*
X8Y109D01*
X817Y109D02*
X824Y109D01*
X1Y108D02*
X8Y108D01*
X817Y108D02*
X824Y108D01*
X1Y107D02*
X8Y107D01*
X817Y107D02*
X824Y107D01*
X1Y106D02*
X8Y106D01*
X817Y106D02*
X824Y106D01*
X1Y105D02*
X8Y105D01*
X817Y105D02*
X824Y105D01*
X1Y104D02*
X8Y104D01*
X817Y104D02*
X824Y104D01*
X1Y103D02*
X8Y103D01*
X817Y103D02*
X824Y103D01*
X1Y102D02*
X8Y102D01*
X817Y102D02*
X824Y102D01*
X1Y101D02*
X8Y101D01*
X817Y101D02*
X824Y101D01*
X1Y100D02*
X8Y100D01*
X817Y100D02*
X824Y100D01*
X1Y99D02*
X8Y99D01*
X817Y99D02*
X824Y99D01*
X1Y98D02*
X8Y98D01*
X817Y98D02*
X824Y98D01*
X1Y97D02*
X8Y97D01*
X817Y97D02*
X824Y97D01*
X1Y96D02*
X8Y96D01*
X817Y96D02*
X824Y96D01*
X1Y95D02*
X8Y95D01*
X817Y95D02*
X824Y95D01*
X1Y94D02*
X8Y94D01*
X817Y94D02*
X824Y94D01*
X1Y93D02*
X8Y93D01*
X817Y93D02*
X824Y93D01*
X1Y92D02*
X8Y92D01*
X817Y92D02*
X824Y92D01*
X1Y91D02*
X8Y91D01*
X817Y91D02*
X824Y91D01*
X1Y90D02*
X8Y90D01*
X817Y90D02*
X824Y90D01*
X1Y89D02*
X8Y89D01*
X817Y89D02*
X824Y89D01*
X1Y88D02*
X8Y88D01*
X817Y88D02*
X824Y88D01*
X1Y87D02*
X8Y87D01*
X817Y87D02*
X824Y87D01*
X1Y86D02*
X8Y86D01*
X817Y86D02*
X824Y86D01*
X1Y85D02*
X8Y85D01*
X817Y85D02*
X824Y85D01*
X1Y84D02*
X8Y84D01*
X817Y84D02*
X824Y84D01*
X1Y83D02*
X8Y83D01*
X817Y83D02*
X824Y83D01*
X1Y82D02*
X8Y82D01*
X817Y82D02*
X824Y82D01*
X1Y81D02*
X8Y81D01*
X817Y81D02*
X824Y81D01*
X1Y80D02*
X8Y80D01*
X817Y80D02*
X824Y80D01*
X1Y79D02*
X8Y79D01*
X817Y79D02*
X824Y79D01*
X1Y78D02*
X8Y78D01*
X817Y78D02*
X824Y78D01*
X1Y77D02*
X8Y77D01*
X817Y77D02*
X824Y77D01*
X1Y76D02*
X8Y76D01*
X817Y76D02*
X824Y76D01*
X1Y75D02*
X8Y75D01*
X817Y75D02*
X824Y75D01*
X1Y74D02*
X8Y74D01*
X817Y74D02*
X824Y74D01*
X1Y73D02*
X8Y73D01*
X817Y73D02*
X824Y73D01*
X1Y72D02*
X8Y72D01*
X817Y72D02*
X824Y72D01*
X1Y71D02*
X8Y71D01*
X817Y71D02*
X824Y71D01*
X1Y70D02*
X8Y70D01*
X817Y70D02*
X824Y70D01*
X1Y69D02*
X8Y69D01*
X817Y69D02*
X824Y69D01*
X1Y68D02*
X8Y68D01*
X817Y68D02*
X824Y68D01*
X1Y67D02*
X8Y67D01*
X817Y67D02*
X824Y67D01*
X1Y66D02*
X8Y66D01*
X817Y66D02*
X824Y66D01*
X1Y65D02*
X8Y65D01*
X817Y65D02*
X824Y65D01*
X1Y64D02*
X8Y64D01*
X817Y64D02*
X824Y64D01*
X1Y63D02*
X8Y63D01*
X634Y63D02*
X639Y63D01*
X652Y63D02*
X656Y63D01*
X683Y63D02*
X692Y63D01*
X817Y63D02*
X824Y63D01*
X1Y62D02*
X8Y62D01*
X631Y62D02*
X641Y62D01*
X652Y62D02*
X657Y62D01*
X669Y62D02*
X671Y62D01*
X682Y62D02*
X695Y62D01*
X817Y62D02*
X824Y62D01*
X1Y61D02*
X8Y61D01*
X629Y61D02*
X641Y61D01*
X652Y61D02*
X657Y61D01*
X668Y61D02*
X671Y61D01*
X681Y61D02*
X696Y61D01*
X817Y61D02*
X824Y61D01*
X1Y60D02*
X8Y60D01*
X628Y60D02*
X641Y60D01*
X652Y60D02*
X658Y60D01*
X668Y60D02*
X671Y60D01*
X681Y60D02*
X697Y60D01*
X817Y60D02*
X824Y60D01*
X1Y59D02*
X8Y59D01*
X627Y59D02*
X640Y59D01*
X652Y59D02*
X658Y59D01*
X668Y59D02*
X671Y59D01*
X683Y59D02*
X697Y59D01*
X817Y59D02*
X824Y59D01*
X1Y58D02*
X8Y58D01*
X626Y58D02*
X631Y58D01*
X652Y58D02*
X658Y58D01*
X668Y58D02*
X671Y58D01*
X685Y58D02*
X689Y58D01*
X694Y58D02*
X698Y58D01*
X817Y58D02*
X824Y58D01*
X1Y57D02*
X8Y57D01*
X625Y57D02*
X630Y57D01*
X652Y57D02*
X659Y57D01*
X668Y57D02*
X671Y57D01*
X685Y57D02*
X689Y57D01*
X694Y57D02*
X698Y57D01*
X817Y57D02*
X824Y57D01*
X1Y56D02*
X8Y56D01*
X624Y56D02*
X629Y56D01*
X652Y56D02*
X659Y56D01*
X668Y56D02*
X671Y56D01*
X685Y56D02*
X689Y56D01*
X695Y56D02*
X699Y56D01*
X817Y56D02*
X824Y56D01*
X1Y55D02*
X8Y55D01*
X623Y55D02*
X628Y55D01*
X652Y55D02*
X660Y55D01*
X668Y55D02*
X671Y55D01*
X685Y55D02*
X689Y55D01*
X695Y55D02*
X699Y55D01*
X817Y55D02*
X824Y55D01*
X1Y54D02*
X8Y54D01*
X622Y54D02*
X627Y54D01*
X652Y54D02*
X655Y54D01*
X657Y54D02*
X660Y54D01*
X668Y54D02*
X671Y54D01*
X685Y54D02*
X689Y54D01*
X696Y54D02*
X700Y54D01*
X817Y54D02*
X824Y54D01*
X1Y53D02*
X8Y53D01*
X622Y53D02*
X626Y53D01*
X652Y53D02*
X655Y53D01*
X657Y53D02*
X661Y53D01*
X668Y53D02*
X671Y53D01*
X685Y53D02*
X689Y53D01*
X696Y53D02*
X700Y53D01*
X817Y53D02*
X824Y53D01*
X1Y52D02*
X8Y52D01*
X622Y52D02*
X625Y52D01*
X652Y52D02*
X655Y52D01*
X657Y52D02*
X661Y52D01*
X668Y52D02*
X671Y52D01*
X685Y52D02*
X689Y52D01*
X697Y52D02*
X701Y52D01*
X817Y52D02*
X824Y52D01*
X1Y51D02*
X8Y51D01*
X622Y51D02*
X625Y51D01*
X652Y51D02*
X655Y51D01*
X658Y51D02*
X662Y51D01*
X668Y51D02*
X671Y51D01*
X685Y51D02*
X689Y51D01*
X697Y51D02*
X701Y51D01*
X817Y51D02*
X824Y51D01*
X1Y50D02*
X8Y50D01*
X622Y50D02*
X625Y50D01*
X652Y50D02*
X655Y50D01*
X658Y50D02*
X662Y50D01*
X668Y50D02*
X671Y50D01*
X685Y50D02*
X689Y50D01*
X698Y50D02*
X702Y50D01*
X817Y50D02*
X824Y50D01*
X1Y49D02*
X8Y49D01*
X622Y49D02*
X625Y49D01*
X652Y49D02*
X655Y49D01*
X659Y49D02*
X662Y49D01*
X668Y49D02*
X671Y49D01*
X685Y49D02*
X689Y49D01*
X698Y49D02*
X702Y49D01*
X817Y49D02*
X824Y49D01*
X1Y48D02*
X8Y48D01*
X622Y48D02*
X625Y48D01*
X652Y48D02*
X655Y48D01*
X659Y48D02*
X663Y48D01*
X668Y48D02*
X671Y48D01*
X685Y48D02*
X689Y48D01*
X699Y48D02*
X702Y48D01*
X817Y48D02*
X824Y48D01*
X1Y47D02*
X8Y47D01*
X622Y47D02*
X625Y47D01*
X652Y47D02*
X655Y47D01*
X660Y47D02*
X663Y47D01*
X668Y47D02*
X671Y47D01*
X685Y47D02*
X689Y47D01*
X699Y47D02*
X702Y47D01*
X817Y47D02*
X824Y47D01*
X1Y46D02*
X8Y46D01*
X622Y46D02*
X625Y46D01*
X631Y46D02*
X641Y46D01*
X652Y46D02*
X655Y46D01*
X660Y46D02*
X664Y46D01*
X668Y46D02*
X671Y46D01*
X685Y46D02*
X689Y46D01*
X699Y46D02*
X702Y46D01*
X817Y46D02*
X824Y46D01*
X1Y45D02*
X8Y45D01*
X622Y45D02*
X625Y45D01*
X631Y45D02*
X641Y45D01*
X652Y45D02*
X655Y45D01*
X661Y45D02*
X664Y45D01*
X668Y45D02*
X671Y45D01*
X685Y45D02*
X689Y45D01*
X699Y45D02*
X702Y45D01*
X817Y45D02*
X824Y45D01*
X1Y44D02*
X8Y44D01*
X622Y44D02*
X625Y44D01*
X631Y44D02*
X641Y44D01*
X652Y44D02*
X655Y44D01*
X661Y44D02*
X665Y44D01*
X668Y44D02*
X671Y44D01*
X685Y44D02*
X689Y44D01*
X698Y44D02*
X702Y44D01*
X817Y44D02*
X824Y44D01*
X1Y43D02*
X8Y43D01*
X622Y43D02*
X625Y43D01*
X632Y43D02*
X641Y43D01*
X652Y43D02*
X655Y43D01*
X661Y43D02*
X665Y43D01*
X668Y43D02*
X671Y43D01*
X685Y43D02*
X689Y43D01*
X698Y43D02*
X701Y43D01*
X817Y43D02*
X824Y43D01*
X1Y42D02*
X8Y42D01*
X622Y42D02*
X625Y42D01*
X638Y42D02*
X641Y42D01*
X652Y42D02*
X655Y42D01*
X662Y42D02*
X665Y42D01*
X668Y42D02*
X671Y42D01*
X685Y42D02*
X689Y42D01*
X697Y42D02*
X701Y42D01*
X817Y42D02*
X824Y42D01*
X1Y41D02*
X8Y41D01*
X622Y41D02*
X625Y41D01*
X638Y41D02*
X641Y41D01*
X652Y41D02*
X655Y41D01*
X662Y41D02*
X666Y41D01*
X668Y41D02*
X671Y41D01*
X685Y41D02*
X689Y41D01*
X697Y41D02*
X700Y41D01*
X817Y41D02*
X824Y41D01*
X1Y40D02*
X8Y40D01*
X622Y40D02*
X625Y40D01*
X638Y40D02*
X641Y40D01*
X652Y40D02*
X655Y40D01*
X663Y40D02*
X666Y40D01*
X668Y40D02*
X671Y40D01*
X685Y40D02*
X689Y40D01*
X696Y40D02*
X700Y40D01*
X817Y40D02*
X824Y40D01*
X1Y39D02*
X8Y39D01*
X622Y39D02*
X625Y39D01*
X638Y39D02*
X641Y39D01*
X652Y39D02*
X655Y39D01*
X663Y39D02*
X671Y39D01*
X685Y39D02*
X689Y39D01*
X696Y39D02*
X699Y39D01*
X817Y39D02*
X824Y39D01*
X1Y38D02*
X8Y38D01*
X622Y38D02*
X625Y38D01*
X638Y38D02*
X641Y38D01*
X652Y38D02*
X655Y38D01*
X664Y38D02*
X671Y38D01*
X685Y38D02*
X689Y38D01*
X695Y38D02*
X699Y38D01*
X817Y38D02*
X824Y38D01*
X1Y37D02*
X8Y37D01*
X622Y37D02*
X625Y37D01*
X638Y37D02*
X641Y37D01*
X652Y37D02*
X655Y37D01*
X664Y37D02*
X671Y37D01*
X685Y37D02*
X689Y37D01*
X695Y37D02*
X698Y37D01*
X817Y37D02*
X824Y37D01*
X1Y36D02*
X8Y36D01*
X622Y36D02*
X625Y36D01*
X638Y36D02*
X641Y36D01*
X652Y36D02*
X655Y36D01*
X664Y36D02*
X671Y36D01*
X685Y36D02*
X689Y36D01*
X694Y36D02*
X698Y36D01*
X817Y36D02*
X824Y36D01*
X1Y35D02*
X8Y35D01*
X622Y35D02*
X626Y35D01*
X637Y35D02*
X641Y35D01*
X652Y35D02*
X655Y35D01*
X665Y35D02*
X671Y35D01*
X685Y35D02*
X689Y35D01*
X693Y35D02*
X697Y35D01*
X817Y35D02*
X824Y35D01*
X1Y34D02*
X8Y34D01*
X622Y34D02*
X641Y34D01*
X652Y34D02*
X655Y34D01*
X665Y34D02*
X671Y34D01*
X682Y34D02*
X697Y34D01*
X817Y34D02*
X824Y34D01*
X1Y33D02*
X8Y33D01*
X623Y33D02*
X640Y33D01*
X652Y33D02*
X655Y33D01*
X666Y33D02*
X671Y33D01*
X681Y33D02*
X696Y33D01*
X817Y33D02*
X824Y33D01*
X1Y32D02*
X8Y32D01*
X624Y32D02*
X639Y32D01*
X652Y32D02*
X655Y32D01*
X666Y32D02*
X671Y32D01*
X681Y32D02*
X695Y32D01*
X817Y32D02*
X824Y32D01*
X1Y31D02*
X8Y31D01*
X626Y31D02*
X637Y31D01*
X653Y31D02*
X654Y31D01*
X667Y31D02*
X671Y31D01*
X682Y31D02*
X693Y31D01*
X817Y31D02*
X824Y31D01*
X1Y30D02*
X8Y30D01*
X817Y30D02*
X824Y30D01*
X1Y29D02*
X8Y29D01*
X817Y29D02*
X824Y29D01*
X1Y28D02*
X8Y28D01*
X817Y28D02*
X824Y28D01*
X1Y27D02*
X8Y27D01*
X817Y27D02*
X824Y27D01*
X1Y26D02*
X8Y26D01*
X817Y26D02*
X824Y26D01*
X1Y25D02*
X8Y25D01*
X817Y25D02*
X824Y25D01*
X1Y24D02*
X8Y24D01*
X817Y24D02*
X824Y24D01*
X1Y23D02*
X8Y23D01*
X817Y23D02*
X824Y23D01*
X1Y22D02*
X8Y22D01*
X817Y22D02*
X824Y22D01*
X1Y21D02*
X8Y21D01*
X817Y21D02*
X824Y21D01*
X1Y20D02*
X8Y20D01*
X817Y20D02*
X824Y20D01*
X1Y19D02*
X8Y19D01*
X817Y19D02*
X824Y19D01*
X1Y18D02*
X8Y18D01*
X817Y18D02*
X824Y18D01*
X1Y17D02*
X8Y17D01*
X817Y17D02*
X824Y17D01*
X1Y16D02*
X8Y16D01*
X817Y16D02*
X824Y16D01*
X1Y15D02*
X8Y15D01*
X817Y15D02*
X824Y15D01*
X1Y14D02*
X8Y14D01*
X817Y14D02*
X824Y14D01*
X1Y13D02*
X8Y13D01*
X817Y13D02*
X824Y13D01*
X1Y12D02*
X8Y12D01*
X817Y12D02*
X824Y12D01*
X1Y11D02*
X8Y11D01*
X817Y11D02*
X824Y11D01*
X1Y10D02*
X8Y10D01*
X817Y10D02*
X824Y10D01*
X1Y9D02*
X8Y9D01*
X817Y9D02*
X824Y9D01*
X1Y8D02*
X824Y8D01*
X1Y7D02*
X824Y7D01*
X1Y6D02*
X824Y6D01*
X1Y5D02*
X824Y5D01*
X1Y4D02*
X824Y4D01*
X1Y3D02*
X824Y3D01*
X1Y2D02*
X824Y2D01*
X1Y1D02*
X824Y1D01*
D02*
G04 End of Silk1*
M02*